<svg id="Layer_1" enable-background="new 0 0 24 24" height="512" viewBox="0 0 24 24" width="512" xmlns="http://www.w3.org/2000/svg"><g><path d="m20 16h-1.5v-14.5c0-.28-.22-.5-.5-.5h-12c-.28 0-.5.22-.5.5v1.5h-1.5c-.28 0-.5.22-.5.5v17c0 1.38 1.12 2.5 2.5 2.5h12c.82 0 1.54-.39 2-1 .31-.41.5-.94.5-1.5v-4c0-.28-.22-.5-.5-.5zm-14 6c-.83 0-1.5-.67-1.5-1.5v-16.5h11v16.5c0 .56.19 1.09.5 1.5zm10-19h-9.5v-1h11v17h-1v-15.5c0-.28-.22-.5-.5-.5zm3.5 17.5c0 .83-.67 1.5-1.5 1.5s-1.5-.67-1.5-1.5v-.5h1.5c.28 0 .5-.22.5-.5v-2.5h1z" fill="#303754"/><path d="m17.5 2v17h-1v-15.5c0-.28-.22-.5-.5-.5h-9.5v-1z" fill="#fff"/><path d="m15.5 20.5v-16.5h-11v16.5c0 .83.67 1.5 1.5 1.5h10c-.31-.41-.5-.94-.5-1.5zm-9-14.31c0-.66.53-1.19 1.19-1.19h4.62c.66 0 1.19.53 1.19 1.19v4.62c0 .66-.53 1.19-1.19 1.19h-4.62c-.66 0-1.19-.53-1.19-1.19zm6.5 13.81h-6c-.28 0-.5-.22-.5-.5s.22-.5.5-.5h6c.28 0 .5.22.5.5s-.22.5-.5.5zm1-2h-8c-.28 0-.5-.22-.5-.5s.22-.5.5-.5h8c.28 0 .5.22.5.5s-.22.5-.5.5zm0-2h-8c-.28 0-.5-.22-.5-.5s.22-.5.5-.5h8c.28 0 .5.22.5.5s-.22.5-.5.5zm0-2h-8c-.28 0-.5-.22-.5-.5s.22-.5.5-.5h8c.28 0 .5.22.5.5s-.22.5-.5.5z" fill="#fff"/><path d="m19.5 17v3.5c0 .83-.67 1.5-1.5 1.5s-1.5-.67-1.5-1.5v-.5h1.5c.28 0 .5-.22.5-.5v-2.5z" fill="#2c98f6"/><path d="m12.31 5h-4.62c-.66 0-1.19.53-1.19 1.19v4.62c0 .66.53 1.19 1.19 1.19h4.62c.66 0 1.19-.53 1.19-1.19v-4.62c0-.66-.53-1.19-1.19-1.19zm.19 5.81c0 .11-.08.19-.19.19h-4.62c-.11 0-.19-.08-.19-.19v-4.62c0-.11.08-.19.19-.19h4.62c.11 0 .19.08.19.19z" fill="#303754"/><path d="m12.31 6h-4.62c-.11 0-.19.08-.19.19v4.62c0 .11.08.19.19.19h4.62c.11 0 .19-.08.19-.19v-4.62c0-.11-.08-.19-.19-.19zm-.86 1.72-1 2c-.01.02-.12.23-.37.27s-.42-.12-.43-.14l-1-1c-.2-.19-.2-.51 0-.7.19-.2.51-.2.7 0l.51.51.69-1.38c.13-.25.43-.35.67-.23.25.13.35.43.23.67z" fill="#2c98f6"/><g fill="#303754"><path d="m14.5 13.5c0 .28-.22.5-.5.5h-8c-.28 0-.5-.22-.5-.5s.22-.5.5-.5h8c.28 0 .5.22.5.5z"/><path d="m14.5 17.5c0 .28-.22.5-.5.5h-8c-.28 0-.5-.22-.5-.5s.22-.5.5-.5h8c.28 0 .5.22.5.5z"/><path d="m14.5 15.5c0 .28-.22.5-.5.5h-8c-.28 0-.5-.22-.5-.5s.22-.5.5-.5h8c.28 0 .5.22.5.5z"/><path d="m13.5 19.5c0 .28-.22.5-.5.5h-6c-.28 0-.5-.22-.5-.5s.22-.5.5-.5h6c.28 0 .5.22.5.5z"/><path d="m11.45 7.72-1 2c-.01.02-.12.23-.37.27s-.42-.12-.43-.14l-1-1c-.2-.19-.2-.51 0-.7.19-.2.51-.2.7 0l.51.51.69-1.38c.13-.25.43-.35.67-.23.25.13.35.43.23.67z"/></g></g></svg>