<svg width="48" height="38" viewBox="0 0 48 38" fill="none" xmlns="http://www.w3.org/2000/svg">
<path d="M46.6499 0.5H-0.186366C-0.391447 0.5 -0.588129 0.581468 -0.733143 0.726482C-0.878157 0.871497 -0.959625 1.06818 -0.959625 1.27326V34.0594C-0.959625 34.2645 -0.878157 34.4612 -0.733143 34.6062C-0.588129 34.7512 -0.391447 34.8327 -0.186366 34.8327H1.36015V36.3792C1.36015 36.5843 1.44162 36.781 1.58663 36.926C1.73165 37.071 1.92833 37.1525 2.13341 37.1525H8.37361C8.57869 37.1525 8.77537 37.071 8.92039 36.926C9.0654 36.781 9.14687 36.5843 9.14687 36.3792V34.8327H37.278V36.3792C37.278 36.5843 37.3595 36.781 37.5045 36.926C37.6495 37.071 37.8462 37.1525 38.0513 37.1525H44.307C44.512 37.1525 44.7087 37.071 44.8537 36.926C44.9987 36.781 45.0802 36.5843 45.0802 36.3792V34.8327H46.6267C46.8318 34.8327 47.0285 34.7512 47.1735 34.6062C47.3185 34.4612 47.4 34.2645 47.4 34.0594V1.28099C47.4021 1.07853 47.3247 0.883321 47.1845 0.737291C47.0442 0.591261 46.8523 0.506063 46.6499 0.5ZM7.61582 35.6292H2.92987V34.8559H7.61582V35.6292ZM43.526 35.6292H38.84V34.8559H43.526V35.6292ZM45.8457 33.3094H0.594625V2.06198H45.8689L45.8457 33.3094Z" fill="#2DB0DC"/>
<path d="M2.15662 28.6003H2.92988V30.1468C2.92988 30.3519 3.01134 30.5486 3.15636 30.6936C3.30137 30.8386 3.49805 30.9201 3.70314 30.9201H42.745C42.9501 30.9201 43.1467 30.8386 43.2918 30.6936C43.4368 30.5486 43.5182 30.3519 43.5182 30.1468V5.18601C43.5182 4.98093 43.4368 4.78425 43.2918 4.63923C43.1467 4.49422 42.9501 4.41275 42.745 4.41275H3.71087C3.50579 4.41275 3.30911 4.49422 3.16409 4.63923C3.01908 4.78425 2.93761 4.98093 2.93761 5.18601V6.73253H2.16435C1.95927 6.73253 1.76259 6.814 1.61757 6.95901C1.47256 7.10402 1.39109 7.3007 1.39109 7.50579V15.3312C1.39109 15.5362 1.47256 15.7329 1.61757 15.8779C1.76259 16.023 1.95927 16.1044 2.16435 16.1044H2.93761V19.1975H2.16435C1.95927 19.1975 1.76259 19.2789 1.61757 19.4239C1.47256 19.569 1.39109 19.7656 1.39109 19.9707V27.8193C1.39007 27.9208 1.40906 28.0216 1.44698 28.1158C1.4849 28.21 1.54101 28.2958 1.61209 28.3684C1.68318 28.4409 1.76786 28.4987 1.86129 28.5385C1.95472 28.5783 2.05507 28.5993 2.15662 28.6003ZM2.92988 8.30998H4.47639V14.5502H2.92988V8.30998ZM4.47639 16.1122H5.24965C5.45473 16.1122 5.65142 16.0307 5.79643 15.8857C5.94144 15.7407 6.02291 15.544 6.02291 15.3389V7.52898C6.02291 7.3239 5.94144 7.12722 5.79643 6.98221C5.65142 6.83719 5.45473 6.75573 5.24965 6.75573H4.47639V5.98247H41.964V29.3813H4.49186V28.608H5.26512C5.4702 28.608 5.66688 28.5266 5.8119 28.3815C5.95691 28.2365 6.03838 28.0398 6.03838 27.8348V20.0171C6.03838 19.812 5.95691 19.6154 5.8119 19.4703C5.66688 19.3253 5.4702 19.2439 5.26512 19.2439H4.49186L4.47639 16.1122ZM2.92988 20.7981H4.47639V27.0383H2.92988V20.7981Z" fill="#21B3DA"/>
<path d="M31.8216 13.2072C32.7057 13.2047 33.5705 13.4645 34.3068 13.9538C35.043 14.4431 35.6175 15.1399 35.9576 15.9559C36.2976 16.7719 36.3879 17.6705 36.2169 18.5378C36.046 19.4051 35.6216 20.2022 34.9974 20.8282C34.3731 21.4542 33.5772 21.8809 32.7104 22.0543C31.8436 22.2277 30.9448 22.1399 30.1278 21.8022C29.3108 21.4645 28.6124 20.892 28.121 20.1571C27.6296 19.4223 27.3673 18.5581 27.3673 17.6741C27.3673 16.4916 27.8362 15.3573 28.6712 14.52C29.5062 13.6826 30.6391 13.2105 31.8216 13.2072Z" stroke="#2DB0DC" stroke-width="2"/>
<path d="M31.8188 27.0383C33.6705 27.0367 35.4802 26.4862 37.0192 25.4564C38.5581 24.4265 39.7571 22.9635 40.4647 21.2523C41.1722 19.5411 41.3566 17.6585 40.9944 15.8425C40.6322 14.0266 39.7397 12.3587 38.4298 11.0499C37.1199 9.74108 35.4514 8.85 33.6351 8.48931C31.8188 8.12861 29.9364 8.31451 28.2258 9.02348C26.5152 9.73246 25.0531 10.9327 24.0245 12.4725C22.9959 14.0122 22.4469 15.8224 22.4469 17.6741C22.4469 18.9045 22.6894 20.1228 23.1605 21.2594C23.6315 22.396 24.322 23.4287 25.1923 24.2983C26.0627 25.168 27.0959 25.8575 28.2329 26.3277C29.3699 26.7978 30.5884 27.0393 31.8188 27.0383ZM31.8188 9.86419C33.3651 9.85653 34.8788 10.3081 36.1683 11.1616C37.4577 12.0151 38.4647 13.2321 39.0617 14.6585C39.6588 16.0849 39.819 17.6564 39.522 19.1739C39.225 20.6914 38.4843 22.0866 37.3936 23.1827C36.3029 24.2788 34.9114 25.0265 33.3954 25.331C31.8794 25.6355 30.3071 25.4831 28.8778 24.8932C27.4484 24.3032 26.2264 23.3022 25.3665 22.0171C24.5066 20.7319 24.0476 19.2204 24.0476 17.6741C24.0475 15.6095 24.8651 13.6288 26.3213 12.1653C27.7776 10.7017 29.7542 9.87441 31.8188 9.86419Z" fill="#21B3DA"/>
</svg>
