<svg width="48" height="48" viewBox="0 0 48 48" fill="none" xmlns="http://www.w3.org/2000/svg">
<path d="M36.3248 5.3048L24.3175 0.0665622C24.2169 0.0226604 24.1083 0 23.9986 0C23.8888 0 23.7802 0.0226604 23.6796 0.0665622L11.6723 5.3048C11.5297 5.36704 11.4084 5.46966 11.3234 5.6C11.2384 5.73034 11.1934 5.8827 11.1939 6.03831V18.6196C11.1886 20.0198 11.517 21.4011 12.1521 22.649C12.7871 23.8969 13.7105 24.9755 14.8455 25.7953L23.1375 31.775C23.3874 31.9577 23.689 32.0562 23.9986 32.0562C24.3081 32.0562 24.6097 31.9577 24.8596 31.775L33.1595 25.7953C34.3003 24.9812 35.2294 23.9055 35.8689 22.6584C36.5084 21.4113 36.8397 20.0291 36.8351 18.6276V6.05426C36.8362 5.89229 36.788 5.73382 36.6969 5.59993C36.6057 5.46605 36.4759 5.3631 36.3248 5.3048ZM35.2405 18.6276C35.2305 19.766 34.9515 20.8859 34.4264 21.896C33.9012 22.9061 33.1448 23.7777 32.2187 24.4399L23.9986 30.3877L15.7784 24.4399C14.8547 23.7746 14.1025 22.8991 13.584 21.8857C13.0655 20.8723 12.7956 19.75 12.7965 18.6117V6.58047L23.9587 1.6771L35.2405 6.58047V18.6276Z" fill="#2DB0DC"/>
<path d="M23.6796 3.55875L14.9093 7.41766C14.7652 7.4787 14.6423 7.5808 14.5558 7.71123C14.4693 7.84167 14.4231 7.99467 14.423 8.15117V18.6276C14.424 19.513 14.6356 20.3855 15.0405 21.1729C15.4453 21.9604 16.0316 22.6402 16.7511 23.1563L23.56 28.0756C23.6966 28.1754 23.8613 28.2292 24.0304 28.2292C24.1996 28.2292 24.3643 28.1754 24.5008 28.0756L31.254 23.1563C31.9852 22.6472 32.5839 21.9704 33.0001 21.1825C33.4162 20.3947 33.6376 19.5186 33.6459 18.6276V8.15117C33.6464 7.99557 33.6014 7.8432 33.5164 7.71286C33.4314 7.58252 33.3101 7.4799 33.1675 7.41766L24.3175 3.55875C24.2169 3.51485 24.1083 3.49219 23.9985 3.49219C23.8888 3.49219 23.7802 3.51485 23.6796 3.55875ZM32.0034 8.67739V18.6276C32.0023 19.2587 31.8514 19.8805 31.5631 20.4419C31.2748 21.0032 30.8573 21.4881 30.3451 21.8567L23.9667 26.4411L17.5883 21.8567C17.076 21.4881 16.6585 21.0032 16.3702 20.4419C16.0819 19.8805 15.931 19.2587 15.9299 18.6276V8.67739L23.9029 5.16929L32.0034 8.67739Z" fill="#2DB0DC"/>
<path d="M6.61739 26.5767L4.88725 22.5264C4.70468 22.1183 4.41901 21.7647 4.05833 21.5005C3.69765 21.2363 3.2744 21.0705 2.83022 21.0195C2.38449 20.9721 1.93412 21.0425 1.52418 21.2238C1.11424 21.4051 0.759098 21.6909 0.494304 22.0526C0.229509 22.4142 0.0643453 22.8391 0.0153413 23.2847C-0.0336627 23.7302 0.0352115 24.1808 0.215072 24.5914L3.34846 31.488C3.77173 32.4274 4.36353 33.2813 5.09455 34.0075L10.0298 38.9427C9.7516 39.2356 9.59487 39.6231 9.59132 40.027V46.4054C9.59132 46.8283 9.75933 47.2339 10.0584 47.533C10.3574 47.832 10.763 48 11.1859 48H19.9562C20.3791 48 20.7847 47.832 21.0838 47.533C21.3828 47.2339 21.5508 46.8283 21.5508 46.4054V40.027C21.5508 39.6041 21.3828 39.1985 21.0838 38.8995C20.7847 38.6005 20.3791 38.4325 19.9562 38.4325V36.9335C19.9829 35.0366 19.3644 33.1868 18.2022 31.6873C17.5236 30.7927 16.5978 30.1164 15.5392 29.7419C13.8677 29.0415 12.3301 28.0569 10.9946 26.8318C10.388 26.327 9.63573 26.0299 8.84796 25.984C8.0602 25.938 7.27846 26.1458 6.61739 26.5767ZM19.9961 46.4293H11.2258V40.051H19.9961V46.4293ZM16.9903 32.6919C17.9235 33.9068 18.418 35.4018 18.3935 36.9335V38.4245H11.7759L6.19482 32.8434C5.61678 32.257 5.14949 31.5709 4.81549 30.8183L1.67413 23.9296C1.60996 23.7836 1.58363 23.6238 1.59757 23.465C1.6115 23.3061 1.66526 23.1533 1.75386 23.0207C1.84043 22.8877 1.95848 22.778 2.09756 22.7016C2.23664 22.6251 2.39245 22.5841 2.55116 22.5822C2.73735 22.5823 2.91932 22.6377 3.07403 22.7413C3.22873 22.8449 3.34921 22.9921 3.42022 23.1642L5.21414 27.3341C5.69076 28.4473 6.37539 29.4594 7.23131 30.316L10.8829 34.0075C10.9811 34.1099 11.1048 34.1844 11.2414 34.2231C11.3779 34.2618 11.5223 34.2633 11.6596 34.2275C11.797 34.1918 11.9223 34.12 12.0226 34.0197C12.1229 33.9193 12.1947 33.794 12.2304 33.6566C12.2707 33.5168 12.272 33.3685 12.234 33.228C12.1961 33.0874 12.1204 32.9599 12.0151 32.8594L8.35551 29.2237C7.97662 28.8453 7.63488 28.4315 7.33496 27.9879C7.70263 27.6935 8.15958 27.5331 8.63058 27.5331C9.10157 27.5331 9.55852 27.6935 9.92619 27.9879C11.4246 29.3611 13.155 30.4571 15.0369 31.2249C15.8196 31.5084 16.4998 32.0192 16.9903 32.6919Z" fill="#2DB0DC"/>
<path d="M17.5962 42.4269H16.7989C16.5875 42.4269 16.3847 42.5109 16.2351 42.6604C16.0856 42.81 16.0016 43.0128 16.0016 43.2242C16.0016 43.4357 16.0856 43.6385 16.2351 43.788C16.3847 43.9375 16.5875 44.0215 16.7989 44.0215H17.5962C17.8077 44.0215 18.0105 43.9375 18.16 43.788C18.3095 43.6385 18.3935 43.4357 18.3935 43.2242C18.3935 43.0128 18.3095 42.81 18.16 42.6604C18.0105 42.5109 17.8077 42.4269 17.5962 42.4269Z" fill="#2DB0DC"/>
<path d="M44.6486 31.4879L47.782 24.5913C47.9176 24.2846 47.9914 23.9541 47.9993 23.6188C48.0072 23.2835 47.9489 22.9499 47.8279 22.6371C47.7068 22.3243 47.5253 22.0384 47.2938 21.7957C47.0623 21.553 46.7852 21.3584 46.4784 21.2228C46.1716 21.0872 45.8411 21.0133 45.5058 21.0055C45.1705 20.9976 44.8369 21.0558 44.5241 21.1769C44.2113 21.2979 43.9254 21.4794 43.6828 21.711C43.4401 21.9425 43.2454 22.2196 43.1098 22.5263L41.3876 26.5607C40.7282 26.1276 39.9474 25.9171 39.1597 25.9602C38.372 26.0032 37.6188 26.2975 37.0105 26.7998C35.6624 28.0362 34.1116 29.0314 32.426 29.7419C31.3662 30.1183 30.4384 30.7941 29.755 31.6873C28.5962 33.1885 27.9781 35.0371 28.001 36.9335V38.4244C27.5781 38.4244 27.1725 38.5924 26.8734 38.8915C26.5744 39.1905 26.4064 39.5961 26.4064 40.019V46.3974C26.4064 46.8203 26.5744 47.2259 26.8734 47.5249C27.1725 47.824 27.5781 47.992 28.001 47.992H36.8351C37.258 47.992 37.6636 47.824 37.9626 47.5249C38.2617 47.2259 38.4297 46.8203 38.4297 46.3974V40.019C38.4283 39.6162 38.2745 39.2288 37.9991 38.9347L42.9105 34.0074C43.6361 33.2785 44.2248 32.4251 44.6486 31.4879ZM36.8351 46.4293H28.0648V40.0509H36.8351V46.4293ZM36.253 38.4563H29.6354V36.9335C29.6109 35.4017 30.1055 33.9068 31.0387 32.6919C31.5263 32.0389 32.1942 31.5428 32.9602 31.2647C34.8405 30.4987 36.5687 29.4024 38.0629 28.0277C38.427 27.7272 38.8821 27.5589 39.3542 27.5502C39.8262 27.5415 40.2872 27.6929 40.6621 27.9798C40.3647 28.4278 40.0228 28.8445 39.6416 29.2236L35.9819 32.8832C35.8329 33.0333 35.7495 33.2366 35.7503 33.4481C35.751 33.6597 35.8358 33.8623 35.9859 34.0114C36.1361 34.1605 36.3393 34.2438 36.5509 34.243C36.7624 34.2423 36.965 34.1575 37.1141 34.0074L40.7737 30.3478C41.6296 29.4912 42.3143 28.4791 42.7909 27.3659L44.5848 23.1961C44.6567 23.0246 44.7774 22.878 44.9319 22.7745C45.0864 22.671 45.2679 22.6152 45.4539 22.614C45.6126 22.6159 45.7684 22.6569 45.9075 22.7334C46.0466 22.8099 46.1646 22.9195 46.2512 23.0526C46.3372 23.1865 46.3882 23.34 46.3993 23.4989C46.4105 23.6577 46.3815 23.8168 46.315 23.9615L43.2135 30.8182C42.8716 31.579 42.3933 32.2708 41.8022 32.8593L36.253 38.4563Z" fill="#2DB0DC"/>
<path d="M31.2061 42.4269H30.4088C30.1974 42.4269 29.9946 42.5109 29.845 42.6604C29.6955 42.81 29.6115 43.0128 29.6115 43.2242C29.6115 43.4357 29.6955 43.6385 29.845 43.788C29.9946 43.9375 30.1974 44.0215 30.4088 44.0215H31.2061C31.4176 44.0215 31.6204 43.9375 31.7699 43.788C31.9194 43.6385 32.0034 43.4357 32.0034 43.2242C32.0034 43.0128 31.9194 42.81 31.7699 42.6604C31.6204 42.5109 31.4176 42.4269 31.2061 42.4269Z" fill="#2DB0DC"/>
<path d="M19.6772 16.9693C19.5069 16.8424 19.2933 16.7883 19.0832 16.819C18.8731 16.8496 18.6838 16.9625 18.557 17.1327C18.4301 17.3029 18.376 17.5166 18.4067 17.7267C18.4373 17.9367 18.5502 18.126 18.7204 18.2529L21.9096 20.6448C22.0476 20.7483 22.2155 20.8043 22.388 20.8043H22.5235C22.6319 20.7858 22.7354 20.7451 22.8273 20.6847C22.9192 20.6243 22.9977 20.5456 23.0577 20.4535L29.4361 10.8859C29.5148 10.7697 29.5613 10.6347 29.5711 10.4947C29.5809 10.3548 29.5536 10.2147 29.4919 10.0886C29.4376 9.96096 29.351 9.8497 29.2405 9.7658C29.13 9.68191 28.9996 9.62828 28.8621 9.61022C28.7222 9.60043 28.5822 9.6277 28.4562 9.68929C28.3302 9.75089 28.2227 9.84462 28.1445 9.96104L22.2046 18.8589L19.6772 16.9693Z" fill="#2DB0DC"/>
</svg>
