<svg width="45" height="46" viewBox="0 0 45 46" fill="none" xmlns="http://www.w3.org/2000/svg">
<path d="M3.1575 40.778H4.6575V42.278C4.65038 42.6739 4.72312 43.0672 4.87136 43.4344C5.01961 43.8016 5.24032 44.1352 5.52033 44.4152C5.80033 44.6952 6.13389 44.9159 6.50108 45.0642C6.86828 45.2124 7.26158 45.2851 7.6575 45.278H32.04C32.8292 45.2781 33.5866 44.9672 34.1482 44.4126C34.7097 43.8581 35.0301 43.1047 35.04 42.3155V33.368C35.04 33.1691 34.961 32.9783 34.8203 32.8377C34.6797 32.697 34.4889 32.618 34.29 32.618C34.0911 32.618 33.9003 32.697 33.7597 32.8377C33.619 32.9783 33.54 33.1691 33.54 33.368V42.2405C33.54 42.6383 33.382 43.0199 33.1007 43.3012C32.8194 43.5825 32.4378 43.7405 32.04 43.7405H7.5975C7.39904 43.7397 7.20272 43.6995 7.0199 43.6222C6.83709 43.545 6.67142 43.4323 6.5325 43.2905C6.3959 43.1528 6.28885 42.9886 6.21792 42.8081C6.14699 42.6275 6.11367 42.4344 6.12 42.2405V40.7405H27.5925C28.3817 40.7406 29.1391 40.4297 29.7007 39.8751C30.2622 39.3206 30.5826 38.5672 30.5925 37.778V35.0405C30.5925 34.8416 30.5135 34.6508 30.3728 34.5102C30.2322 34.3695 30.0414 34.2905 29.8425 34.2905C29.6436 34.2905 29.4528 34.3695 29.3122 34.5102C29.1715 34.6508 29.0925 34.8416 29.0925 35.0405V37.8155C29.0925 38.2133 28.9345 38.5949 28.6532 38.8762C28.3719 39.1575 27.9903 39.3155 27.5925 39.3155H3.1575C2.75968 39.3155 2.37815 39.1575 2.09684 38.8762C1.81554 38.5949 1.6575 38.2133 1.6575 37.8155V3.74302C1.6575 3.34519 1.81554 2.96366 2.09684 2.68236C2.37815 2.40105 2.75968 2.24302 3.1575 2.24302H27.5925C27.9903 2.24302 28.3719 2.40105 28.6532 2.68236C28.9345 2.96366 29.0925 3.34519 29.0925 3.74302V9.66802C29.0925 9.86693 29.1715 10.0577 29.3122 10.1983C29.4528 10.339 29.6436 10.418 29.8425 10.418C30.0414 10.418 30.2322 10.339 30.3728 10.1983C30.5135 10.0577 30.5925 9.86693 30.5925 9.66802V3.74302C30.5826 2.95388 30.2622 2.20042 29.7007 1.6459C29.1391 1.09137 28.3817 0.780456 27.5925 0.780518H3.1575C2.36185 0.780518 1.59879 1.09659 1.03618 1.6592C0.473572 2.22181 0.157501 2.98487 0.157501 3.78052V37.8155C0.167366 38.6047 0.487786 39.3581 1.04933 39.9126C1.61087 40.4672 2.36831 40.7781 3.1575 40.778Z" fill="#2DB0DC"/>
<path d="M3.89252 5.22808C3.6936 5.22808 3.50284 5.3071 3.36219 5.44775C3.22153 5.5884 3.14252 5.77917 3.14252 5.97808V12.6381C3.14252 12.837 3.22153 13.0278 3.36219 13.1684C3.50284 13.3091 3.6936 13.3881 3.89252 13.3881H6.89252C7.09143 13.3881 7.2822 13.3091 7.42285 13.1684C7.5635 13.0278 7.64252 12.837 7.64252 12.6381C7.64252 12.4392 7.5635 12.2484 7.42285 12.1078C7.2822 11.9671 7.09143 11.8881 6.89252 11.8881H4.64252V5.97058C4.64054 5.77297 4.56065 5.58413 4.42021 5.44509C4.27977 5.30606 4.09014 5.22807 3.89252 5.22808ZM14.25 9.30058C14.25 7.05058 12.945 5.22808 11.2875 5.22808C9.63002 5.22808 8.28752 7.02058 8.28752 9.30058C8.28752 11.5806 9.58502 13.3731 11.2875 13.3731C12.99 13.3731 14.25 11.5881 14.25 9.30058ZM9.80252 9.30058C9.80252 7.80058 10.5525 6.70558 11.3025 6.70558C12.0525 6.70558 12.8025 7.77058 12.8025 9.30058C12.8025 10.8306 12.0525 11.8956 11.3025 11.8956C10.5525 11.8956 9.81752 10.8306 9.81752 9.30058H9.80252ZM18.6525 5.73808C18.5891 5.55403 18.4567 5.40184 18.2831 5.31367C18.1096 5.2255 17.9085 5.20825 17.7225 5.26558C17.6126 5.30246 17.5127 5.36432 17.4307 5.4463C17.3488 5.52828 17.2869 5.62816 17.25 5.73808L15 12.3981C14.9653 12.5766 14.9967 12.7617 15.0883 12.9188C15.1799 13.076 15.3255 13.1945 15.4979 13.2523C15.6704 13.3101 15.858 13.3032 16.0258 13.233C16.1936 13.1628 16.3301 13.034 16.41 12.8706L16.7325 11.8956H19.125L19.4475 12.8706C19.5274 13.034 19.664 13.1628 19.8318 13.233C19.9995 13.3032 20.1871 13.3101 20.3596 13.2523C20.5321 13.1945 20.6776 13.076 20.7692 12.9188C20.8608 12.7617 20.8922 12.5766 20.8575 12.3981L18.6525 5.73808ZM17.25 10.4106L17.955 8.31058L18.6525 10.4106H17.25ZM23.88 12.6606V8.82808L26.205 12.9906C26.2892 13.127 26.4149 13.2329 26.5637 13.2927C26.7124 13.3524 26.8765 13.363 27.0316 13.3227C27.1868 13.2824 27.325 13.1935 27.426 13.0689C27.5269 12.9444 27.5853 12.7907 27.5925 12.6306V5.97058C27.5925 5.77167 27.5135 5.5809 27.3728 5.44025C27.2322 5.2996 27.0414 5.22058 26.8425 5.22058C26.6436 5.22058 26.4528 5.2996 26.3122 5.44025C26.1715 5.5809 26.0925 5.77167 26.0925 5.97058V9.77308L23.7975 5.61058C23.7133 5.47414 23.5876 5.36827 23.4389 5.3085C23.2901 5.24873 23.1261 5.2382 22.9709 5.27847C22.8157 5.31873 22.6775 5.40767 22.5766 5.53223C22.4756 5.65679 22.4173 5.81042 22.41 5.97058V12.6306C22.41 12.8295 22.489 13.0203 22.6297 13.1609C22.7703 13.3016 22.9611 13.3806 23.16 13.3806C23.3589 13.3806 23.5497 13.3016 23.6903 13.1609C23.831 13.0203 23.91 12.8295 23.91 12.6306L23.88 12.6606ZM3.89252 18.5556H13.5C13.6989 18.5556 13.8897 18.4766 14.0303 18.3359C14.171 18.1953 14.25 18.0045 14.25 17.8056C14.25 17.6067 14.171 17.4159 14.0303 17.2752C13.8897 17.1346 13.6989 17.0556 13.5 17.0556H3.89252C3.6936 17.0556 3.50284 17.1346 3.36219 17.2752C3.22153 17.4159 3.14252 17.6067 3.14252 17.8056C3.14252 18.0045 3.22153 18.1953 3.36219 18.3359C3.50284 18.4766 3.6936 18.5556 3.89252 18.5556ZM3.89252 22.2606H13.5C13.6989 22.2606 13.8897 22.1816 14.0303 22.0409C14.171 21.9003 14.25 21.7095 14.25 21.5106C14.25 21.3117 14.171 21.1209 14.0303 20.9803C13.8897 20.8396 13.6989 20.7606 13.5 20.7606H3.89252C3.6936 20.7606 3.50284 20.8396 3.36219 20.9803C3.22153 21.1209 3.14252 21.3117 3.14252 21.5106C3.14252 21.7095 3.22153 21.9003 3.36219 22.0409C3.50284 22.1816 3.6936 22.2606 3.89252 22.2606ZM3.89252 25.9656H13.5C13.6989 25.9656 13.8897 25.8866 14.0303 25.7459C14.171 25.6053 14.25 25.4145 14.25 25.2156C14.25 25.0167 14.171 24.8259 14.0303 24.6852C13.8897 24.5446 13.6989 24.4656 13.5 24.4656H3.89252C3.6936 24.4656 3.50284 24.5446 3.36219 24.6852C3.22153 24.8259 3.14252 25.0167 3.14252 25.2156C3.14252 25.4145 3.22153 25.6053 3.36219 25.7459C3.50284 25.8866 3.6936 25.9656 3.89252 25.9656ZM16.5 17.8206C16.5 18.0195 16.579 18.2103 16.7197 18.3509C16.8603 18.4916 17.0511 18.5706 17.25 18.5706H24.165C24.3639 18.5706 24.5547 18.4916 24.6953 18.3509C24.836 18.2103 24.915 18.0195 24.915 17.8206C24.915 17.6217 24.836 17.4309 24.6953 17.2902C24.5547 17.1496 24.3639 17.0706 24.165 17.0706H17.25C17.0511 17.0706 16.8603 17.1496 16.7197 17.2902C16.579 17.4309 16.5 17.6217 16.5 17.8206ZM17.25 22.2606H20.1C20.2989 22.2606 20.4897 22.1816 20.6303 22.0409C20.771 21.9003 20.85 21.7095 20.85 21.5106C20.85 21.3117 20.771 21.1209 20.6303 20.9803C20.4897 20.8396 20.2989 20.7606 20.1 20.7606H17.25C17.0511 20.7606 16.8603 20.8396 16.7197 20.9803C16.579 21.1209 16.5 21.3117 16.5 21.5106C16.5 21.7095 16.579 21.9003 16.7197 22.0409C16.8603 22.1816 17.0511 22.2606 17.25 22.2606ZM17.25 25.9656H20.25C20.4489 25.9656 20.6397 25.8866 20.7803 25.7459C20.921 25.6053 21 25.4145 21 25.2156C21 25.0167 20.921 24.8259 20.7803 24.6852C20.6397 24.5446 20.4489 24.4656 20.25 24.4656H17.25C17.0511 24.4656 16.8603 24.5446 16.7197 24.6852C16.579 24.8259 16.5 25.0167 16.5 25.2156C16.5 25.4145 16.579 25.6053 16.7197 25.7459C16.8603 25.8866 17.0511 25.9656 17.25 25.9656ZM3.89252 29.6706H13.5C13.6989 29.6706 13.8897 29.5916 14.0303 29.4509C14.171 29.3103 14.25 29.1195 14.25 28.9206C14.25 28.7217 14.171 28.5309 14.0303 28.3903C13.8897 28.2496 13.6989 28.1706 13.5 28.1706H3.89252C3.6936 28.1706 3.50284 28.2496 3.36219 28.3903C3.22153 28.5309 3.14252 28.7217 3.14252 28.9206C3.14252 29.1195 3.22153 29.3103 3.36219 29.4509C3.50284 29.5916 3.6936 29.6706 3.89252 29.6706ZM22.3125 28.9206C22.3125 28.7217 22.2335 28.5309 22.0928 28.3903C21.9522 28.2496 21.7614 28.1706 21.5625 28.1706H17.25C17.0511 28.1706 16.8603 28.2496 16.7197 28.3903C16.579 28.5309 16.5 28.7217 16.5 28.9206C16.5 29.1195 16.579 29.3103 16.7197 29.4509C16.8603 29.5916 17.0511 29.6706 17.25 29.6706H21.5925C21.7914 29.6706 21.9822 29.5916 22.1228 29.4509C22.2635 29.3103 22.3425 29.1195 22.3425 28.9206H22.3125ZM4.63502 35.5881H6.96002C7.2905 35.5899 7.61483 35.4987 7.89598 35.325C8.17713 35.1512 8.40376 34.9019 8.55002 34.6056C8.57424 34.5505 8.61618 34.5051 8.66918 34.4765C8.72217 34.448 8.78318 34.438 8.84252 34.4481C8.90322 34.4495 8.96177 34.4709 9.00918 34.5088C9.0566 34.5467 9.09026 34.5992 9.10502 34.6581L9.23252 35.1156C9.32673 35.4418 9.51202 35.7343 9.76665 35.959C10.0213 36.1836 10.3347 36.3309 10.6701 36.3836C11.0055 36.4364 11.349 36.3924 11.6603 36.2568C11.9716 36.1212 12.2377 35.8996 12.4275 35.6181L13.275 34.3356C13.3192 34.2705 13.3872 34.2254 13.4644 34.2099C13.5415 34.1945 13.6217 34.21 13.6875 34.2531C13.7204 34.2746 13.7485 34.3027 13.77 34.3356L14.085 34.8006C14.2483 35.0478 14.4714 35.2496 14.7337 35.3873C14.996 35.525 15.2888 35.5941 15.585 35.5881H18C18.1989 35.5881 18.3897 35.5091 18.5303 35.3684C18.671 35.2278 18.75 35.037 18.75 34.8381C18.75 34.6392 18.671 34.4484 18.5303 34.3078C18.3897 34.1671 18.1989 34.0881 18 34.0881H15.5625C15.5132 34.0883 15.4647 34.076 15.4214 34.0524C15.3782 34.0288 15.3416 33.9946 15.315 33.9531L15 33.5181C14.8707 33.3233 14.7042 33.156 14.5101 33.0257C14.316 32.8954 14.0982 32.8047 13.869 32.7587C13.6397 32.7127 13.4037 32.7124 13.1744 32.7578C12.9451 32.8031 12.727 32.8933 12.5325 33.0231C12.3356 33.1527 12.1671 33.3211 12.0375 33.5181L11.1825 34.7931C11.1395 34.8594 11.072 34.9061 10.9948 34.9229C10.9175 34.9398 10.8368 34.9255 10.77 34.8831C10.711 34.8415 10.6685 34.7804 10.65 34.7106L10.5 34.2531C10.4019 33.9084 10.2019 33.6013 9.92628 33.3723C9.65061 33.1433 9.31214 33.0029 8.95528 32.9697C8.59843 32.9364 8.23985 33.0118 7.92661 33.186C7.61337 33.3601 7.3601 33.6249 7.20002 33.9456C7.17765 33.9961 7.14072 34.0388 7.09396 34.0682C7.0472 34.0976 6.99272 34.1123 6.93752 34.1106H4.61252C4.4136 34.1106 4.22284 34.1896 4.08219 34.3302C3.94153 34.4709 3.86252 34.6617 3.86252 34.8606C3.86252 35.0595 3.94153 35.2503 4.08219 35.3909C4.22284 35.5316 4.4136 35.6106 4.61252 35.6106L4.63502 35.5881Z" fill="#2DB0DC"/>
<path d="M20.9325 35.5881H25.0275C25.3453 35.5895 25.6514 35.4687 25.8825 35.2506C27.57 33.6981 31.035 31.0731 35.25 30.9906C35.5735 30.9891 35.8842 30.864 36.1184 30.6409C36.3527 30.4178 36.4928 30.1136 36.51 29.7906C36.51 29.5131 36.8625 23.0406 38.76 19.5831L44.55 8.70806C44.6164 8.62173 44.6632 8.52199 44.6871 8.41576C44.711 8.30953 44.7116 8.19936 44.6886 8.09291C44.6657 7.98646 44.6199 7.88628 44.5543 7.79933C44.4887 7.71238 44.405 7.64075 44.309 7.58942C44.2129 7.53809 44.1069 7.50829 43.9982 7.50209C43.8894 7.49589 43.7807 7.51343 43.6794 7.55351C43.5782 7.59359 43.4869 7.65523 43.4118 7.73416C43.3368 7.81309 43.2799 7.9074 43.245 8.01056L37.7925 18.2406L34.98 16.7406L31.23 14.7606L38.1075 1.87556C38.2079 1.70696 38.2382 1.50573 38.1919 1.31505C38.1456 1.12437 38.0265 0.959407 37.86 0.855558C37.6914 0.755185 37.4902 0.724883 37.2995 0.771152C37.1088 0.817421 36.9438 0.936575 36.84 1.10306C36.8427 1.12799 36.8427 1.15313 36.84 1.17806L29.64 14.6781C27.7725 18.1731 22.62 22.0431 22.4025 22.1781C22.1434 22.3727 21.9688 22.6592 21.9144 22.9786C21.86 23.298 21.93 23.6261 22.11 23.8956C24.48 27.5931 24.075 32.2281 23.79 34.0581H20.9325C20.7336 34.0581 20.5428 34.1371 20.4022 34.2777C20.2615 34.4184 20.1825 34.6091 20.1825 34.8081C20.1825 35.007 20.2615 35.1977 20.4022 35.3384C20.5428 35.479 20.7336 35.5581 20.9325 35.5581V35.5881ZM23.4075 23.2956C24.2925 22.6206 28.4925 19.3131 30.5325 16.0431L34.8525 18.3381L37.1025 19.5456C35.52 23.0706 35.115 28.4031 35.0475 29.5131C32.0231 29.7096 29.1253 30.8008 26.7225 32.6481L29.115 28.1031C29.824 28.2807 30.5735 28.1934 31.2227 27.8575C31.8719 27.5217 32.3761 26.9604 32.6407 26.279C32.9053 25.5977 32.912 24.8432 32.6597 24.1572C32.4073 23.4712 31.9132 22.901 31.2701 22.5536C30.627 22.2061 29.8792 22.1055 29.1671 22.2704C28.4551 22.4354 27.8277 22.8546 27.4029 23.4494C26.9781 24.0442 26.785 24.7736 26.86 25.5007C26.9349 26.2278 27.2728 26.9025 27.81 27.3981L25.4325 31.8981C25.6175 28.8939 24.9132 25.9018 23.4075 23.2956ZM29.1225 26.5281C28.9162 26.4583 28.7276 26.3444 28.5697 26.1944C28.4118 26.0443 28.2886 25.8617 28.2084 25.6592C28.1283 25.4567 28.0932 25.2392 28.1056 25.0217C28.118 24.8043 28.1776 24.5922 28.2802 24.4001C28.3829 24.208 28.5261 24.0406 28.7 23.9095C28.8739 23.7783 29.0743 23.6867 29.2872 23.6408C29.5001 23.5949 29.7204 23.596 29.9329 23.6438C30.1454 23.6917 30.3448 23.7853 30.5175 23.9181C30.7222 23.9895 30.9091 24.1045 31.0651 24.2551C31.2211 24.4058 31.3426 24.5884 31.4212 24.7905C31.4998 24.9926 31.5337 25.2094 31.5205 25.4258C31.5072 25.6423 31.4472 25.8533 31.3446 26.0443C31.2419 26.2353 31.0991 26.4018 30.9259 26.5323C30.7527 26.6628 30.5532 26.7542 30.3413 26.8002C30.1294 26.8462 29.91 26.8456 29.6983 26.7987C29.4866 26.7517 29.2876 26.6594 29.115 26.5281H29.1225Z" fill="#2DB0DC"/>
</svg>
