<svg xmlns="http://www.w3.org/2000/svg" version="1.1" xmlns:xlink="http://www.w3.org/1999/xlink" width="512" height="512" x="0" y="0" viewBox="0 0 512 512" style="enable-background:new 0 0 512 512" xml:space="preserve" class=""><g><path d="M369.139 93.859h-13.138v12.312c0 24.813-20.187 45-45 45H114.109c-24.813 0-45-20.187-45-45V93.859H55.972c-8.284 0-15 6.716-15 15V497c0 8.284 6.716 15 15 15h210.265c-34.971-26.735-57.576-68.866-57.576-116.184 0-80.606 65.578-146.184 146.184-146.184 10.03 0 19.827 1.017 29.294 2.95V108.859c0-8.285-6.716-15-15-15zM101.841 196.606c8.168-10.007 16.272-17.724 16.613-18.047 5.787-5.493 14.863-5.493 20.65 0 8.284 7.861 35.312 35.195 35.312 56.875 0 25.164-20.473 45.637-45.637 45.637s-45.637-20.473-45.637-45.637c.001-10.712 6.117-23.413 18.699-38.828zm59.615 264.465h-64.41c-8.284 0-15-6.716-15-15s6.716-15 15-15h64.41c8.284 0 15 6.716 15 15s-6.716 15-15 15zm0-60h-64.41c-8.284 0-15-6.716-15-15s6.716-15 15-15h64.41c8.284 0 15 6.716 15 15s-6.716 15-15 15zm0-60h-64.41c-8.284 0-15-6.716-15-15s6.716-15 15-15h64.41c8.284 0 15 6.716 15 15s-6.716 15-15 15zm175.371-124.637h-84.411c-8.284 0-15-6.716-15-15s6.716-15 15-15h84.411c8.284 0 15 6.716 15 15s-6.716 15-15 15z" fill="#ffffff" opacity="1" data-original="#000000" class=""></path><path d="M128.779 251.071c8.618 0 15.63-7.008 15.637-15.624-.158-4.057-6.903-14.226-15.637-24.281-8.736 10.059-15.485 20.234-15.637 24.287.001 8.604 7.015 15.618 15.637 15.618zM255.293 58.649a44.965 44.965 0 0 0 2.002-17.504C255.443 18.591 236.666.757 214.048.024c-25.475-.826-46.386 19.58-46.386 44.869 0 4.799.761 9.419 2.156 13.755H114.11c-8.284 0-15 6.716-15 15v32.522c0 8.284 6.716 15 15 15h196.891c8.284 0 15-6.716 15-15V73.649c0-8.284-6.716-15-15-15zM354.845 279.632c-64.064 0-116.184 52.12-116.184 116.184S290.78 512 354.845 512c64.064 0 116.184-52.12 116.184-116.184-.001-64.064-52.12-116.184-116.184-116.184zm38.972 96.388-37.816 57.841c-.012.019-.033.031-.046.049a14.924 14.924 0 0 1-3.797 3.954c-6.66 4.751-16.177 3.152-20.922-3.501l-24.278-34.034c-4.812-6.744-3.244-16.111 3.5-20.922 6.744-4.812 16.112-3.244 20.922 3.5l11.528 16.16 25.801-39.464c4.534-6.934 13.829-8.88 20.763-4.347 6.932 4.535 8.879 13.831 4.345 20.764z" fill="#ffffff" opacity="1" data-original="#000000" class=""></path></g></svg>