<svg width="48" height="44" viewBox="0 0 48 44" fill="none" xmlns="http://www.w3.org/2000/svg">
<path d="M47.5002 25.6468C46.4691 23.8734 44.1793 23.264 42.3959 24.2882L31.2963 30.6548C31.3332 30.5562 31.3659 30.4548 31.3941 30.3508C31.8754 28.5648 30.8053 26.7219 29.0084 26.2424L18.0176 23.3142C17.025 22.9976 15.8095 23.1232 14.914 23.6367L7.29435 28.0079L6.67301 26.9384C6.05757 25.8824 4.692 25.5189 3.62892 26.1288L1.11356 27.5737C0.0496143 28.1842 -0.316164 29.5414 0.298014 30.5993L7.43805 42.892C7.73531 43.4041 8.21673 43.7704 8.79356 43.9236C8.98602 43.9748 9.1812 44 9.37483 44C9.76093 44 10.1412 43.8995 10.4825 43.7029L12.9997 42.2585C13.5136 41.9646 13.8817 41.4871 14.0362 40.9141C14.1903 40.3422 14.1124 39.7461 13.8164 39.2348L13.1953 38.1656L14.2545 37.5578C14.747 37.2748 14.9393 37.2809 15.6816 37.4455L26.6432 40.3638C27.0354 40.4684 27.434 40.5201 27.8308 40.5201C28.6277 40.5201 29.4171 40.3113 30.1306 39.9026L46.1302 30.7206C46.9926 30.2263 47.6105 29.4249 47.8699 28.4643C48.1293 27.5037 47.998 26.503 47.5004 25.6469L47.5002 25.6468ZM12.539 40.5155C12.492 40.6903 12.381 40.8351 12.2257 40.924L9.70655 42.3695C9.55143 42.4589 9.36932 42.4821 9.19359 42.4355C9.01718 42.3886 8.87039 42.2774 8.7803 42.122L1.64017 29.8293C1.45302 29.5069 1.5644 29.0933 1.88847 28.9074L4.40383 27.4625C4.51017 27.4015 4.62649 27.3725 4.74145 27.3725C4.9764 27.3725 5.20544 27.4935 5.33134 27.7093L12.4736 40.0038C12.563 40.1584 12.5862 40.3402 12.539 40.5155ZM46.3729 28.0649C46.2209 28.6281 45.8597 29.0973 45.3555 29.3863L29.3562 38.5681C28.6463 38.9746 27.8252 39.0841 27.0443 38.8758L16.0668 35.9532C16.0565 35.9505 16.0459 35.9479 16.0355 35.9455C15.1333 35.7451 14.468 35.656 13.4792 36.2238L12.4202 36.8314L8.06926 29.3416L15.6885 24.9706C16.2092 24.6719 16.9769 24.5952 17.5553 24.7843C17.569 24.7887 17.5828 24.7928 17.5967 24.7965L28.6068 27.7299C29.5786 27.9892 30.1573 28.986 29.8973 29.951C29.6408 30.898 28.6774 31.4384 27.7036 31.1817C27.7022 31.1813 27.7008 31.1811 27.6994 31.1808L19.4247 29.0033C19.0108 28.8943 18.5868 29.1396 18.4773 29.5506C18.3678 29.9618 18.6143 30.3834 19.028 30.4923L27.3365 32.6787C27.3374 32.6789 27.3382 32.679 27.3391 32.6792L28.6263 33.0196C29.6023 33.2757 30.1556 33.0885 31.4305 32.3559L43.1707 25.6218C44.2148 25.0225 45.5548 25.3792 46.1581 26.4172C46.4485 26.9167 46.5247 27.5018 46.3727 28.0647L46.3729 28.0649ZM7.7807 12.7536L9.09053 13.0499C9.20733 13.3938 9.34755 13.7299 9.51002 14.0556L8.7952 15.1846C8.3343 15.9099 8.37649 16.7164 8.90242 17.2392L10.0353 18.3651C10.5612 18.8878 11.3724 18.9298 12.1009 18.4727L13.2407 17.7611C13.5684 17.9226 13.9067 18.0621 14.2527 18.1782L14.5504 19.48C14.7385 20.3161 15.3412 20.8563 16.0856 20.8563H17.6902C18.4422 20.8563 19.0311 20.3308 19.2276 19.4826L19.526 18.1783C19.6845 18.1251 19.8406 18.0651 19.9957 18.0022V21.9018C19.9957 22.9233 20.833 23.7543 21.8623 23.7543H31.5588C32.588 23.7543 33.4253 22.9233 33.4253 21.9018V20.8458C33.5265 20.8524 33.6291 20.8563 33.7339 20.8563H42.7228C44.2476 20.8563 45.3734 20.1614 45.9786 18.8467C46.8598 16.9325 46.3394 14.3064 45.9509 12.9115C45.4376 11.0686 44.5804 9.25936 43.594 7.89893C43.8818 7.53288 44.0518 7.00766 44.0518 6.40289C44.0518 5.83824 43.8935 5.10585 43.4569 4.68998C44.4063 3.20125 44.8596 1.39812 44.1382 0.507809C43.8193 0.114156 43.0518 -0.408375 41.4965 0.515792L40.6783 1.00264C40.5837 1.05852 40.5186 1.09026 40.4769 1.10815C40.4751 1.10709 40.4733 1.10613 40.4716 1.10517L39.2846 0.441254C38.8893 0.222355 38.5518 0.125409 38.2264 0.140316C37.9031 0.126563 37.5576 0.225817 37.1695 0.442697L35.9865 1.10411C35.9841 1.10545 35.9816 1.1068 35.9791 1.10824C35.9379 1.09055 35.8736 1.0591 35.7804 1.00379L34.9596 0.515311C33.4014 -0.409337 32.6339 0.115214 32.3149 0.510021C31.5922 1.40514 32.0503 3.21231 33.006 4.70296C32.997 4.71133 32.9876 4.71883 32.9788 4.72749C32.6124 5.08883 32.4022 5.69945 32.4022 6.4028C32.4022 6.95716 32.5417 7.44151 32.7808 7.79881C32.3886 8.33461 32.0172 8.94418 31.6777 9.61002L28.1953 6.10907C27.7979 5.70994 27.2705 5.49008 26.7104 5.49017C26.1503 5.49017 25.623 5.71003 25.2254 6.10936L24.3525 6.98698C24.3237 6.92504 24.2958 6.86252 24.2654 6.80136L24.9807 5.67166C25.4416 4.94639 25.3995 4.13994 24.8735 3.61712L23.7406 2.49117C23.2147 1.96836 22.4033 1.92662 21.6745 2.38394L20.5357 3.09623C20.207 2.93532 19.8695 2.79615 19.5261 2.67978L19.2273 1.37542C19.032 0.527045 18.443 8.96878e-05 17.6901 8.96878e-05H16.0855C15.3402 8.96878e-05 14.7375 0.54176 14.5509 1.37629L14.2525 2.67968C13.9071 2.79644 13.5693 2.93561 13.2419 3.09613L12.1023 2.38461C11.3725 1.92652 10.5611 1.96855 10.0353 2.49117L8.90242 3.61712C8.3763 4.13994 8.3343 4.94639 8.79414 5.67012L9.51011 6.80299C9.34754 7.12884 9.20733 7.46507 9.09044 7.8091L7.78447 8.10456C6.94096 8.29095 6.39597 8.88994 6.39597 9.6307V11.2256C6.39597 11.9739 6.92625 12.5593 7.7807 12.7536ZM27.838 22.2139H25.5833V18.8838C25.5833 18.2667 26.0895 17.7647 26.712 17.7647C27.3344 17.7647 27.838 18.2667 27.838 18.8838V22.2139ZM34.0569 6.92119C34.0164 6.84771 33.9522 6.67796 33.9522 6.40289C33.9522 6.21727 33.9785 6.07503 34.0076 5.97635C36.7206 6.52562 39.4891 6.5235 42.4468 5.97C42.4767 6.07782 42.5021 6.22583 42.5021 6.40289C42.5021 6.68729 42.433 6.85695 42.3926 6.92504C39.8285 7.49556 37.0267 7.4946 34.0568 6.92119H34.0569ZM33.5067 1.54912C33.613 1.56912 33.8211 1.63366 34.1644 1.83746L34.9852 2.32585C35.786 2.80125 36.2543 2.72373 36.7502 2.44443L37.9294 1.78514C38.0702 1.70647 38.1449 1.6854 38.168 1.68031L38.2264 1.68627L38.2873 1.68011C38.3095 1.68483 38.3827 1.70493 38.5274 1.78504L39.6678 2.4226L39.7022 2.44212C40.197 2.72335 40.6654 2.80231 41.4723 2.32527L42.2921 1.83756C42.6341 1.63433 42.8418 1.56941 42.9481 1.54912C43.0232 1.99692 42.6488 3.38255 41.647 4.54485C39.2657 4.9384 37.0175 4.9436 34.8213 4.56033C33.8083 3.3937 33.43 1.99856 33.5066 1.54912H33.5067ZM34.1804 8.51004C35.6189 8.76462 37.0233 8.89273 38.3857 8.89273C39.6797 8.89273 40.9354 8.77645 42.1469 8.54697C44.1186 11.0867 45.6182 15.9273 44.5693 18.206C44.2206 18.9633 43.6339 19.316 42.7228 19.316H33.7339C33.626 19.316 33.5242 19.3093 33.4253 19.2994V16.3744C34.275 16.3676 35.0051 15.881 35.3333 15.1008C35.664 14.3145 35.4949 13.4487 34.8913 12.8408L32.8331 10.7717C33.2361 9.90595 33.6941 9.13721 34.1803 8.51014L34.1804 8.51004ZM26.3274 7.1927C26.4314 7.08825 26.5675 7.03064 26.7105 7.03064C26.8535 7.03064 26.9898 7.08825 27.0936 7.19251L33.7887 13.9232C34.017 14.1531 33.9451 14.4078 33.9036 14.5065C33.862 14.605 33.7309 14.834 33.4077 14.834H32.6506C32.2226 14.834 31.8757 15.1788 31.8757 15.6042V21.9018C31.8757 22.071 31.7307 22.214 31.559 22.214H29.3878V18.8839C29.3878 17.4174 28.1875 16.2244 26.712 16.2244C25.2365 16.2244 24.0335 17.4174 24.0335 18.8839V22.214H21.8624C21.6907 22.214 21.5456 22.0711 21.5456 21.9018V15.6042C21.5456 15.1788 21.1987 14.834 20.7707 14.834H20.0137C19.6905 14.834 19.5593 14.605 19.5178 14.5065C19.5033 14.472 19.4853 14.4182 19.4775 14.3534C19.4774 14.3524 19.4773 14.3516 19.4771 14.3507C19.4631 14.2303 19.485 14.0719 19.6321 13.9237L21.8083 11.7359C21.8088 11.7353 21.8094 11.7349 21.8099 11.7343L26.3276 7.1927H26.3274ZM16.8894 14.0624C14.8723 14.0624 13.2315 12.4328 13.2315 10.4296C13.2315 8.42646 14.8723 6.79414 16.8894 6.79414C18.9064 6.79414 20.5443 8.42502 20.5443 10.4296C20.5443 10.5641 20.5354 10.7017 20.5196 10.8405L18.5294 12.8413C18.2279 13.1449 18.0349 13.513 17.9585 13.9035C17.6139 14.0083 17.2562 14.0624 16.8894 14.0624ZM7.94578 9.67417C7.97578 9.65532 8.03345 9.62771 8.12461 9.60761L9.87192 9.21233C10.1506 9.14933 10.3717 8.93889 10.4473 8.66488C10.5925 8.13793 10.8048 7.62896 11.0781 7.1524C11.2196 6.90571 11.2131 6.60179 11.0611 6.36134L10.1055 4.84944C10.0563 4.77192 10.0353 4.71181 10.0275 4.67738L11.1018 3.60972C11.1365 3.61751 11.1973 3.63847 11.2765 3.6882L12.7961 4.63689C13.0371 4.78741 13.3417 4.79443 13.5894 4.65535C14.071 4.385 14.5849 4.17322 15.1168 4.02607C15.391 3.95009 15.6013 3.7309 15.6645 3.45506L16.0631 1.71454C16.0826 1.62683 16.1102 1.57028 16.1292 1.54066H17.6481C17.6674 1.57066 17.6957 1.62847 17.7164 1.71839L18.1141 3.45506C18.1773 3.7309 18.3876 3.95009 18.6618 4.02607C19.1887 4.17197 19.7032 4.38394 20.1909 4.65622C20.4386 4.79452 20.7424 4.78702 20.9833 4.6366L22.501 3.68723C22.579 3.63828 22.6396 3.61741 22.6742 3.60972L23.7484 4.67738C23.7406 4.71181 23.7195 4.77221 23.6698 4.8504L22.7153 6.35798C22.5633 6.59804 22.5563 6.90167 22.6972 7.14836C22.8839 7.47517 23.0423 7.81901 23.1714 8.17448L21.9837 9.36852C21.49 7.02179 19.3936 5.25377 16.8894 5.25377C14.0178 5.25377 11.6818 7.57568 11.6818 10.4295C11.6818 13.2834 14.0179 15.6027 16.8894 15.6027C17.3567 15.6027 17.8143 15.542 18.2573 15.4221C18.6112 15.9782 19.1983 16.3262 19.8727 16.3689C19.4857 16.5614 19.0811 16.7164 18.665 16.8297C18.3892 16.9048 18.1775 17.1246 18.1142 17.4017L17.717 19.139C17.6962 19.2287 17.6678 19.2861 17.6487 19.3158H16.1289C16.11 19.2864 16.0824 19.2299 16.0623 19.1411L15.6646 17.4017C15.6013 17.1246 15.3895 16.9048 15.1138 16.8297C14.5836 16.6853 14.0716 16.4744 13.5921 16.2027C13.344 16.0622 13.0382 16.0686 12.7961 16.2196L11.2748 17.1694C11.197 17.2182 11.1364 17.2392 11.1018 17.2468L10.0276 16.1791C10.0354 16.1447 10.0565 16.0843 10.1062 16.0061L11.0607 14.4984C11.2129 14.258 11.2197 13.9537 11.0781 13.7069C10.8049 13.2303 10.5925 12.7214 10.4473 12.1944C10.3717 11.9204 10.1506 11.71 9.87192 11.647L8.12548 11.2519C8.03442 11.2312 7.97607 11.2029 7.94588 11.1838V9.67407L7.94578 9.67417ZM35.864 12.7279C35.864 11.8532 36.519 11.1294 37.4522 10.8684V10.6287C37.4522 10.2033 37.7991 9.85854 38.2271 9.85854C38.6551 9.85854 39.002 10.2033 39.002 10.6287V10.8725C39.6719 11.0644 40.2181 11.4984 40.4589 12.071C40.624 12.4634 40.4377 12.9146 40.0429 13.0786C39.6486 13.2426 39.1942 13.0577 39.0291 12.6652C38.966 12.5152 38.6755 12.304 38.2271 12.304C37.7381 12.304 37.4138 12.5592 37.4138 12.728C37.4138 12.9113 37.4138 12.995 38.3647 13.1656C39.1424 13.3051 40.5901 13.5648 40.5901 15.119C40.5901 15.9937 39.9351 16.7174 39.002 16.9785V17.2182C39.002 17.6436 38.6551 17.9884 38.2271 17.9884C37.7991 17.9884 37.4522 17.6436 37.4522 17.2182V16.9768C36.8622 16.8102 36.3709 16.4554 36.0919 15.9695C35.8799 15.6001 36.0093 15.1297 36.3811 14.919C36.7531 14.7083 37.226 14.8369 37.4382 15.2064C37.5342 15.3736 37.836 15.543 38.227 15.543C38.716 15.543 39.0402 15.2878 39.0402 15.119C39.0402 14.9357 39.0402 14.8522 38.0893 14.6815C37.3116 14.542 35.8639 14.2823 35.8639 12.7281L35.864 12.7279ZM23.8826 13.1614C23.8826 12.736 24.2295 12.3912 24.6575 12.3912H28.7885C29.2165 12.3912 29.5634 12.736 29.5634 13.1614C29.5634 13.5868 29.2165 13.9315 28.7885 13.9315H24.6575C24.2295 13.9315 23.8826 13.5868 23.8826 13.1614Z" fill="white"/>
</svg>
