<svg width="48" height="48" viewBox="0 0 48 48" fill="none" xmlns="http://www.w3.org/2000/svg">
<path d="M26.3226 31.0109C26.3226 31.4371 25.9757 31.783 25.5484 31.783C25.121 31.783 24.7742 31.4371 24.7742 31.0109C24.7742 30.5847 25.121 30.2388 25.5484 30.2388C25.9757 30.2388 26.3226 30.5847 26.3226 31.0109ZM44.129 12.4822H48V13.2543C48 17.0856 44.8746 20.2035 41.0323 20.2035H38.7097V21.7477H45.6774C46.5314 21.7477 47.2258 22.4403 47.2258 23.292V24.8362C47.2258 25.5883 46.6831 26.2145 45.9685 26.3511L46.4129 26.7943C47.4356 27.8143 48 29.1717 48 30.6156V41.0509C48 43.1796 46.2635 44.9115 44.129 44.9115H31.7419C30.079 44.9115 28.6599 43.8776 28.1179 42.3689C27.0782 42.6098 26.3226 43.5232 26.3226 44.6165V46.4542C26.3226 47.3059 25.6281 47.9985 24.7742 47.9985H21.6774C20.8235 47.9985 20.129 47.3059 20.129 46.4542V44.91C20.129 44.4845 19.7822 44.1378 19.3548 44.1378H13.1613C12.7339 44.1378 12.3871 44.4845 12.3871 44.91V46.4557C12.3871 47.3074 11.6926 48 10.8387 48H7.74194C7.32697 48 6.93755 47.8394 6.6449 47.546C6.35303 47.2541 6.19355 46.8665 6.1951 46.455V44.8011C6.19432 43.9973 5.98297 43.2043 5.58348 42.5071L4.64516 40.8694V42.5951C4.64516 43.8722 3.6031 44.9115 2.32258 44.9115C1.04206 44.9115 0 43.8722 0 42.5951C0 41.318 1.04206 40.2787 2.32258 40.2787V41.823C1.89523 41.823 1.54839 42.1697 1.54839 42.5951C1.54839 43.0206 1.89523 43.3672 2.32258 43.3672C2.74994 43.3672 3.09677 43.0206 3.09677 42.5951V35.6939C3.09677 33.1906 4.11948 30.8279 5.87071 29.0929C5.74529 29.0528 5.61832 29.0173 5.49368 28.9709L0 26.9156V17.8871H3.49006C3.67974 17.8871 3.86865 17.8639 4.0529 17.8176L12.1951 15.7884C12.7719 15.644 13.3688 15.5707 13.9649 15.5707C16.6157 15.5707 19.0622 17.0061 20.3489 19.3171L20.6261 19.8158C21.425 20.3864 22.0815 21.1393 22.5352 22.0156C24.4289 22.6225 25.8426 24.2201 26.1739 26.1998L26.2111 26.4222C27.1897 26.548 28.0839 26.9611 28.8255 27.5595C29.0129 27.2869 29.2219 27.0298 29.4581 26.7943L29.9017 26.3519C29.1879 26.2145 28.6452 25.5883 28.6452 24.8362V23.292C28.6452 22.4403 29.3396 21.7477 30.1935 21.7477H30.4692C28.8867 20.4729 27.871 18.5249 27.871 16.3428V15.5707H31.7419C33.9298 15.5707 35.8831 16.5837 37.1613 18.162V13.6257L36.079 12.7617C34.3061 11.3472 33.2903 9.23849 33.2903 6.97539C33.2903 4.38722 34.6723 1.95271 36.8973 0.621562L37.9355 0L38.9737 0.62079C41.1987 1.95271 42.5806 4.38722 42.5806 6.97539C42.5806 9.23849 41.5641 11.3479 39.792 12.7625L38.7097 13.6257V15.0735C39.9879 13.4952 41.9412 12.4822 44.129 12.4822ZM37.0467 11.5564L37.9355 12.2652L38.8243 11.5564C40.2279 10.4368 41.0323 8.76672 41.0323 6.97539C41.0323 4.92694 39.9383 2.99971 38.177 1.94499L37.9355 1.8006L37.6939 1.94499C35.9326 2.99894 34.8387 4.92694 34.8387 6.97539C34.8387 8.76672 35.6431 10.4368 37.0467 11.5564ZM34.8387 21.7477H37.1063C36.7301 19.1317 34.4679 17.115 31.7419 17.115H29.4743C29.8514 19.7309 32.1128 21.7477 34.8387 21.7477ZM17.0323 20.2035C15.6054 20.2035 14.3071 20.8652 13.4439 21.9168C13.7505 21.8141 14.0663 21.7477 14.3915 21.7477H14.8126C16.464 21.7477 17.8065 23.0866 17.8065 24.7335C17.8065 26.0624 16.9494 27.2113 15.6728 27.5935L13.7961 28.1548C14.6539 28.9887 15.8036 29.469 17.0323 29.469C19.5941 29.469 21.6774 27.3912 21.6774 24.8362C21.6774 22.2812 19.5941 20.2035 17.0323 20.2035ZM11.6129 31.0132V32.5575H19.3548V31.0132H11.6129ZM6.03794 27.524C7.32387 28.005 8.74839 28.0529 10.063 27.6591L15.2284 26.1141C15.8446 25.9303 16.2581 25.3752 16.2581 24.7335C16.2581 23.9382 15.6093 23.292 14.8126 23.292H14.3915C14.1948 23.292 14.0028 23.3313 13.8217 23.4086L8.49135 25.6871L6.62168 24.7544L7.31458 23.373L8.54168 23.9846L11.1662 22.8627C12.007 20.3702 14.3644 18.6592 17.0323 18.6592C17.3489 18.6592 17.6578 18.6909 17.9621 18.7364C16.9037 17.7157 15.4792 17.115 13.9649 17.115C13.495 17.115 13.025 17.1729 12.5698 17.2864L4.42839 19.3163C4.12258 19.3927 3.80671 19.4313 3.49006 19.4313H1.54839V25.8454L6.03794 27.524ZM28.2596 40.7744L30.0317 40.5976C31.4477 40.4563 32.5161 39.2804 32.5161 37.8604V34.5333C32.5161 34.1789 32.2746 33.8701 31.9293 33.7844L31.5615 33.6925C30.3089 33.3806 29.3822 32.3552 29.1995 31.0812C28.9424 29.2806 27.3724 27.9224 25.5476 27.9224H24.8911L24.6465 26.4523C24.4815 25.4686 23.9381 24.6192 23.1685 24.0463C23.2026 24.3058 23.2258 24.5683 23.2258 24.8362C23.2258 26.782 22.3169 28.5177 20.9032 29.6504V34.1017H10.0645V29.469H12.9445C12.6619 29.2203 12.4018 28.9439 12.1649 28.6428L10.5074 29.1385C9.77497 29.3578 9.01626 29.469 8.25135 29.469C8.10581 29.469 7.96103 29.4574 7.81626 29.4497C5.83045 30.9136 4.64516 33.2246 4.64516 35.6939C4.64516 37.0435 5.00052 38.377 5.67174 39.5499L6.92748 41.7411C7.46013 42.6708 7.74271 43.7286 7.74348 44.7995V46.4596L10.8387 46.4557V44.91C10.8387 43.6329 11.8808 42.5936 13.1613 42.5936H19.3548C20.6354 42.5936 21.6774 43.6329 21.6774 44.91V46.4542H24.7742V44.6165C24.7742 42.6245 26.273 40.9729 28.2596 40.7744ZM45.3174 27.8861L43.8085 26.3805H32.0625L30.5535 27.8861C30.2965 28.1425 30.0929 28.442 29.9179 28.7594C30.3283 29.3825 30.6224 30.0898 30.7332 30.8634C30.8261 31.5128 31.2975 32.0355 31.9363 32.1946L32.3048 32.2865C33.3406 32.5443 34.0645 33.4686 34.0645 34.5333V37.8604C34.0645 40.0772 32.3969 41.9141 30.1858 42.1342L29.7228 42.1805C30.1192 42.8986 30.8764 43.3672 31.7419 43.3672H44.129C45.4095 43.3672 46.4516 42.328 46.4516 41.0509V30.6156C46.4516 29.584 46.0483 28.615 45.3174 27.8861ZM45.6774 23.292H38.7097H34.8387H30.1935V24.8362H45.6782L45.6774 23.292ZM46.3966 14.0264H44.129C41.4031 14.0264 39.1417 16.0432 38.7646 18.6592H41.0323C43.7582 18.6592 46.0196 16.6424 46.3966 14.0264ZM26.8188 9.98668L32.177 5.53306L26.8181 1.07943L25.8263 2.26542L28.8294 4.76093H11.6129V6.30518H28.8294L25.8271 8.8007L26.8188 9.98668ZM8.51613 4.76093V6.30518H10.0645V4.76093H8.51613ZM19.8511 16.1637L25.2093 11.7101L19.8503 7.25644L18.8586 8.44243L21.8617 10.9379H4.64516V12.4822H21.8617L18.8594 14.9777L19.8511 16.1637ZM1.54839 12.4822H3.09677V10.9379H1.54839V12.4822Z" fill="#2DB0DC"/>
</svg>
