<svg width="48" height="48" viewBox="0 0 48 48" fill="none" xmlns="http://www.w3.org/2000/svg">
<path d="M47.7817 40.5483C47.4911 39.9054 46.944 39.4047 46.2413 39.1384C45.5391 38.8723 44.7654 38.8721 44.0625 39.1381C43.2024 39.4642 42.3338 39.7683 41.4587 40.0521C39.3135 35.2344 38.0371 30.196 37.6685 25.0718C37.2954 19.8856 37.8557 14.6958 39.3337 9.64687C39.4435 9.27179 39.2002 8.8863 38.7903 8.7858C38.38 8.68484 37.9591 8.90786 37.8492 9.28304C36.3275 14.4809 35.7509 19.824 36.135 25.1641C36.5125 30.4112 37.8144 35.5697 40.0007 40.5034C39.1639 40.75 38.3218 40.9774 37.4752 41.1851C35.9064 37.5976 34.7782 33.8641 34.1233 30.0808C33.6625 27.4165 33.4289 24.6845 33.4289 21.9605C33.4289 15.1261 34.878 8.46012 37.736 2.14753C37.8697 1.85185 38.1212 1.6216 38.4444 1.49898C38.7677 1.37645 39.1237 1.37636 39.447 1.49907C39.7706 1.62169 40.0226 1.85203 40.1564 2.14771C40.2903 2.44339 40.2901 2.76945 40.1561 3.0656C39.7023 4.06785 39.282 5.0882 38.907 6.09805C38.7704 6.46573 38.9853 6.8651 39.3872 6.99006C39.7892 7.11531 40.2255 6.91825 40.362 6.55067C40.7265 5.56951 41.135 4.57803 41.5761 3.60362C41.8672 2.96051 41.8673 2.25224 41.5764 1.6096C41.2855 0.966867 40.7381 0.466161 40.0354 0.199823C39.333 -0.0666078 38.5589 -0.0666078 37.8562 0.199823C37.1535 0.466254 36.6066 0.967148 36.3162 1.6097C36.1368 2.00587 35.9631 2.40346 35.7944 2.80235C33.06 2.8661 30.627 4.5604 29.8433 6.96813L29.5687 7.81148C28.4899 11.126 27.8469 14.5531 27.6533 18.0062H25.0089C26.1975 16.4096 26.8401 14.5195 26.8401 12.5622C26.8401 7.2234 22.0928 2.87998 16.2576 2.87998C11.4752 2.87998 7.27205 5.82872 6.03636 10.0506C5.92663 10.4257 6.16996 10.8112 6.57988 10.9118C6.98979 11.0119 7.41108 10.7895 7.52102 10.4145C8.57701 6.80622 12.1696 4.28619 16.2576 4.28619C21.2455 4.28619 25.3033 7.99888 25.3033 12.5622C25.3033 14.572 24.5092 16.4978 23.0668 18.0062H20.7904C22.5825 16.754 23.7417 14.78 23.7417 12.5621C23.7417 8.78636 20.3846 5.71444 16.2582 5.71444C12.1317 5.71444 8.77464 8.78646 8.77464 12.5623C8.77464 14.7802 9.9338 16.7542 11.7259 18.0064H9.44755C8.21371 16.7161 7.45903 15.1422 7.26427 13.4407C7.22011 13.0545 6.84288 12.773 6.42005 12.8146C5.99804 12.855 5.69171 13.2008 5.73587 13.5871C5.91915 15.1887 6.5264 16.6931 7.50678 18.0064C6.5055 17.9874 5.67542 18.73 5.67665 19.6469V21.6C5.67665 22.5046 6.48101 23.2406 7.46958 23.2406H10.4249C10.401 24.0611 10.3534 24.8795 10.2835 25.6954C8.30192 26.0208 6.82597 27.5924 6.82597 29.4918V29.5985C6.1547 29.8359 5.67654 30.4311 5.67654 31.128V33.0811C5.67654 33.9857 6.48091 34.7217 7.46948 34.7217H8.53961C7.99261 36.5213 7.32861 38.2999 6.54863 40.0529C5.6706 39.769 4.79944 39.4648 3.93709 39.1379C3.23456 38.8722 2.46094 38.8723 1.75872 39.1384C1.05599 39.4047 0.508887 39.9054 0.218534 40.5477C-0.0726395 41.1905 -0.0728444 41.8985 0.217919 42.5415C0.508682 43.1846 1.05568 43.6854 1.75831 43.9519C8.84646 46.6379 16.3296 48 24 48C31.6704 48 39.1535 46.638 46.2418 43.9518C46.9442 43.6854 47.4912 43.1845 47.782 42.5415C48.0728 41.8986 48.0727 41.1905 47.7817 40.5483ZM10.3114 12.5623C10.3114 9.56184 12.9791 7.12084 16.2582 7.12084C19.5372 7.12084 22.2049 9.56184 22.2049 12.5623C22.2049 15.5627 19.5372 18.0037 16.2582 18.0037C12.9791 18.0037 10.3114 15.5626 10.3114 12.5623ZM21.7157 42.7632V34.7216H24.3624V42.8114C23.4803 42.8162 22.5977 42.7997 21.7157 42.7632ZM27.5897 23.2406V25.6336H23.3454C22.9209 25.6336 22.577 25.9483 22.577 26.3367C22.577 26.7251 22.9209 27.0398 23.3454 27.0398H28.0782L31.2578 29.4874H15.5298C15.6561 28.6748 15.762 27.8588 15.847 27.0398H19.7595C20.184 27.0398 20.5279 26.7251 20.5279 26.3367C20.5279 25.9483 20.184 25.6336 19.7595 25.6336H15.9717C16.031 24.8384 16.0715 24.0407 16.092 23.2406H27.5897ZM31.9107 23.2406C31.9565 24.9925 32.096 26.7428 32.3274 28.4731L29.1265 26.0091V23.2406H31.9107ZM14.4183 34.7217H20.179V42.679C17.4431 42.4915 14.7191 42.1057 12.0375 41.5275C13.0012 39.2984 13.7952 37.0271 14.4183 34.7217ZM14.7767 33.3155C14.9685 32.5119 15.1395 31.7046 15.29 30.8937H32.713C32.8637 31.7036 33.0345 32.5113 33.2269 33.3155H14.7767ZM31.0415 8.213L31.3161 7.36965C31.8502 5.72888 33.3936 4.52441 35.2055 4.26041C33.4861 8.70771 32.4298 13.3091 32.0511 18.0064H29.1917C29.3839 14.6893 30.005 11.3974 31.0415 8.213ZM7.21335 21.6V19.6469C7.21335 19.5177 7.3282 19.4126 7.46948 19.4126H31.9583C31.9167 20.2173 31.895 21.0247 31.893 21.8344H7.46948C7.3282 21.8344 7.21335 21.7293 7.21335 21.6ZM10.1307 27.1839C10.0379 27.9543 9.92417 28.7223 9.79016 29.4874H8.36288C8.36482 28.4238 9.09491 27.523 10.1307 27.1839ZM7.46948 33.3155C7.3282 33.3155 7.21335 33.2104 7.21335 33.0811V31.128C7.21335 30.9988 7.3282 30.8937 7.46948 30.8937H9.51999C9.35053 31.7045 9.15833 32.5119 8.94256 33.3155H7.46948ZM11.9624 23.2406H14.5551C14.3928 29.4129 13.0412 35.4427 10.5342 41.182C9.68678 40.9751 8.84431 40.7487 8.00767 40.5031C10.4656 34.9515 11.7955 29.1489 11.9624 23.2406ZM46.3622 42.0038C46.2283 42.2996 45.9767 42.53 45.6536 42.6525C38.753 45.2677 31.4677 46.5937 24.0001 46.5937C16.5324 46.5937 9.24716 45.2676 2.3467 42.6526C2.02346 42.53 1.77183 42.2996 1.63793 42.0038C1.50412 41.7079 1.50422 41.382 1.63854 41.0856C1.77214 40.7902 2.02366 40.5601 2.3468 40.4376C2.66994 40.3148 3.02638 40.3148 3.34931 40.4372C9.93923 42.9355 17.01 44.2191 24.0616 44.2189C25.7845 44.2189 27.5074 44.1422 29.2205 43.9879C29.6428 43.9499 29.9516 43.6058 29.9099 43.2193C29.8682 42.8329 29.4916 42.5505 29.07 42.5885C28.0158 42.6835 26.9583 42.748 25.8992 42.7827V34.7217H33.5859C34.2115 37.0317 35.0094 39.309 35.9718 41.5324C34.8447 41.7767 33.7111 41.9874 32.5736 42.1616C32.1551 42.2258 31.8725 42.5882 31.9426 42.9712C32.0128 43.3541 32.4084 43.6121 32.8274 43.5486C36.8537 42.9318 40.8317 41.885 44.6503 40.4374C44.9738 40.3149 45.3299 40.3151 45.6533 40.4376C45.9765 40.5601 46.228 40.7902 46.3618 41.0862C46.4958 41.382 46.4959 41.7079 46.3622 42.0038Z" fill="#2DB0DC"/>
<path d="M17.1612 15.9169C17.0916 15.9165 17.0228 15.903 16.9591 15.8772C16.8954 15.8514 16.8381 15.8138 16.7909 15.7668L13.9662 12.9723C13.8719 12.8847 13.819 12.7664 13.819 12.6432C13.819 12.5199 13.8719 12.4016 13.9662 12.3141C14.0581 12.2351 14.1794 12.1917 14.3052 12.1928H15.7049C15.9408 12.189 16.1707 12.1241 16.3683 12.0057C16.5659 11.8872 16.7232 11.72 16.8223 11.523H14.8073C14.683 11.5103 14.5682 11.4558 14.4848 11.3701C14.4014 11.2843 14.3553 11.1733 14.3553 11.0583C14.3553 10.9432 14.4014 10.8322 14.4848 10.7464C14.5682 10.6607 14.683 10.6062 14.8073 10.5935H16.8536C16.7537 10.3976 16.596 10.2316 16.3985 10.1142C16.2009 9.99678 15.9715 9.93278 15.7363 9.92949H14.3365C14.2122 9.91672 14.0974 9.86226 14.014 9.77651C13.9306 9.69076 13.8845 9.57975 13.8845 9.4647C13.8845 9.34965 13.9306 9.23863 14.014 9.15288C14.0974 9.06714 14.2122 9.01267 14.3365 8.99991H18.7305C18.8548 9.01267 18.9696 9.06714 19.053 9.15288C19.1364 9.23863 19.1825 9.34965 19.1825 9.4647C19.1825 9.57975 19.1364 9.69076 19.053 9.77651C18.9696 9.86226 18.8548 9.91672 18.7305 9.92949H17.6069C17.7525 10.1317 17.8568 10.3568 17.9145 10.5935H18.743C18.8674 10.6062 18.9822 10.6607 19.0656 10.7464C19.149 10.8322 19.1951 10.9432 19.1951 11.0583C19.1951 11.1733 19.149 11.2843 19.0656 11.3701C18.9822 11.4558 18.8674 11.5103 18.743 11.523H17.9208C17.8061 11.9772 17.5279 12.3823 17.1313 12.6726C16.7348 12.9629 16.2432 13.1214 15.7363 13.1224H15.4978L17.563 15.1663C17.6569 15.2529 17.7096 15.3702 17.7096 15.4925C17.7096 15.6148 17.6569 15.7321 17.563 15.8187C17.5071 15.8599 17.4425 15.8899 17.3733 15.9068C17.3042 15.9237 17.2319 15.9271 17.1612 15.9169Z" fill="#2DB0DC"/>
</svg>
