<svg width="56" height="49" viewBox="0 0 56 49" fill="none" xmlns="http://www.w3.org/2000/svg">
<path d="M8.66071 16.5771H7.01324V5.54166H12.2201V7.02941H8.66071V16.5771Z" fill="white"/>
<path d="M7.01324 21.3275H8.66071V22.911H7.01324V21.3275Z" fill="white"/>
<path d="M47.2863 30.0835H49.0397V31.5713H47.2863V30.0835Z" fill="white"/>
<path d="M47.2863 26.917H49.0397V28.4048H47.2863V26.917Z" fill="white"/>
<path d="M34.1365 20.0045L30.9241 17.1034L32.0892 16.0513L34.1365 17.9006L40.567 12.093L41.7321 13.1452L34.1365 20.0045Z" fill="white"/>
<path d="M54.3525 36.4169H1.64746V1.48776H31.5068V0H0V37.9046H19.2863V43.542H14.9032V48.1963H23.6169V46.7085H16.5507V45.0298H20.4514L21.3277 44.238H34.6719L35.5486 45.0298H39.4493V46.7085H26.2466V48.1963H41.0968V43.542H36.7137V37.9046H56V25.2857H54.3525V36.4169ZM35.0662 42.7503H20.9338V37.9046H35.0662V42.7503Z" fill="white"/>
<path d="M34.1365 0V1.48776H54.3525V22.9109H56V0H34.1365Z" fill="white"/>
<path d="M3.50641 34.7382H52.4936V3.1669H3.50641V34.7382ZM5.15387 4.65466H50.8461V33.2504H5.15387V4.65466Z" fill="white"/>
<path d="M7.01324 18.1606H8.66071V19.7441H7.01324V18.1606Z" fill="white"/>
<path d="M7.01324 24.494H8.66071V26.0775H7.01324V24.494Z" fill="white"/>
<path d="M43.7795 30.0835H45.5329V31.5713H43.7795V30.0835Z" fill="white"/>
<path d="M35.89 6.3334C33.2585 6.3334 30.7442 7.21734 28.8101 8.82239C27.0746 10.2627 25.9415 12.1702 25.5673 14.2502H13.1498V18.161H14.7972V15.738H25.4237C25.4237 15.7538 25.4229 15.77 25.4229 15.7858C25.4229 18.5495 26.7268 21.1184 29.0164 22.9109H28.9297V30.0835H28.7733C28.4764 27.8202 26.8434 25.9216 24.6077 25.0519C25.5754 24.2614 26.1936 23.063 26.1936 21.7234C26.1936 19.3486 24.2509 17.4167 21.8635 17.4167C19.4756 17.4167 17.5329 19.3486 17.5329 21.7234C17.5329 23.063 18.1516 24.2614 19.1193 25.0519C16.8831 25.9216 15.2505 27.8199 14.9532 30.0835H14.7972V20.5358H13.1498V31.5713H30.5767V23.9315C32.1729 24.7888 33.9857 25.2379 35.8895 25.2379C41.6612 25.2379 46.3566 20.9976 46.3566 15.7858C46.3566 10.5737 41.6612 6.3334 35.89 6.3334ZM19.1804 21.7234C19.1804 20.1689 20.3839 18.9045 21.8635 18.9045C23.3426 18.9045 24.5461 20.1689 24.5461 21.7234C24.5461 23.2775 23.3426 24.5418 21.8635 24.5418C20.3839 24.5418 19.1804 23.2775 19.1804 21.7234ZM21.8635 26.0296C24.5128 26.0296 26.7153 27.7901 27.1122 30.0835H16.6147C17.0117 27.7901 19.2141 26.0296 21.8635 26.0296ZM35.89 23.7501C33.8998 23.7501 32.0298 23.1702 30.4776 22.0698C28.3123 20.5524 27.0703 18.2621 27.0703 15.7858C27.0703 15.5659 27.0831 15.3356 27.1109 15.0613V15.0601C27.3057 13.0885 28.3051 11.2624 29.9252 9.91815C31.5543 8.56581 33.6725 7.82116 35.89 7.82116C40.7529 7.82116 44.7096 11.3939 44.7096 15.7858C44.7096 20.1773 40.7529 23.7501 35.89 23.7501Z" fill="white"/>
<path d="M29.2181 13.9902L30.7972 14.4146C31.462 12.3967 33.5559 10.9876 35.89 10.9876V9.49988C32.8326 9.50026 30.0892 11.3465 29.2181 13.9902Z" fill="white"/>
</svg>
