<svg width="48" height="48" viewBox="0 0 48 48" fill="none" xmlns="http://www.w3.org/2000/svg">
<path d="M44.25 0H3.75C2.7558 0.00119089 1.80267 0.396661 1.09966 1.09966C0.396661 1.80267 0.00119089 2.7558 0 3.75L0 35.25C0.00119089 36.2442 0.396661 37.1973 1.09966 37.9003C1.80267 38.6033 2.7558 38.9988 3.75 39H18.69C18.5089 40.2481 17.885 41.3894 16.9322 42.2155C15.9793 43.0417 14.7611 43.4976 13.5 43.5C12.9033 43.5 12.331 43.7371 11.909 44.159C11.4871 44.581 11.25 45.1533 11.25 45.75V47.25C11.25 47.4489 11.329 47.6397 11.4697 47.7803C11.6103 47.921 11.8011 48 12 48H36C36.1989 48 36.3897 47.921 36.5303 47.7803C36.671 47.6397 36.75 47.4489 36.75 47.25V45.75C36.75 45.1533 36.5129 44.581 36.091 44.159C35.669 43.7371 35.0967 43.5 34.5 43.5C33.2389 43.4976 32.0207 43.0417 31.0678 42.2155C30.115 41.3894 29.4911 40.2481 29.31 39H44.25C45.2442 38.9988 46.1973 38.6033 46.9003 37.9003C47.6033 37.1973 47.9988 36.2442 48 35.25V3.75C47.9988 2.7558 47.6033 1.80267 46.9003 1.09966C46.1973 0.396661 45.2442 0.00119089 44.25 0ZM34.5 45C34.6989 45 34.8897 45.079 35.0303 45.2197C35.171 45.3603 35.25 45.5511 35.25 45.75V46.5H12.75V45.75C12.75 45.5511 12.829 45.3603 12.9697 45.2197C13.1103 45.079 13.3011 45 13.5 45C15.1595 44.9977 16.7601 44.385 17.9968 43.2784C19.2334 42.1719 20.0197 40.649 20.2057 39H27.7942C27.9803 40.649 28.7666 42.1719 30.0032 43.2784C31.2399 44.385 32.8405 44.9977 34.5 45ZM46.5 35.25C46.5 35.8467 46.2629 36.419 45.841 36.841C45.419 37.2629 44.8467 37.5 44.25 37.5H3.75C3.15326 37.5 2.58097 37.2629 2.15901 36.841C1.73705 36.419 1.5 35.8467 1.5 35.25V3.75C1.5 3.15326 1.73705 2.58097 2.15901 2.15901C2.58097 1.73705 3.15326 1.5 3.75 1.5H44.25C44.8467 1.5 45.419 1.73705 45.841 2.15901C46.2629 2.58097 46.5 3.15326 46.5 3.75V35.25Z" fill="white"/>
<path d="M44.25 3H3.75C3.55109 3 3.36032 3.07902 3.21967 3.21967C3.07902 3.36032 3 3.55109 3 3.75V33C3 33.1989 3.07902 33.3897 3.21967 33.5303C3.36032 33.671 3.55109 33.75 3.75 33.75H44.25C44.4489 33.75 44.6397 33.671 44.7803 33.5303C44.921 33.3897 45 33.1989 45 33V3.75C45 3.55109 44.921 3.36032 44.7803 3.21967C44.6397 3.07902 44.4489 3 44.25 3ZM43.5 32.25H4.5V4.5H43.5V32.25Z" fill="white"/>
<path d="M7.5 8.25H13.5C13.6989 8.25 13.8897 8.17098 14.0303 8.03033C14.171 7.88968 14.25 7.69891 14.25 7.5C14.25 7.30109 14.171 7.11032 14.0303 6.96967C13.8897 6.82902 13.6989 6.75 13.5 6.75H7.5C7.30109 6.75 7.11032 6.82902 6.96967 6.96967C6.82902 7.11032 6.75 7.30109 6.75 7.5C6.75 7.69891 6.82902 7.88968 6.96967 8.03033C7.11032 8.17098 7.30109 8.25 7.5 8.25Z" fill="white"/>
<path d="M7.5 12H13.5C13.6989 12 13.8897 11.921 14.0303 11.7803C14.171 11.6397 14.25 11.4489 14.25 11.25C14.25 11.0511 14.171 10.8603 14.0303 10.7197C13.8897 10.579 13.6989 10.5 13.5 10.5H7.5C7.30109 10.5 7.11032 10.579 6.96967 10.7197C6.82902 10.8603 6.75 11.0511 6.75 11.25C6.75 11.4489 6.82902 11.6397 6.96967 11.7803C7.11032 11.921 7.30109 12 7.5 12Z" fill="white"/>
<path d="M10.5 29.25C10.5 29.4489 10.579 29.6397 10.7197 29.7803C10.8603 29.921 11.0511 30 11.25 30H41.25C41.4489 30 41.6397 29.921 41.7803 29.7803C41.921 29.6397 42 29.4489 42 29.25C42 29.0511 41.921 28.8603 41.7803 28.7197C41.6397 28.579 41.4489 28.5 41.25 28.5H11.25C11.0511 28.5 10.8603 28.579 10.7197 28.7197C10.579 28.8603 10.5 29.0511 10.5 29.25Z" fill="white"/>
<path d="M24.75 27C24.9489 27 25.1397 26.921 25.2803 26.7803C25.421 26.6397 25.5 26.4489 25.5 26.25V17.25C25.5 17.0511 25.421 16.8603 25.2803 16.7197C25.1397 16.579 24.9489 16.5 24.75 16.5H20.25C20.0511 16.5 19.8603 16.579 19.7197 16.7197C19.579 16.8603 19.5 17.0511 19.5 17.25V26.25C19.5 26.4489 19.579 26.6397 19.7197 26.7803C19.8603 26.921 20.0511 27 20.25 27H24.75ZM21 18H24V25.5H21V18Z" fill="white"/>
<path d="M32.25 27C32.4489 27 32.6397 26.921 32.7803 26.7803C32.921 26.6397 33 26.4489 33 26.25V18.75C33 18.5511 32.921 18.3603 32.7803 18.2197C32.6397 18.079 32.4489 18 32.25 18H27.75C27.5511 18 27.3603 18.079 27.2197 18.2197C27.079 18.3603 27 18.5511 27 18.75V26.25C27 26.4489 27.079 26.6397 27.2197 26.7803C27.3603 26.921 27.5511 27 27.75 27H32.25ZM28.5 19.5H31.5V25.5H28.5V19.5Z" fill="white"/>
<path d="M34.5 14.25V26.25C34.5 26.4489 34.579 26.6397 34.7197 26.7803C34.8603 26.921 35.0511 27 35.25 27H39.75C39.9489 27 40.1397 26.921 40.2803 26.7803C40.421 26.6397 40.5 26.4489 40.5 26.25V14.25C40.5 14.0511 40.421 13.8603 40.2803 13.7197C40.1397 13.579 39.9489 13.5 39.75 13.5H35.25C35.0511 13.5 34.8603 13.579 34.7197 13.7197C34.579 13.8603 34.5 14.0511 34.5 14.25ZM36 15H39V25.5H36V15Z" fill="white"/>
<path d="M17.25 27C17.4489 27 17.6397 26.921 17.7803 26.7803C17.921 26.6397 18 26.4489 18 26.25V21.75C18 21.5511 17.921 21.3603 17.7803 21.2197C17.6397 21.079 17.4489 21 17.25 21H12.75C12.5511 21 12.3603 21.079 12.2197 21.2197C12.079 21.3603 12 21.5511 12 21.75V26.25C12 26.4489 12.079 26.6397 12.2197 26.7803C12.3603 26.921 12.5511 27 12.75 27H17.25ZM13.5 22.5H16.5V25.5H13.5V22.5Z" fill="white"/>
<path d="M15.5018 18.5573L22.6223 12.15L29.6648 15.675C29.8056 15.7453 29.9649 15.7695 30.1203 15.7442C30.2756 15.7189 30.419 15.6453 30.5303 15.534L36.75 9.3105V10.5C36.75 10.6989 36.829 10.8897 36.9697 11.0303C37.1103 11.171 37.3011 11.25 37.5 11.25C37.6989 11.25 37.8897 11.171 38.0303 11.0303C38.171 10.8897 38.25 10.6989 38.25 10.5V7.5C38.25 7.30109 38.171 7.11032 38.0303 6.96967C37.8897 6.82902 37.6989 6.75 37.5 6.75H34.5C34.3011 6.75 34.1103 6.82902 33.9697 6.96967C33.829 7.11032 33.75 7.30109 33.75 7.5C33.75 7.69891 33.829 7.88968 33.9697 8.03033C34.1103 8.17098 34.3011 8.25 34.5 8.25H35.6895L29.85 14.0873L22.833 10.5795C22.6983 10.5121 22.5463 10.4869 22.397 10.5071C22.2478 10.5273 22.108 10.592 21.996 10.6928L14.496 17.4428C14.3527 17.577 14.2678 17.7621 14.2594 17.9582C14.2511 18.1544 14.32 18.346 14.4514 18.4919C14.5828 18.6379 14.7661 18.7264 14.9621 18.7386C15.1581 18.7508 15.351 18.6857 15.4995 18.5573H15.5018Z" fill="white"/>
</svg>
