<svg width="48" height="56" viewBox="0 0 48 56" fill="none" xmlns="http://www.w3.org/2000/svg">
<path d="M38.4 51.3333C33.7766 51.3333 28.8 50.1648 28.8 47.6C28.8 47.3525 28.9011 47.1151 29.0812 46.94C29.2612 46.765 29.5054 46.6667 29.76 46.6667C30.0146 46.6667 30.2588 46.765 30.4388 46.94C30.6188 47.1151 30.72 47.3525 30.72 47.6C30.72 48.0797 33.3609 49.4667 38.4 49.4667C43.439 49.4667 46.08 48.0797 46.08 47.6C46.08 47.3525 46.1811 47.1151 46.3612 46.94C46.5412 46.765 46.7854 46.6667 47.04 46.6667C47.2946 46.6667 47.5388 46.765 47.7188 46.94C47.8988 47.1151 48 47.3525 48 47.6C48 50.1648 43.0233 51.3333 38.4 51.3333Z" fill="#2DB0DC"/>
<path d="M38.4 56C33.7766 56 28.8 54.8315 28.8 52.2667V47.6C28.8 47.3525 28.9011 47.1151 29.0812 46.94C29.2612 46.765 29.5054 46.6667 29.76 46.6667C30.0146 46.6667 30.2588 46.765 30.4388 46.94C30.6188 47.1151 30.72 47.3525 30.72 47.6V52.2667C30.72 52.7464 33.3609 54.1333 38.4 54.1333C43.439 54.1333 46.08 52.7464 46.08 52.2667V47.6C46.08 47.3525 46.1811 47.1151 46.3612 46.94C46.5412 46.765 46.7854 46.6667 47.04 46.6667C47.2946 46.6667 47.5388 46.765 47.7188 46.94C47.8988 47.1151 48 47.3525 48 47.6V52.2667C48 54.8315 43.0233 56 38.4 56Z" fill="#2DB0DC"/>
<path d="M38.4 46.6667C33.7766 46.6667 28.8 45.4981 28.8 42.9333C28.8 42.6858 28.9011 42.4484 29.0812 42.2734C29.2612 42.0983 29.5054 42 29.76 42C30.0146 42 30.2588 42.0983 30.4388 42.2734C30.6188 42.4484 30.72 42.6858 30.72 42.9333C30.72 43.4131 33.3609 44.8 38.4 44.8C43.439 44.8 46.08 43.4131 46.08 42.9333C46.08 42.6858 46.1811 42.4484 46.3612 42.2734C46.5412 42.0983 46.7854 42 47.04 42C47.2946 42 47.5388 42.0983 47.7188 42.2734C47.8988 42.4484 48 42.6858 48 42.9333C48 45.4981 43.0233 46.6667 38.4 46.6667Z" fill="#2DB0DC"/>
<path d="M38.4 51.3333C33.7766 51.3333 28.8 50.1648 28.8 47.6V42.9333C28.8 42.6858 28.9011 42.4484 29.0812 42.2734C29.2612 42.0983 29.5054 42 29.76 42C30.0146 42 30.2588 42.0983 30.4388 42.2734C30.6188 42.4484 30.72 42.6858 30.72 42.9333V47.6C30.72 48.0797 33.3609 49.4667 38.4 49.4667C43.439 49.4667 46.08 48.0797 46.08 47.6V42.9333C46.08 42.6858 46.1811 42.4484 46.3612 42.2734C46.5412 42.0983 46.7854 42 47.04 42C47.2946 42 47.5388 42.0983 47.7188 42.2734C47.8988 42.4484 48 42.6858 48 42.9333V47.6C48 50.1648 43.0233 51.3333 38.4 51.3333Z" fill="#2DB0DC"/>
<path d="M38.4 42.0001C33.7766 42.0001 28.8 40.8315 28.8 38.2667C28.8 35.7019 33.7766 34.5334 38.4 34.5334C43.0233 34.5334 48 35.7019 48 38.2667C48 40.8315 43.0233 42.0001 38.4 42.0001ZM38.4 36.4001C33.3609 36.4001 30.72 37.787 30.72 38.2667C30.72 38.7465 33.3609 40.1334 38.4 40.1334C43.439 40.1334 46.08 38.7465 46.08 38.2667C46.08 37.787 43.439 36.4001 38.4 36.4001Z" fill="#2DB0DC"/>
<path d="M38.4 46.6667C33.7766 46.6667 28.8 45.4981 28.8 42.9333V38.2667C28.8 38.0191 28.9011 37.7817 29.0812 37.6067C29.2612 37.4317 29.5054 37.3333 29.76 37.3333C30.0146 37.3333 30.2588 37.4317 30.4388 37.6067C30.6188 37.7817 30.72 38.0191 30.72 38.2667V42.9333C30.72 43.4131 33.3609 44.8 38.4 44.8C43.439 44.8 46.08 43.4131 46.08 42.9333V38.2667C46.08 38.0191 46.1811 37.7817 46.3612 37.6067C46.5412 37.4317 46.7854 37.3333 47.04 37.3333C47.2946 37.3333 47.5388 37.4317 47.7188 37.6067C47.8988 37.7817 48 38.0191 48 38.2667V42.9333C48 45.4981 43.0233 46.6667 38.4 46.6667Z" fill="#2DB0DC"/>
<path d="M26.88 51.3333C22.2566 51.3333 17.28 50.1648 17.28 47.6C17.28 47.3525 17.3811 47.1151 17.5612 46.94C17.7412 46.765 17.9854 46.6667 18.24 46.6667C18.4946 46.6667 18.7388 46.765 18.9188 46.94C19.0989 47.1151 19.2 47.3525 19.2 47.6C19.2 48.0797 21.841 49.4667 26.88 49.4667C27.1346 49.4667 27.3788 49.565 27.5588 49.74C27.7389 49.9151 27.84 50.1525 27.84 50.4C27.84 50.6475 27.7389 50.8849 27.5588 51.06C27.3788 51.235 27.1346 51.3333 26.88 51.3333Z" fill="#2DB0DC"/>
<path d="M26.88 56C22.2566 56 17.28 54.8315 17.28 52.2667V47.6C17.28 47.3525 17.3811 47.1151 17.5612 46.94C17.7412 46.765 17.9854 46.6667 18.24 46.6667C18.4946 46.6667 18.7388 46.765 18.9188 46.94C19.0989 47.1151 19.2 47.3525 19.2 47.6V52.2667C19.2 52.7464 21.841 54.1333 26.88 54.1333C27.1346 54.1333 27.3788 54.2317 27.5588 54.4067C27.7389 54.5817 27.84 54.8191 27.84 55.0667C27.84 55.3142 27.7389 55.5516 27.5588 55.7266C27.3788 55.9017 27.1346 56 26.88 56Z" fill="#2DB0DC"/>
<path d="M26.88 46.6666C22.2566 46.6666 17.28 45.4981 17.28 42.9333C17.28 40.3685 22.2566 39.2 26.88 39.2C27.1346 39.2 27.3788 39.2983 27.5588 39.4733C27.7389 39.6484 27.84 39.8858 27.84 40.1333C27.84 40.3809 27.7389 40.6182 27.5588 40.7933C27.3788 40.9683 27.1346 41.0666 26.88 41.0666C21.841 41.0666 19.2 42.4536 19.2 42.9333C19.2 43.413 21.841 44.8 26.88 44.8C27.1346 44.8 27.3788 44.8983 27.5588 45.0733C27.7389 45.2484 27.84 45.4858 27.84 45.7333C27.84 45.9809 27.7389 46.2182 27.5588 46.3933C27.3788 46.5683 27.1346 46.6666 26.88 46.6666Z" fill="#2DB0DC"/>
<path d="M26.88 51.3333C22.2566 51.3333 17.28 50.1648 17.28 47.6V42.9333C17.28 42.6858 17.3811 42.4484 17.5612 42.2734C17.7412 42.0983 17.9854 42 18.24 42C18.4946 42 18.7388 42.0983 18.9188 42.2734C19.0989 42.4484 19.2 42.6858 19.2 42.9333V47.6C19.2 48.0797 21.841 49.4667 26.88 49.4667C27.1346 49.4667 27.3788 49.565 27.5588 49.74C27.7389 49.9151 27.84 50.1525 27.84 50.4C27.84 50.6475 27.7389 50.8849 27.5588 51.06C27.3788 51.235 27.1346 51.3333 26.88 51.3333Z" fill="#2DB0DC"/>
<path d="M16.32 56H2.88C2.11618 56 1.38364 55.705 0.843533 55.1799C0.303428 54.6548 0 53.9426 0 53.2V10.2667C0 9.5241 0.303428 8.81191 0.843533 8.28681C1.38364 7.7617 2.11618 7.46671 2.88 7.46671H8.64C8.89461 7.46671 9.13879 7.56504 9.31882 7.74007C9.49886 7.91511 9.6 8.1525 9.6 8.40004C9.6 8.64757 9.49886 8.88497 9.31882 9.06C9.13879 9.23504 8.89461 9.33337 8.64 9.33337H2.88C2.62539 9.33337 2.38121 9.43171 2.20118 9.60674C2.02114 9.78177 1.92 10.0192 1.92 10.2667V53.2C1.92 53.4476 2.02114 53.685 2.20118 53.86C2.38121 54.035 2.62539 54.1334 2.88 54.1334H16.32C16.5746 54.1334 16.8188 54.2317 16.9988 54.4067C17.1789 54.5818 17.28 54.8192 17.28 55.0667C17.28 55.3142 17.1789 55.5516 16.9988 55.7267C16.8188 55.9017 16.5746 56 16.32 56Z" fill="#2DB0DC"/>
<path d="M39.36 33.6C39.1054 33.6 38.8612 33.5017 38.6812 33.3267C38.5011 33.1516 38.4 32.9142 38.4 32.6667V10.2667C38.4 10.0192 38.2989 9.78177 38.1188 9.60674C37.9388 9.43171 37.6946 9.33337 37.44 9.33337H31.68C31.4254 9.33337 31.1812 9.23504 31.0012 9.06C30.8211 8.88497 30.72 8.64757 30.72 8.40004C30.72 8.1525 30.8211 7.91511 31.0012 7.74007C31.1812 7.56504 31.4254 7.46671 31.68 7.46671H37.44C38.2038 7.46671 38.9364 7.7617 39.4765 8.28681C40.0166 8.81191 40.32 9.5241 40.32 10.2667V32.6667C40.32 32.9142 40.2189 33.1516 40.0388 33.3267C39.8588 33.5017 39.6146 33.6 39.36 33.6Z" fill="#2DB0DC"/>
<path d="M26.88 12.1333H13.44C12.6762 12.1333 11.9436 11.8383 11.4035 11.3132C10.8634 10.7881 10.56 10.0759 10.56 9.33332V7.46666C10.56 6.72405 10.8634 6.01186 11.4035 5.48676C11.9436 4.96166 12.6762 4.66666 13.44 4.66666H26.88C27.6438 4.66666 28.3764 4.96166 28.9165 5.48676C29.4566 6.01186 29.76 6.72405 29.76 7.46666V9.33332C29.76 10.0759 29.4566 10.7881 28.9165 11.3132C28.3764 11.8383 27.6438 12.1333 26.88 12.1333ZM13.44 6.53332C13.1854 6.53332 12.9412 6.63166 12.7612 6.80669C12.5811 6.98172 12.48 7.21912 12.48 7.46666V9.33332C12.48 9.58086 12.5811 9.81826 12.7612 9.99329C12.9412 10.1683 13.1854 10.2667 13.44 10.2667H26.88C27.1346 10.2667 27.3788 10.1683 27.5588 9.99329C27.7389 9.81826 27.84 9.58086 27.84 9.33332V7.46666C27.84 7.21912 27.7389 6.98172 27.5588 6.80669C27.3788 6.63166 27.1346 6.53332 26.88 6.53332H13.44Z" fill="#2DB0DC"/>
<path d="M24 6.53333H16.32C16.0654 6.53333 15.8212 6.435 15.6412 6.25997C15.4611 6.08493 15.36 5.84754 15.36 5.6V2.8C15.36 2.05739 15.6634 1.3452 16.2035 0.820101C16.7436 0.294999 17.4762 0 18.24 0H22.08C22.8438 0 23.5763 0.294999 24.1165 0.820101C24.6566 1.3452 24.96 2.05739 24.96 2.8V5.6C24.96 5.84754 24.8588 6.08493 24.6788 6.25997C24.4988 6.435 24.2546 6.53333 24 6.53333ZM17.28 4.66667H23.04V2.8C23.04 2.55246 22.9388 2.31507 22.7588 2.14003C22.5788 1.965 22.3346 1.86667 22.08 1.86667H18.24C17.9854 1.86667 17.7412 1.965 17.5612 2.14003C17.3811 2.31507 17.28 2.55246 17.28 2.8V4.66667Z" fill="#2DB0DC"/>
<path d="M14.4 25.2H6.72001C6.4654 25.2 6.22122 25.1016 6.04119 24.9266C5.86115 24.7516 5.76001 24.5142 5.76001 24.2666V16.8C5.76001 16.5524 5.86115 16.315 6.04119 16.14C6.22122 15.965 6.4654 15.8666 6.72001 15.8666H14.4C14.6546 15.8666 14.8988 15.965 15.0788 16.14C15.2589 16.315 15.36 16.5524 15.36 16.8V24.2666C15.36 24.5142 15.2589 24.7516 15.0788 24.9266C14.8988 25.1016 14.6546 25.2 14.4 25.2ZM7.68001 23.3333H13.44V17.7333H7.68001V23.3333Z" fill="#2DB0DC"/>
<path d="M33.6 18.6667H18.24C17.9854 18.6667 17.7412 18.5684 17.5612 18.3933C17.3811 18.2183 17.28 17.9809 17.28 17.7334C17.28 17.4858 17.3811 17.2484 17.5612 17.0734C17.7412 16.8984 17.9854 16.8 18.24 16.8H33.6C33.8546 16.8 34.0988 16.8984 34.2788 17.0734C34.4589 17.2484 34.56 17.4858 34.56 17.7334C34.56 17.9809 34.4589 18.2183 34.2788 18.3933C34.0988 18.5684 33.8546 18.6667 33.6 18.6667Z" fill="#2DB0DC"/>
<path d="M33.6 24.2667H18.24C17.9854 24.2667 17.7412 24.1684 17.5612 23.9933C17.3811 23.8183 17.28 23.5809 17.28 23.3334C17.28 23.0858 17.3811 22.8484 17.5612 22.6734C17.7412 22.4984 17.9854 22.4 18.24 22.4H33.6C33.8546 22.4 34.0988 22.4984 34.2788 22.6734C34.4589 22.8484 34.56 23.0858 34.56 23.3334C34.56 23.5809 34.4589 23.8183 34.2788 23.9933C34.0988 24.1684 33.8546 24.2667 33.6 24.2667Z" fill="#2DB0DC"/>
<path d="M33.6 29.8667H6.72001C6.4654 29.8667 6.22122 29.7683 6.04119 29.5933C5.86115 29.4183 5.76001 29.1809 5.76001 28.9333C5.76001 28.6858 5.86115 28.4484 6.04119 28.2734C6.22122 28.0983 6.4654 28 6.72001 28H33.6C33.8546 28 34.0988 28.0983 34.2788 28.2734C34.4589 28.4484 34.56 28.6858 34.56 28.9333C34.56 29.1809 34.4589 29.4183 34.2788 29.5933C34.0988 29.7683 33.8546 29.8667 33.6 29.8667Z" fill="#2DB0DC"/>
<path d="M26.88 35.4666H6.72001C6.4654 35.4666 6.22122 35.3683 6.04119 35.1933C5.86115 35.0182 5.76001 34.7808 5.76001 34.5333C5.76001 34.2858 5.86115 34.0484 6.04119 33.8733C6.22122 33.6983 6.4654 33.6 6.72001 33.6H26.88C27.1346 33.6 27.3788 33.6983 27.5588 33.8733C27.7389 34.0484 27.84 34.2858 27.84 34.5333C27.84 34.7808 27.7389 35.0182 27.5588 35.1933C27.3788 35.3683 27.1346 35.4666 26.88 35.4666Z" fill="#2DB0DC"/>
<path d="M14.4 41.0666H6.72001C6.4654 41.0666 6.22122 40.9683 6.04119 40.7933C5.86115 40.6182 5.76001 40.3809 5.76001 40.1333C5.76001 39.8858 5.86115 39.6484 6.04119 39.4733C6.22122 39.2983 6.4654 39.2 6.72001 39.2H14.4C14.6546 39.2 14.8988 39.2983 15.0788 39.4733C15.2589 39.6484 15.36 39.8858 15.36 40.1333C15.36 40.3809 15.2589 40.6182 15.0788 40.7933C14.8988 40.9683 14.6546 41.0666 14.4 41.0666Z" fill="#2DB0DC"/>
<path d="M14.4 46.6667H6.72001C6.4654 46.6667 6.22122 46.5684 6.04119 46.3933C5.86115 46.2183 5.76001 45.9809 5.76001 45.7334C5.76001 45.4858 5.86115 45.2484 6.04119 45.0734C6.22122 44.8984 6.4654 44.8 6.72001 44.8H14.4C14.6546 44.8 14.8988 44.8984 15.0788 45.0734C15.2589 45.2484 15.36 45.4858 15.36 45.7334C15.36 45.9809 15.2589 46.2183 15.0788 46.3933C14.8988 46.5684 14.6546 46.6667 14.4 46.6667Z" fill="#2DB0DC"/>
</svg>
