<svg width="48" height="48" viewBox="0 0 48 48" fill="none" xmlns="http://www.w3.org/2000/svg">
<path d="M40.3898 8.11895C35.781 3.28802 28.6981 2.54646 23.4586 5.45711C23.0059 5.70855 22.8429 6.27948 23.0943 6.73211C23.3457 7.18492 23.9167 7.34776 24.3693 7.09642C29.1616 4.43383 35.1914 5.3868 39.029 9.40932C42.9887 13.6103 43.4345 19.8725 40.3713 24.515C36.1518 30.924 27.0384 31.8898 21.5744 26.4247C17.8926 22.7442 16.8259 16.8086 19.4855 11.9785C19.735 11.5248 19.5696 10.9546 19.1159 10.705C18.6623 10.4557 18.0922 10.6209 17.8424 11.0746C17.785 11.1791 17.6828 11.3739 17.5842 11.5737C14.8572 17.1325 16.098 23.6019 20.2485 27.7508C26.5436 34.0472 37.0588 32.9567 41.9371 25.547C45.4355 20.2446 45.0063 13.0169 40.3898 8.11895Z" fill="white"/>
<path d="M42.791 5.2089C35.845 -1.73618 24.5425 -1.73646 17.5962 5.209C11.3498 11.4563 10.6773 21.251 15.7641 28.258L12.8422 31.1792C11.8178 30.6889 10.5224 30.8471 9.64019 31.7294L1.37502 39.9955C-0.457511 41.8268 -0.459011 44.7925 1.37455 46.6249C3.20633 48.4579 6.17191 48.4586 8.00407 46.625L16.2705 38.3597C17.1523 37.4777 17.3111 36.1823 16.8206 35.1578L19.7421 32.2356C26.7507 37.3235 36.5446 36.6492 42.791 30.4037C49.7363 23.4575 49.7363 12.1552 42.791 5.2089ZM14.9444 37.0337L6.67779 45.2992C5.57913 46.3987 3.8007 46.3998 2.70055 45.2988C1.60086 44.1999 1.6002 42.4215 2.70073 41.3217L10.9661 33.0554C11.3314 32.69 11.9263 32.6898 12.2916 33.0554L14.9443 35.7081C15.3099 36.0735 15.3099 36.6683 14.9444 37.0337ZM15.6074 33.719L14.281 32.3926L16.9511 29.7232C17.1605 29.9556 17.3757 30.1834 17.5961 30.4037C17.8165 30.6241 18.0442 30.8394 18.2768 31.0489L15.6074 33.719ZM41.4649 29.0777C35.2514 35.2902 25.1866 35.3431 18.922 29.0777C12.6648 22.8212 12.7021 12.756 18.922 6.535C25.1366 0.321257 35.2493 0.320226 41.4648 6.535C47.679 12.75 47.679 22.8627 41.4649 29.0777Z" fill="white"/>
<path d="M21.597 7.88488C21.5905 7.87644 21.583 7.86894 21.5745 7.8605C21.2079 7.49478 20.6144 7.49478 20.2478 7.8605C19.8821 8.22716 19.8821 8.82069 20.2478 9.18725C20.2562 9.19569 20.2637 9.20319 20.2722 9.21069C20.6407 9.55297 21.2164 9.54453 21.5745 9.18725C21.9317 8.82903 21.9402 8.25331 21.597 7.88488Z" fill="white"/>
</svg>
