<svg width="50" height="48" viewBox="0 0 50 48" fill="none" xmlns="http://www.w3.org/2000/svg">
<path d="M0.833333 41.6C0.373333 41.6 0 41.9584 0 42.4V44C0 46.2064 1.86833 48 4.16667 48H5.83333C6.29333 48 6.66667 47.6416 6.66667 47.2C6.66667 46.7584 6.29333 46.4 5.83333 46.4H4.16667C2.78833 46.4 1.66667 45.3232 1.66667 44V42.4C1.66667 41.9584 1.29333 41.6 0.833333 41.6Z" fill="#21B3DA"/>
<path d="M13.75 1.6H10.8334C9.45504 1.6 8.33337 2.6768 8.33337 4V44C8.33337 44.9008 8.02171 45.7312 7.49837 46.4H37.5C38.8784 46.4 40 45.3232 40 44C40 43.5584 40.3734 43.2 40.8334 43.2C41.2934 43.2 41.6667 43.5584 41.6667 44C41.6667 46.2064 39.7984 48 37.5 48H4.16671C3.70671 48 3.33337 47.6416 3.33337 47.2C3.33337 46.7584 3.70671 46.4 4.16671 46.4C5.54504 46.4 6.66671 45.3232 6.66671 44V4C6.66671 1.7936 8.53504 0 10.8334 0H13.75V1.6Z" fill="#21B3DA"/>
<path d="M50 4V5.6C50 6.0416 49.6267 6.4 49.1667 6.4H14.1667C13.7067 6.4 13.3334 6.0416 13.3334 5.6V4C13.3334 2.6768 12.2117 1.6 10.8334 1.6C10.3734 1.6 10 1.2416 10 0.8C10 0.3584 10.3734 0 10.8334 0H45.8334C48.1317 0 50 1.7936 50 4ZM15 4V4.8H48.3334V4C48.3334 2.6768 47.2117 1.6 45.8334 1.6H14.165C14.6884 2.2688 15 3.1008 15 4Z" fill="#21B3DA"/>
<path d="M41.6666 8.8V18.4C41.6666 18.8416 41.2933 19.2 40.8333 19.2C40.3733 19.2 40 18.8416 40 18.4V8.8C40 8.3584 40.3733 8 40.8333 8C41.2933 8 41.6666 8.3584 41.6666 8.8Z" fill="#21B3DA"/>
<path d="M12.5 16H24.1667C24.6267 16 25 16.3584 25 16.8C25 17.2416 24.6267 17.6 24.1667 17.6H12.5C12.04 17.6 11.6667 17.2416 11.6667 16.8C11.6667 16.3584 12.04 16 12.5 16Z" fill="#21B3DA"/>
<path d="M12.5 12.8H19.1667C19.6267 12.8 20 13.1584 20 13.6C20 14.0416 19.6267 14.4 19.1667 14.4H12.5C12.04 14.4 11.6667 14.0416 11.6667 13.6C11.6667 13.1584 12.04 12.8 12.5 12.8Z" fill="#21B3DA"/>
<path d="M22.5001 12.8H35.8334C36.2934 12.8 36.6667 13.1584 36.6667 13.6C36.6667 14.0416 36.2934 14.4 35.8334 14.4H22.5001C22.0401 14.4 21.6667 14.0416 21.6667 13.6C21.6667 13.1584 22.0401 12.8 22.5001 12.8Z" fill="#21B3DA"/>
<path d="M12.5 9.60004H27.5C27.96 9.60004 28.3334 9.95844 28.3334 10.4C28.3334 10.8416 27.96 11.2 27.5 11.2H12.5C12.04 11.2 11.6667 10.8416 11.6667 10.4C11.6667 9.95844 12.04 9.60004 12.5 9.60004Z" fill="#21B3DA"/>
<path d="M30.8334 9.60004H35.8334C36.2934 9.60004 36.6667 9.95844 36.6667 10.4C36.6667 10.8416 36.2934 11.2 35.8334 11.2H30.8334C30.3734 11.2 30 10.8416 30 10.4C30 9.95844 30.3734 9.60004 30.8334 9.60004Z" fill="#21B3DA"/>
<path d="M49.1667 41.5999H10.8334C10.3734 41.5999 10 41.2415 10 40.7999C10 40.3583 10.3734 39.9999 10.8334 39.9999H48.3334V22.3999H15V31.1999C15 31.6415 14.6267 31.9999 14.1667 31.9999C13.7067 31.9999 13.3334 31.6415 13.3334 31.1999V21.5999C13.3334 21.1583 13.7067 20.7999 14.1667 20.7999H49.1667C49.6267 20.7999 50 21.1583 50 21.5999V40.7999C50 41.2415 49.6267 41.5999 49.1667 41.5999Z" fill="#21B3DA"/>
<path d="M42.585 38.4H20.7484C20.3417 38.4 19.995 38.1184 19.9267 37.7328C19.68 36.3136 18.6417 35.1328 17.2217 34.648C16.8884 34.5344 16.6667 34.232 16.6667 33.8944V28.5072C16.6667 28.1696 16.8884 27.8672 17.2217 27.7536C18.6434 27.2688 19.68 26.0864 19.9267 24.6688C19.995 24.2816 20.3417 24 20.7484 24H42.585C42.9917 24 43.3384 24.2816 43.4067 24.6672C43.6534 26.0864 44.6917 27.2672 46.1117 27.752C46.445 27.8656 46.6667 28.168 46.6667 28.5056V33.8928C46.6667 34.2304 46.445 34.5328 46.1117 34.6464C44.69 35.1312 43.6534 36.3136 43.4067 37.7312C43.3384 38.1184 42.9917 38.4 42.585 38.4ZM21.41 36.8H41.925C42.3934 35.2928 43.5134 34.04 45.0017 33.36V29.04C43.5134 28.36 42.395 27.1072 41.925 25.6H21.41C20.9417 27.1072 19.8217 28.36 18.3334 29.04V33.36C19.8217 34.04 20.94 35.2928 21.41 36.8Z" fill="#21B3DA"/>
<path d="M31.6666 35.2001C29.3683 35.2001 27.5 33.4049 27.5 31.2001C27.5 28.9953 29.3683 27.2001 31.6666 27.2001C33.965 27.2001 35.8333 28.9953 35.8333 31.2001C35.8333 33.4049 33.965 35.2001 31.6666 35.2001ZM31.6666 28.8001C30.2883 28.8001 29.1666 29.8769 29.1666 31.2001C29.1666 32.5233 30.2883 33.6001 31.6666 33.6001C33.045 33.6001 34.1666 32.5233 34.1666 31.2001C34.1666 29.8769 33.045 28.8001 31.6666 28.8001Z" fill="#21B3DA"/>
<path d="M14.1667 35.2H10.8334C10.3734 35.2 10 34.8416 10 34.4C10 33.9584 10.3734 33.6 10.8334 33.6H14.1667C14.6267 33.6 15 33.9584 15 34.4C15 34.8416 14.6267 35.2 14.1667 35.2Z" fill="#21B3DA"/>
<path d="M17.5 38.4H12.5C12.04 38.4 11.6667 38.0416 11.6667 37.6C11.6667 37.1584 12.04 36.8 12.5 36.8H17.5C17.96 36.8 18.3334 37.1584 18.3334 37.6C18.3334 38.0416 17.96 38.4 17.5 38.4Z" fill="#21B3DA"/>
</svg>
