<svg id="Layer_1" enable-background="new 0 0 512 512" height="512" viewBox="0 0 512 512" width="512" xmlns="http://www.w3.org/2000/svg"><g><g><path d="m496 188.5v135h-480v-135c0-8.3 6.8-15 15-15h450c8.2 0 15 6.7 15 15z" fill="#848ba5"/><path d="m83.5 211v37.5h-30v-22.5c0-8.3 6.7-15 15-15z" fill="#ffb54d"/><path d="m83.5 248.5v37.5h-15c-8.3 0-15-6.7-15-15v-22.5z" fill="#ffd61a"/><path d="m143.5 226v22.5h-30v-37.5h15c8.3 0 15 6.7 15 15z" fill="#ffd61a"/><path d="m143.5 248.5v22.5c0 8.3-6.7 15-15 15h-15v-37.5z" fill="#ffb54d"/><path d="m83.5 211h30v75h-30z" fill="#e68700"/><path d="m496 323.5v127.5c0 8.2-6.8 15-15 15h-450c-8.2 0-15-6.8-15-15v-127.5z" fill="#68708e"/><g><path d="m46 361h15v30h-15z" fill="#c6c7cc"/></g><g><path d="m76 361h15v30h-15z" fill="#c6c7cc"/></g><g><path d="m106 361h15v30h-15z" fill="#c6c7cc"/></g><g><path d="m136 361h15v30h-15z" fill="#c6c7cc"/></g><g><path d="m203.5 361h15v30h-15z" fill="#c6c7cc"/></g><g><path d="m233.5 361h15v30h-15z" fill="#c6c7cc"/></g><g><path d="m263.5 361h15v30h-15z" fill="#c6c7cc"/></g><g><path d="m293.5 361h15v30h-15z" fill="#c6c7cc"/></g><g><path d="m361 361h15v30h-15z" fill="#c6c7cc"/></g><g><path d="m391 361h15v30h-15z" fill="#c6c7cc"/></g><g><path d="m421 361h15v30h-15z" fill="#c6c7cc"/></g><g><path d="m451 361h15v30h-15z" fill="#c6c7cc"/></g><g><path d="m46 421h135v15h-135z" fill="#9795a1"/></g><g><path d="m331 421h60v15h-60z" fill="#9795a1"/></g><g><path d="m406 421h60v15h-60z" fill="#9795a1"/></g></g><circle cx="383.5" cy="158.5" fill="#fa9300" r="112.5"/><path d="m436 218.5h-105c-8.3 0-15-6.7-15-15 0-6 4.7-15 15-15h105c8.3 0 15 6.7 15 15 0 6-4.7 15-15 15z" fill="#ffb54d"/><path d="m406 158.5-22.5-52.5-22.5 52.5-37.5-30 7.5 60h105l7.5-60z" fill="#ffd61a"/><g><path d="m383.5 106.1c-2.4 0-7.5-1.7-7.5-7.6 0-4.1 3.4-7.5 7.5-7.5s7.5 3.4 7.5 7.5-3.4 7.6-7.5 7.6z" fill="#ffb54d"/></g><g><path d="m323.4 128.4c-1.7 1.7-6.5 4.1-10.7-.1-2.9-2.9-2.9-7.7 0-10.6s7.7-2.9 10.6 0c2.9 3 3 7.8.1 10.7z" fill="#ffb54d"/></g><g><path d="m443.6 128.4c1.7 1.7 6.5 4.1 10.7-.1 2.9-2.9 2.9-7.7 0-10.6s-7.7-2.9-10.6 0c-2.9 3-3 7.8-.1 10.7z" fill="#ffb54d"/></g></g></svg>