<svg width="233" height="97" viewBox="0 0 233 97" fill="none" xmlns="http://www.w3.org/2000/svg">
<rect width="233" height="97" rx="10" fill="white"/>
<path d="M110.207 30.1108H108.878C108.827 29.8267 108.732 29.5767 108.592 29.3608C108.453 29.1449 108.283 28.9616 108.081 28.8111C107.879 28.6605 107.653 28.5469 107.403 28.4702C107.156 28.3935 106.893 28.3551 106.615 28.3551C106.112 28.3551 105.662 28.4815 105.264 28.7344C104.869 28.9872 104.557 29.358 104.327 29.8466C104.099 30.3352 103.986 30.9318 103.986 31.6364C103.986 32.3466 104.099 32.946 104.327 33.4347C104.557 33.9233 104.871 34.2926 105.268 34.5426C105.666 34.7926 106.114 34.9176 106.611 34.9176C106.886 34.9176 107.148 34.8807 107.395 34.8068C107.645 34.7301 107.871 34.6179 108.072 34.4702C108.274 34.3224 108.445 34.142 108.584 33.929C108.726 33.7131 108.824 33.4659 108.878 33.1875L110.207 33.1918C110.136 33.6207 109.999 34.0156 109.794 34.3764C109.592 34.7344 109.332 35.044 109.014 35.3054C108.699 35.5639 108.338 35.7642 107.932 35.9062C107.526 36.0483 107.082 36.1193 106.602 36.1193C105.847 36.1193 105.173 35.9403 104.582 35.5824C103.991 35.2216 103.526 34.706 103.185 34.0355C102.847 33.3651 102.678 32.5653 102.678 31.6364C102.678 30.7045 102.848 29.9048 103.189 29.2372C103.53 28.5668 103.996 28.0526 104.587 27.6946C105.178 27.3338 105.849 27.1534 106.602 27.1534C107.065 27.1534 107.497 27.2202 107.898 27.3537C108.301 27.4844 108.663 27.6776 108.984 27.9332C109.305 28.1861 109.571 28.4957 109.781 28.8622C109.991 29.2259 110.134 29.642 110.207 30.1108ZM112.955 27.2727V36H111.681V27.2727H112.955ZM114.669 36V29.4545H115.943V36H114.669ZM115.312 28.4446C115.091 28.4446 114.901 28.3707 114.741 28.223C114.585 28.0724 114.507 27.8935 114.507 27.6861C114.507 27.4759 114.585 27.2969 114.741 27.1491C114.901 26.9986 115.091 26.9233 115.312 26.9233C115.534 26.9233 115.723 26.9986 115.879 27.1491C116.038 27.2969 116.118 27.4759 116.118 27.6861C116.118 27.8935 116.038 28.0724 115.879 28.223C115.723 28.3707 115.534 28.4446 115.312 28.4446ZM120.478 36.1321C119.833 36.1321 119.278 35.9943 118.812 35.7188C118.349 35.4403 117.991 35.0497 117.738 34.5469C117.488 34.0412 117.363 33.4489 117.363 32.7699C117.363 32.0994 117.488 31.5085 117.738 30.9972C117.991 30.4858 118.343 30.0866 118.795 29.7997C119.25 29.5128 119.781 29.3693 120.389 29.3693C120.758 29.3693 121.116 29.4304 121.463 29.5526C121.809 29.6747 122.12 29.8665 122.396 30.1278C122.672 30.3892 122.889 30.7287 123.048 31.1463C123.207 31.5611 123.287 32.0653 123.287 32.6591V33.1108H118.083V32.1562H122.038C122.038 31.821 121.97 31.5241 121.833 31.2656C121.697 31.0043 121.505 30.7983 121.258 30.6477C121.014 30.4972 120.727 30.4219 120.397 30.4219C120.039 30.4219 119.727 30.5099 119.46 30.6861C119.196 30.8594 118.991 31.0866 118.846 31.3679C118.704 31.6463 118.633 31.9489 118.633 32.2756V33.0213C118.633 33.4588 118.71 33.831 118.863 34.1378C119.02 34.4446 119.237 34.679 119.515 34.8409C119.794 35 120.119 35.0795 120.491 35.0795C120.733 35.0795 120.953 35.0455 121.152 34.9773C121.35 34.9062 121.522 34.8011 121.667 34.6619C121.812 34.5227 121.923 34.3509 122 34.1463L123.206 34.3636C123.109 34.7187 122.936 35.0298 122.686 35.2969C122.439 35.5611 122.127 35.767 121.752 35.9148C121.38 36.0597 120.956 36.1321 120.478 36.1321ZM125.974 32.1136V36H124.7V29.4545H125.923V30.5199H126.004C126.155 30.1733 126.391 29.8949 126.712 29.6847C127.036 29.4744 127.443 29.3693 127.935 29.3693C128.381 29.3693 128.771 29.4631 129.107 29.6506C129.442 29.8352 129.702 30.1108 129.886 30.4773C130.071 30.8437 130.163 31.2969 130.163 31.8366V36H128.889V31.9901C128.889 31.5156 128.766 31.1449 128.518 30.8778C128.271 30.608 127.932 30.473 127.5 30.473C127.205 30.473 126.942 30.5369 126.712 30.6648C126.484 30.7926 126.304 30.9801 126.17 31.2273C126.04 31.4716 125.974 31.767 125.974 32.1136ZM134.928 29.4545V30.4773H131.352V29.4545H134.928ZM132.311 27.8864H133.585V34.0781C133.585 34.3253 133.622 34.5114 133.696 34.6364C133.77 34.7585 133.865 34.8423 133.982 34.8878C134.101 34.9304 134.23 34.9517 134.369 34.9517C134.472 34.9517 134.561 34.9446 134.638 34.9304C134.714 34.9162 134.774 34.9048 134.817 34.8963L135.047 35.9489C134.973 35.9773 134.868 36.0057 134.732 36.0341C134.595 36.0653 134.425 36.0824 134.22 36.0852C133.885 36.0909 133.572 36.0312 133.283 35.9062C132.993 35.7812 132.759 35.5881 132.58 35.3267C132.401 35.0653 132.311 34.7372 132.311 34.3423V27.8864ZM141.136 31.0526L139.982 31.2571C139.933 31.1094 139.857 30.9687 139.751 30.8352C139.649 30.7017 139.51 30.5923 139.334 30.5071C139.158 30.4219 138.938 30.3793 138.673 30.3793C138.313 30.3793 138.011 30.4602 137.77 30.6222C137.528 30.7812 137.408 30.9872 137.408 31.2401C137.408 31.4588 137.489 31.6349 137.651 31.7685C137.813 31.902 138.074 32.0114 138.435 32.0966L139.474 32.3352C140.077 32.4744 140.526 32.6889 140.821 32.9787C141.116 33.2685 141.264 33.6449 141.264 34.108C141.264 34.5 141.151 34.8494 140.923 35.1562C140.699 35.4602 140.385 35.6989 139.982 35.8722C139.581 36.0455 139.116 36.1321 138.588 36.1321C137.855 36.1321 137.257 35.9759 136.794 35.6634C136.331 35.348 136.047 34.9006 135.942 34.321L137.173 34.1335C137.25 34.4545 137.408 34.6974 137.646 34.8622C137.885 35.0241 138.196 35.1051 138.58 35.1051C138.997 35.1051 139.331 35.0185 139.581 34.8452C139.831 34.669 139.956 34.4545 139.956 34.2017C139.956 33.9972 139.879 33.8253 139.726 33.6861C139.575 33.5469 139.344 33.4418 139.031 33.3707L137.923 33.1278C137.313 32.9886 136.861 32.767 136.568 32.4631C136.278 32.1591 136.134 31.7741 136.134 31.3082C136.134 30.9219 136.241 30.5838 136.457 30.294C136.673 30.0043 136.972 29.7784 137.352 29.6165C137.733 29.4517 138.169 29.3693 138.661 29.3693C139.368 29.3693 139.925 29.5227 140.331 29.8295C140.737 30.1335 141.006 30.5412 141.136 31.0526Z" fill="#1F1F1F"/>
<path d="M103.415 68V65.3409L109.628 59.5881C110.156 59.0767 110.599 58.6165 110.957 58.2074C111.321 57.7983 111.597 57.3977 111.784 57.0057C111.972 56.608 112.065 56.179 112.065 55.7188C112.065 55.2074 111.949 54.767 111.716 54.3977C111.483 54.0227 111.165 53.7358 110.761 53.5369C110.358 53.3324 109.901 53.2301 109.389 53.2301C108.855 53.2301 108.389 53.3381 107.991 53.554C107.594 53.7699 107.287 54.0795 107.071 54.483C106.855 54.8864 106.747 55.3665 106.747 55.9233H103.244C103.244 54.7812 103.503 53.7898 104.02 52.9489C104.537 52.108 105.261 51.4574 106.193 50.9972C107.125 50.5369 108.199 50.3068 109.415 50.3068C110.665 50.3068 111.753 50.5284 112.679 50.9716C113.611 51.4091 114.335 52.017 114.852 52.7955C115.369 53.5739 115.628 54.4659 115.628 55.4716C115.628 56.1307 115.497 56.7812 115.236 57.4233C114.98 58.0653 114.523 58.7784 113.864 59.5625C113.205 60.3409 112.276 61.2756 111.077 62.3665L108.528 64.8636V64.983H115.858V68H103.415ZM125.376 68.3835C123.91 68.3778 122.648 68.017 121.592 67.3011C120.54 66.5852 119.731 65.5483 119.163 64.1903C118.6 62.8324 118.322 61.1989 118.327 59.2898C118.327 57.3864 118.609 55.7642 119.171 54.4233C119.739 53.0824 120.549 52.0625 121.6 51.3636C122.657 50.6591 123.915 50.3068 125.376 50.3068C126.836 50.3068 128.092 50.6591 129.143 51.3636C130.2 52.0682 131.012 53.0909 131.58 54.4318C132.148 55.767 132.43 57.3864 132.424 59.2898C132.424 61.2045 132.14 62.8409 131.572 64.1989C131.009 65.5568 130.202 66.5937 129.151 67.3097C128.1 68.0256 126.842 68.3835 125.376 68.3835ZM125.376 65.3239C126.376 65.3239 127.174 64.821 127.771 63.8153C128.367 62.8097 128.663 61.3011 128.657 59.2898C128.657 57.9659 128.521 56.8636 128.248 55.983C127.981 55.1023 127.6 54.4403 127.106 53.9972C126.617 53.554 126.04 53.3324 125.376 53.3324C124.381 53.3324 123.586 53.8295 122.989 54.8239C122.393 55.8182 122.092 57.3068 122.086 59.2898C122.086 60.6307 122.219 61.75 122.487 62.6477C122.759 63.5398 123.143 64.2102 123.637 64.6591C124.131 65.1023 124.711 65.3239 125.376 65.3239ZM141.899 68.3835C140.433 68.3778 139.172 68.017 138.115 67.3011C137.064 66.5852 136.254 65.5483 135.686 64.1903C135.124 62.8324 134.845 61.1989 134.851 59.2898C134.851 57.3864 135.132 55.7642 135.695 54.4233C136.263 53.0824 137.072 52.0625 138.124 51.3636C139.18 50.6591 140.439 50.3068 141.899 50.3068C143.359 50.3068 144.615 50.6591 145.666 51.3636C146.723 52.0682 147.536 53.0909 148.104 54.4318C148.672 55.767 148.953 57.3864 148.947 59.2898C148.947 61.2045 148.663 62.8409 148.095 64.1989C147.533 65.5568 146.726 66.5937 145.675 67.3097C144.624 68.0256 143.365 68.3835 141.899 68.3835ZM141.899 65.3239C142.899 65.3239 143.697 64.821 144.294 63.8153C144.891 62.8097 145.186 61.3011 145.18 59.2898C145.18 57.9659 145.044 56.8636 144.771 55.983C144.504 55.1023 144.124 54.4403 143.629 53.9972C143.141 53.554 142.564 53.3324 141.899 53.3324C140.905 53.3324 140.109 53.8295 139.513 54.8239C138.916 55.8182 138.615 57.3068 138.609 59.2898C138.609 60.6307 138.743 61.75 139.01 62.6477C139.283 63.5398 139.666 64.2102 140.161 64.6591C140.655 65.1023 141.234 65.3239 141.899 65.3239ZM158.423 68.3835C156.957 68.3778 155.695 68.017 154.638 67.3011C153.587 66.5852 152.778 65.5483 152.21 64.1903C151.647 62.8324 151.369 61.1989 151.374 59.2898C151.374 57.3864 151.656 55.7642 152.218 54.4233C152.786 53.0824 153.596 52.0625 154.647 51.3636C155.704 50.6591 156.962 50.3068 158.423 50.3068C159.883 50.3068 161.138 50.6591 162.19 51.3636C163.246 52.0682 164.059 53.0909 164.627 54.4318C165.195 55.767 165.477 57.3864 165.471 59.2898C165.471 61.2045 165.187 62.8409 164.619 64.1989C164.056 65.5568 163.249 66.5937 162.198 67.3097C161.147 68.0256 159.888 68.3835 158.423 68.3835ZM158.423 65.3239C159.423 65.3239 160.221 64.821 160.817 63.8153C161.414 62.8097 161.71 61.3011 161.704 59.2898C161.704 57.9659 161.567 56.8636 161.295 55.983C161.028 55.1023 160.647 54.4403 160.153 53.9972C159.664 53.554 159.087 53.3324 158.423 53.3324C157.428 53.3324 156.633 53.8295 156.036 54.8239C155.44 55.8182 155.138 57.3068 155.133 59.2898C155.133 60.6307 155.266 61.75 155.533 62.6477C155.806 63.5398 156.19 64.2102 156.684 64.6591C157.178 65.1023 157.758 65.3239 158.423 65.3239ZM173.318 65.3409V53.2727H176.369V65.3409H173.318ZM168.81 60.8324V57.7812H180.878V60.8324H168.81Z" fill="#2769B3"/>
<circle cx="45" cy="48" r="29" fill="#5BA913"/>
<path fill-rule="evenodd" clip-rule="evenodd" d="M44.9178 46.0115C48.2346 46.0115 50.9235 43.3226 50.9235 40.0057C50.9235 36.6888 48.2346 34 44.9178 34C41.601 34 38.9121 36.6888 38.9121 40.0057C38.9121 43.3226 41.601 46.0115 44.9178 46.0115ZM44.9178 44.2098C47.2397 44.2098 49.1218 42.3275 49.1218 40.0057C49.1218 37.6839 47.2397 35.8017 44.9178 35.8017C42.5959 35.8017 40.7138 37.6839 40.7138 40.0057C40.7138 42.3275 42.5959 44.2098 44.9178 44.2098Z" fill="white"/>
<path fill-rule="evenodd" clip-rule="evenodd" d="M36.8103 43.9096C36.8103 46.3972 34.7937 48.4138 32.306 48.4138C29.8184 48.4138 27.8018 46.3972 27.8018 43.9096C27.8018 41.4219 29.8184 39.4053 32.306 39.4053C34.7937 39.4053 36.8103 41.4219 36.8103 43.9096ZM35.0086 43.9096C35.0086 45.4021 33.7986 46.6121 32.306 46.6121C30.8134 46.6121 29.6035 45.4021 29.6035 43.9096C29.6035 42.417 30.8134 41.207 32.306 41.207C33.7986 41.207 35.0086 42.417 35.0086 43.9096Z" fill="white"/>
<path fill-rule="evenodd" clip-rule="evenodd" d="M26 59.2238V55.6204C26 52.1377 28.8233 49.3144 32.306 49.3144C34.5128 49.3144 36.4548 50.448 37.5816 52.1645C38.8789 49.4151 41.6763 47.5127 44.918 47.5127C48.1596 47.5127 50.957 49.4151 52.2544 52.1645C53.3812 50.448 55.3232 49.3144 57.53 49.3144C61.0127 49.3144 63.836 52.1377 63.836 55.6204V59.2238C63.836 59.7213 63.4326 60.1247 62.9351 60.1247H26.9009C26.4033 60.1247 26 59.7213 26 59.2238ZM27.8017 55.6204C27.8017 53.1328 29.8184 51.1161 32.306 51.1161C34.7936 51.1161 36.8103 53.1328 36.8103 55.6204V58.323H27.8017V55.6204ZM62.0343 58.323V55.6204C62.0343 53.1328 60.0176 51.1161 57.53 51.1161C55.0424 51.1161 53.0257 53.1328 53.0257 55.6204V58.323H62.0343ZM51.224 58.323V55.6204C51.224 52.1377 48.4007 49.3144 44.918 49.3144C41.4353 49.3144 38.612 52.1377 38.612 55.6204V58.323H51.224Z" fill="white"/>
<path fill-rule="evenodd" clip-rule="evenodd" d="M62.034 43.9096C62.034 46.3972 60.0173 48.4138 57.5297 48.4138C55.042 48.4138 53.0254 46.3972 53.0254 43.9096C53.0254 41.4219 55.042 39.4053 57.5297 39.4053C60.0173 39.4053 62.034 41.4219 62.034 43.9096ZM60.2322 43.9096C60.2322 45.4021 59.0222 46.6121 57.5297 46.6121C56.0371 46.6121 54.8271 45.4021 54.8271 43.9096C54.8271 42.417 56.0371 41.207 57.5297 41.207C59.0222 41.207 60.2322 42.417 60.2322 43.9096Z" fill="white"/>
</svg>
