<svg width="201" height="121" viewBox="0 0 201 121" fill="none" xmlns="http://www.w3.org/2000/svg">
<rect width="201" height="121" rx="10" fill="white"/>
<rect x="108" y="100" width="7" height="7" fill="#5BA913"/>
<path d="M46.4244 100.909V106H45.5021V100.909H46.4244ZM48.1431 103.763V106H47.2433V102.182H48.1033V102.831H48.1481C48.2359 102.617 48.376 102.447 48.5682 102.321C48.7621 102.195 49.0015 102.132 49.2866 102.132C49.5501 102.132 49.7796 102.188 49.9751 102.301C50.1724 102.414 50.3248 102.577 50.4325 102.791C50.5419 103.005 50.5958 103.264 50.5941 103.569V106H49.6943V103.708C49.6943 103.453 49.628 103.253 49.4954 103.109C49.3645 102.965 49.183 102.893 48.951 102.893C48.7936 102.893 48.6535 102.928 48.5309 102.997C48.4099 103.065 48.3146 103.164 48.245 103.293C48.1771 103.422 48.1431 103.579 48.1431 103.763ZM54.6427 102.182L53.2829 106H52.2886L50.9289 102.182H51.8884L52.7659 105.018H52.8057L53.6856 102.182H54.6427ZM56.6858 106.075C56.303 106.075 55.9724 105.995 55.694 105.836C55.4172 105.675 55.2043 105.448 55.0551 105.155C54.906 104.86 54.8314 104.513 54.8314 104.113C54.8314 103.721 54.906 103.376 55.0551 103.079C55.2059 102.781 55.4164 102.549 55.6865 102.383C55.9567 102.216 56.274 102.132 56.6386 102.132C56.8739 102.132 57.096 102.17 57.3048 102.246C57.5153 102.321 57.7009 102.437 57.8616 102.594C58.024 102.752 58.1516 102.952 58.2444 103.196C58.3372 103.438 58.3836 103.726 58.3836 104.061V104.337H55.254V103.73H57.5211C57.5194 103.558 57.4821 103.405 57.4092 103.271C57.3363 103.135 57.2344 103.028 57.1034 102.95C56.9742 102.872 56.8234 102.833 56.651 102.833C56.4671 102.833 56.3055 102.878 56.1663 102.967C56.0271 103.055 55.9185 103.171 55.8407 103.315C55.7644 103.458 55.7255 103.614 55.7238 103.785V104.315C55.7238 104.537 55.7644 104.727 55.8456 104.886C55.9268 105.044 56.0403 105.165 56.1862 105.249C56.332 105.332 56.5027 105.374 56.6983 105.374C56.8292 105.374 56.9477 105.355 57.0537 105.319C57.1598 105.281 57.2518 105.225 57.3296 105.152C57.4075 105.079 57.4664 104.989 57.5061 104.881L58.3463 104.976C58.2933 105.198 58.1922 105.392 58.0431 105.558C57.8956 105.722 57.7067 105.849 57.4763 105.94C57.246 106.03 56.9825 106.075 56.6858 106.075ZM62.0227 103.191L61.2023 103.281C61.1791 103.198 61.1385 103.12 61.0805 103.047C61.0242 102.974 60.948 102.915 60.8518 102.87C60.7557 102.826 60.6381 102.803 60.4989 102.803C60.3116 102.803 60.1542 102.844 60.0266 102.925C59.9006 103.006 59.8385 103.112 59.8401 103.241C59.8385 103.352 59.8791 103.442 59.9619 103.512C60.0464 103.581 60.1856 103.638 60.3795 103.683L61.0308 103.822C61.3921 103.9 61.6606 104.024 61.8362 104.193C62.0135 104.362 62.103 104.583 62.1047 104.857C62.103 105.097 62.0326 105.309 61.8934 105.493C61.7558 105.675 61.5644 105.818 61.3192 105.92C61.0739 106.023 60.7922 106.075 60.474 106.075C60.0067 106.075 59.6305 105.977 59.3455 105.781C59.0604 105.584 58.8906 105.31 58.8359 104.958L59.7133 104.874C59.7531 105.046 59.8376 105.176 59.9669 105.264C60.0962 105.352 60.2644 105.396 60.4715 105.396C60.6853 105.396 60.8568 105.352 60.9861 105.264C61.117 105.176 61.1825 105.068 61.1825 104.939C61.1825 104.829 61.1402 104.739 61.0557 104.668C60.9728 104.596 60.8436 104.542 60.6679 104.504L60.0166 104.367C59.6504 104.291 59.3794 104.162 59.2038 103.982C59.0281 103.799 58.9411 103.569 58.9428 103.29C58.9411 103.055 59.0049 102.851 59.1342 102.679C59.2651 102.505 59.4465 102.371 59.6785 102.276C59.9122 102.18 60.1815 102.132 60.4864 102.132C60.9339 102.132 61.286 102.227 61.5429 102.418C61.8014 102.609 61.9613 102.866 62.0227 103.191ZM64.6133 102.182V102.878H62.4183V102.182H64.6133ZM62.9602 101.267H63.8601V104.852C63.8601 104.973 63.8783 105.065 63.9148 105.13C63.9529 105.193 64.0026 105.236 64.0639 105.259C64.1253 105.282 64.1932 105.294 64.2678 105.294C64.3241 105.294 64.3755 105.29 64.4219 105.282C64.47 105.273 64.5064 105.266 64.5313 105.259L64.6829 105.963C64.6348 105.979 64.5661 105.998 64.4766 106.017C64.3887 106.037 64.281 106.049 64.1534 106.052C63.928 106.059 63.725 106.025 63.5444 105.95C63.3638 105.874 63.2204 105.756 63.1144 105.597C63.01 105.438 62.9586 105.239 62.9602 105.001V101.267ZM66.8752 106.075C66.4924 106.075 66.1618 105.995 65.8834 105.836C65.6066 105.675 65.3937 105.448 65.2445 105.155C65.0954 104.86 65.0208 104.513 65.0208 104.113C65.0208 103.721 65.0954 103.376 65.2445 103.079C65.3953 102.781 65.6058 102.549 65.8759 102.383C66.146 102.216 66.4634 102.132 66.828 102.132C67.0633 102.132 67.2854 102.17 67.4942 102.246C67.7046 102.321 67.8902 102.437 68.051 102.594C68.2134 102.752 68.341 102.952 68.4338 103.196C68.5266 103.438 68.573 103.726 68.573 104.061V104.337H65.4434V103.73H67.7104C67.7088 103.558 67.6715 103.405 67.5986 103.271C67.5256 103.135 67.4237 103.028 67.2928 102.95C67.1636 102.872 67.0127 102.833 66.8404 102.833C66.6564 102.833 66.4949 102.878 66.3557 102.967C66.2165 103.055 66.1079 103.171 66.03 103.315C65.9538 103.458 65.9149 103.614 65.9132 103.785V104.315C65.9132 104.537 65.9538 104.727 66.035 104.886C66.1162 105.044 66.2297 105.165 66.3756 105.249C66.5214 105.332 66.6921 105.374 66.8876 105.374C67.0185 105.374 67.137 105.355 67.2431 105.319C67.3492 105.281 67.4411 105.225 67.519 105.152C67.5969 105.079 67.6557 104.989 67.6955 104.881L68.5357 104.976C68.4827 105.198 68.3816 105.392 68.2324 105.558C68.085 105.722 67.896 105.849 67.6657 105.94C67.4353 106.03 67.1718 106.075 66.8752 106.075ZM70.6112 106.067C70.3112 106.067 70.0428 105.99 69.8058 105.836C69.5688 105.682 69.3815 105.458 69.244 105.165C69.1064 104.871 69.0377 104.515 69.0377 104.096C69.0377 103.672 69.1073 103.314 69.2465 103.022C69.3873 102.729 69.5771 102.507 69.8157 102.358C70.0544 102.208 70.3203 102.132 70.6137 102.132C70.8374 102.132 71.0213 102.17 71.1655 102.246C71.3097 102.321 71.424 102.411 71.5085 102.517C71.5931 102.622 71.6585 102.72 71.7049 102.813H71.7422V100.909H72.6446V106H71.7596V105.398H71.7049C71.6585 105.491 71.5914 105.59 71.5036 105.694C71.4157 105.797 71.2997 105.885 71.1556 105.958C71.0114 106.031 70.8299 106.067 70.6112 106.067ZM70.8622 105.329C71.0528 105.329 71.2152 105.277 71.3495 105.175C71.4837 105.07 71.5856 104.925 71.6552 104.74C71.7248 104.554 71.7596 104.338 71.7596 104.091C71.7596 103.844 71.7248 103.629 71.6552 103.447C71.5873 103.265 71.4862 103.123 71.3519 103.022C71.2194 102.921 71.0561 102.87 70.8622 102.87C70.6617 102.87 70.4943 102.923 70.3601 103.027C70.2259 103.131 70.1248 103.276 70.0568 103.46C69.9889 103.643 69.9549 103.854 69.9549 104.091C69.9549 104.33 69.9889 104.542 70.0568 104.73C70.1264 104.915 70.2284 105.062 70.3626 105.17C70.4985 105.276 70.665 105.329 70.8622 105.329ZM75.7533 106H74.7689L76.5612 100.909H77.6997L79.4944 106H78.5101L77.1503 101.953H77.1106L75.7533 106ZM75.7856 104.004H78.4703V104.745H75.7856V104.004ZM79.9852 106V102.182H80.8453V102.831H80.89C80.9696 102.612 81.1013 102.441 81.2853 102.319C81.4692 102.194 81.6888 102.132 81.944 102.132C82.2025 102.132 82.4205 102.195 82.5978 102.321C82.7768 102.445 82.9027 102.615 82.9756 102.831H83.0154C83.0999 102.618 83.2424 102.449 83.4429 102.324C83.6451 102.196 83.8846 102.132 84.1613 102.132C84.5127 102.132 84.7994 102.243 85.0214 102.465C85.2435 102.687 85.3545 103.011 85.3545 103.437V106H84.4522V103.576C84.4522 103.339 84.3892 103.166 84.2633 103.057C84.1373 102.946 83.9832 102.89 83.8009 102.89C83.5838 102.89 83.4139 102.958 83.2913 103.094C83.1703 103.228 83.1099 103.403 83.1099 103.619V106H82.2274V103.539C82.2274 103.342 82.1677 103.184 82.0484 103.067C81.9308 102.949 81.7766 102.89 81.5861 102.89C81.4568 102.89 81.3391 102.923 81.2331 102.99C81.127 103.054 81.0425 103.146 80.9795 103.266C80.9166 103.383 80.8851 103.521 80.8851 103.678V106H79.9852ZM87.7929 106.075C87.42 106.075 87.0969 105.993 86.8235 105.828C86.55 105.664 86.3379 105.435 86.1871 105.14C86.0379 104.845 85.9634 104.5 85.9634 104.106C85.9634 103.711 86.0379 103.366 86.1871 103.069C86.3379 102.773 86.55 102.542 86.8235 102.378C87.0969 102.214 87.42 102.132 87.7929 102.132C88.1658 102.132 88.4889 102.214 88.7624 102.378C89.0358 102.542 89.2471 102.773 89.3963 103.069C89.5471 103.366 89.6225 103.711 89.6225 104.106C89.6225 104.5 89.5471 104.845 89.3963 105.14C89.2471 105.435 89.0358 105.664 88.7624 105.828C88.4889 105.993 88.1658 106.075 87.7929 106.075ZM87.7979 105.354C88.0001 105.354 88.1691 105.298 88.305 105.187C88.4409 105.074 88.542 104.924 88.6083 104.735C88.6762 104.546 88.7102 104.335 88.7102 104.103C88.7102 103.87 88.6762 103.658 88.6083 103.469C88.542 103.279 88.4409 103.127 88.305 103.015C88.1691 102.902 88.0001 102.846 87.7979 102.846C87.5907 102.846 87.4184 102.902 87.2808 103.015C87.145 103.127 87.043 103.279 86.9751 103.469C86.9088 103.658 86.8757 103.87 86.8757 104.103C86.8757 104.335 86.9088 104.546 86.9751 104.735C87.043 104.924 87.145 105.074 87.2808 105.187C87.4184 105.298 87.5907 105.354 87.7979 105.354ZM92.6798 104.394V102.182H93.5797V106H92.7072V105.321H92.6674C92.5812 105.535 92.4395 105.71 92.2423 105.846C92.0468 105.982 91.8056 106.05 91.519 106.05C91.2687 106.05 91.0475 105.994 90.8552 105.883C90.6647 105.77 90.5155 105.607 90.4078 105.393C90.3001 105.178 90.2462 104.918 90.2462 104.613V102.182H91.1461V104.474C91.1461 104.716 91.2124 104.908 91.3449 105.05C91.4775 105.193 91.6515 105.264 91.867 105.264C91.9995 105.264 92.128 105.232 92.2523 105.167C92.3766 105.103 92.4785 105.007 92.558 104.879C92.6392 104.75 92.6798 104.588 92.6798 104.394ZM95.2649 103.763V106H94.365V102.182H95.2251V102.831H95.2698C95.3577 102.617 95.4977 102.447 95.6899 102.321C95.8838 102.195 96.1233 102.132 96.4083 102.132C96.6718 102.132 96.9014 102.188 97.0969 102.301C97.2941 102.414 97.4466 102.577 97.5543 102.791C97.6637 103.005 97.7175 103.264 97.7159 103.569V106H96.816V103.708C96.816 103.453 96.7497 103.253 96.6171 103.109C96.4862 102.965 96.3048 102.893 96.0728 102.893C95.9153 102.893 95.7753 102.928 95.6527 102.997C95.5317 103.065 95.4364 103.164 95.3668 103.293C95.2988 103.422 95.2649 103.579 95.2649 103.763ZM100.397 102.182V102.878H98.2023V102.182H100.397ZM98.7442 101.267H99.644V104.852C99.644 104.973 99.6623 105.065 99.6987 105.13C99.7369 105.193 99.7866 105.236 99.8479 105.259C99.9092 105.282 99.9771 105.294 100.052 105.294C100.108 105.294 100.159 105.29 100.206 105.282C100.254 105.273 100.29 105.266 100.315 105.259L100.467 105.963C100.419 105.979 100.35 105.998 100.261 106.017C100.173 106.037 100.065 106.049 99.9374 106.052C99.712 106.059 99.509 106.025 99.3284 105.95C99.1477 105.874 99.0044 105.756 98.8983 105.597C98.7939 105.438 98.7425 105.239 98.7442 105.001V101.267Z" fill="#1F1F1F"/>
<rect x="35" y="100" width="7" height="7" fill="#2769B3"/>
<rect x="9" y="41.1309" width="8" height="36.4712" rx="2" fill="#2769B3"/>
<rect x="19" y="30.1045" width="8" height="47.4974" rx="2" fill="#5BA913"/>
<path d="M15.152 82.631H15.9361V85.6992C15.9347 85.9804 15.875 86.2226 15.7571 86.4257C15.6392 86.6274 15.4744 86.783 15.2628 86.8924C15.0526 87.0003 14.8075 87.0543 14.5277 87.0543C14.272 87.0543 14.0419 87.0088 13.8374 86.9179C13.6342 86.8256 13.473 86.6892 13.3537 86.5088C13.2344 86.3284 13.1747 86.104 13.1747 85.8355H13.9609C13.9624 85.9534 13.9879 86.055 14.0376 86.1402C14.0888 86.2255 14.1591 86.2908 14.2486 86.3362C14.3381 86.3817 14.4411 86.4044 14.5575 86.4044C14.6839 86.4044 14.7912 86.3782 14.8793 86.3256C14.9673 86.2716 15.0341 86.1921 15.0795 86.087C15.1264 85.9818 15.1506 85.8526 15.152 85.6992V82.631ZM17.5813 87.0607C17.374 87.0607 17.1872 87.0237 17.021 86.9499C16.8562 86.8746 16.7255 86.7638 16.6289 86.6175C16.5338 86.4712 16.4862 86.2908 16.4862 86.0763C16.4862 85.8916 16.5203 85.7389 16.5885 85.6182C16.6566 85.4975 16.7497 85.4009 16.8676 85.3284C16.9855 85.256 17.1183 85.2013 17.266 85.1644C17.4152 85.126 17.5693 85.0983 17.7284 85.0813C17.9201 85.0614 18.0757 85.0436 18.195 85.028C18.3143 85.011 18.401 84.9854 18.4549 84.9513C18.5103 84.9158 18.538 84.8611 18.538 84.7872V84.7745C18.538 84.6139 18.4904 84.4897 18.3953 84.4016C18.3001 84.3135 18.163 84.2695 17.984 84.2695C17.7951 84.2695 17.6453 84.3107 17.5345 84.3931C17.4251 84.4755 17.3512 84.5728 17.3129 84.685L16.5927 84.5827C16.6495 84.3838 16.7433 84.2176 16.874 84.0841C17.0046 83.9492 17.1644 83.8483 17.3534 83.7816C17.5423 83.7134 17.7511 83.6793 17.9798 83.6793C18.1375 83.6793 18.2944 83.6978 18.4507 83.7347C18.6069 83.7716 18.7497 83.8327 18.8789 83.9179C19.0082 84.0017 19.1119 84.1161 19.19 84.261C19.2696 84.4059 19.3093 84.587 19.3093 84.8043V86.9946H18.5679V86.5451H18.5423C18.4954 86.636 18.4294 86.7212 18.3441 86.8007C18.2603 86.8789 18.1545 86.9421 18.0267 86.9904C17.9002 87.0372 17.7518 87.0607 17.5813 87.0607ZM17.7816 86.4939C17.9365 86.4939 18.0707 86.4634 18.1843 86.4023C18.298 86.3398 18.3853 86.2574 18.4464 86.1551C18.5089 86.0529 18.5402 85.9414 18.5402 85.8206V85.435C18.516 85.4549 18.4748 85.4733 18.4166 85.4904C18.3598 85.5074 18.2958 85.5223 18.2248 85.5351C18.1538 85.5479 18.0835 85.5593 18.0139 85.5692C17.9443 85.5791 17.8839 85.5877 17.8328 85.5948C17.7177 85.6104 17.6147 85.636 17.5238 85.6715C17.4329 85.707 17.3612 85.7567 17.3086 85.8206C17.2561 85.8831 17.2298 85.9641 17.2298 86.0635C17.2298 86.2056 17.2816 86.3128 17.3853 86.3853C17.489 86.4577 17.6211 86.4939 17.7816 86.4939ZM20.7362 85.077V86.9946H19.9649V83.7219H20.7021V84.278H20.7405C20.8158 84.0948 20.9358 83.9492 21.1006 83.8412C21.2667 83.7333 21.472 83.6793 21.7163 83.6793C21.9422 83.6793 22.1389 83.7276 22.3065 83.8242C22.4756 83.9208 22.6062 84.0607 22.6986 84.2439C22.7923 84.4272 22.8385 84.6495 22.8371 84.9108V86.9946H22.0658V85.0301C22.0658 84.8114 22.0089 84.6402 21.8953 84.5166C21.7831 84.3931 21.6275 84.3313 21.4287 84.3313C21.2937 84.3313 21.1737 84.3611 21.0686 84.4208C20.9649 84.479 20.8832 84.5635 20.8236 84.6743C20.7653 84.7851 20.7362 84.9193 20.7362 85.077Z" fill="#6E6363"/>
<rect x="37" y="46.2197" width="8" height="31.3822" rx="2" fill="#2769B3"/>
<rect x="47" y="35.1938" width="8" height="42.4084" rx="2" fill="#5BA913"/>
<path d="M40.4304 86.9946V82.631H43.2259V83.2936H41.2209V84.4783H43.0341V85.1409H41.2209V86.9946H40.4304ZM45.0006 87.0585C44.6724 87.0585 44.3891 86.9904 44.1504 86.854C43.9132 86.7162 43.7307 86.5216 43.6028 86.2702C43.475 86.0174 43.4111 85.7198 43.4111 85.3774C43.4111 85.0408 43.475 84.7453 43.6028 84.4911C43.7321 84.2354 43.9125 84.0365 44.144 83.8945C44.3756 83.751 44.6476 83.6793 44.9601 83.6793C45.1618 83.6793 45.3521 83.712 45.5311 83.7773C45.7115 83.8412 45.8706 83.9407 46.0084 84.0756C46.1476 84.2105 46.257 84.3824 46.3365 84.5912C46.416 84.7986 46.4558 85.0458 46.4558 85.3327V85.5692H43.7733V85.0493H45.7165C45.715 84.9016 45.6831 84.7702 45.6206 84.6551C45.5581 84.5387 45.4707 84.447 45.3585 84.3803C45.2477 84.3135 45.1185 84.2801 44.9707 84.2801C44.8131 84.2801 44.6746 84.3185 44.5552 84.3952C44.4359 84.4705 44.3429 84.5699 44.2761 84.6935C44.2108 84.8157 44.1774 84.9499 44.176 85.0962V85.55C44.176 85.7404 44.2108 85.9037 44.2804 86.0401C44.35 86.175 44.4473 86.2787 44.5723 86.3512C44.6973 86.4222 44.8436 86.4577 45.0112 86.4577C45.1234 86.4577 45.225 86.4421 45.3159 86.4108C45.4068 86.3782 45.4856 86.3306 45.5524 86.2681C45.6192 86.2056 45.6696 86.1282 45.7037 86.0358L46.4239 86.1168C46.3784 86.3071 46.2918 86.4733 46.1639 86.6154C46.0375 86.756 45.8756 86.8654 45.6781 86.9435C45.4807 87.0202 45.2548 87.0585 45.0006 87.0585ZM47.0224 86.9946V82.631H47.7937V84.2631H47.8257C47.8655 84.1835 47.9216 84.099 47.994 84.0095C48.0665 83.9186 48.1645 83.8412 48.2881 83.7773C48.4116 83.712 48.5693 83.6793 48.7611 83.6793C49.0139 83.6793 49.2419 83.7439 49.445 83.8732C49.6496 84.001 49.8115 84.1907 49.9308 84.4421C50.0515 84.6921 50.1119 84.9989 50.1119 85.3625C50.1119 85.7219 50.053 86.0273 49.9351 86.2787C49.8172 86.5301 49.6567 86.7219 49.4535 86.854C49.2504 86.9861 49.0203 87.0522 48.7632 87.0522C48.5757 87.0522 48.4202 87.0209 48.2966 86.9584C48.173 86.8959 48.0736 86.8206 47.9983 86.7326C47.9244 86.6431 47.8669 86.5585 47.8257 86.479H47.781V86.9946H47.0224ZM47.7788 85.3583C47.7788 85.5699 47.8087 85.7553 47.8683 85.9144C47.9294 86.0735 48.0167 86.1978 48.1304 86.2872C48.2454 86.3753 48.3846 86.4193 48.548 86.4193C48.7185 86.4193 48.8612 86.3739 48.9763 86.283C49.0913 86.1907 49.178 86.0649 49.2362 85.9059C49.2959 85.7453 49.3257 85.5628 49.3257 85.3583C49.3257 85.1551 49.2966 84.9747 49.2383 84.8171C49.1801 84.6594 49.0935 84.5358 48.9784 84.4463C48.8633 84.3568 48.7199 84.3121 48.548 84.3121C48.3832 84.3121 48.2433 84.3554 48.1283 84.4421C48.0132 84.5287 47.9258 84.6502 47.8662 84.8064C47.8079 84.9627 47.7788 85.1466 47.7788 85.3583Z" fill="#6E6363"/>
<rect x="64" y="50.4609" width="8" height="27.1414" rx="2" fill="#2769B3"/>
<rect x="74" y="24.1675" width="8" height="53.4346" rx="2" fill="#5BA913"/>
<path d="M67.4304 82.631H68.3977L69.6932 85.7929H69.7443L71.0398 82.631H72.0071V86.9946H71.2486V83.9968H71.2081L70.0021 86.9818H69.4354L68.2294 83.9904H68.1889V86.9946H67.4304V82.631ZM73.6556 87.0607C73.4482 87.0607 73.2614 87.0237 73.0952 86.9499C72.9304 86.8746 72.7997 86.7638 72.7032 86.6175C72.608 86.4712 72.5604 86.2908 72.5604 86.0763C72.5604 85.8916 72.5945 85.7389 72.6627 85.6182C72.7309 85.4975 72.8239 85.4009 72.9418 85.3284C73.0597 85.256 73.1925 85.2013 73.3402 85.1644C73.4894 85.126 73.6435 85.0983 73.8026 85.0813C73.9943 85.0614 74.1499 85.0436 74.2692 85.028C74.3885 85.011 74.4752 84.9854 74.5291 84.9513C74.5845 84.9158 74.6122 84.8611 74.6122 84.7872V84.7745C74.6122 84.6139 74.5647 84.4897 74.4695 84.4016C74.3743 84.3135 74.2372 84.2695 74.0583 84.2695C73.8693 84.2695 73.7195 84.3107 73.6087 84.3931C73.4993 84.4755 73.4255 84.5728 73.3871 84.685L72.6669 84.5827C72.7238 84.3838 72.8175 84.2176 72.9482 84.0841C73.0789 83.9492 73.2387 83.8483 73.4276 83.7816C73.6165 83.7134 73.8253 83.6793 74.054 83.6793C74.2117 83.6793 74.3686 83.6978 74.5249 83.7347C74.6811 83.7716 74.8239 83.8327 74.9532 83.9179C75.0824 84.0017 75.1861 84.1161 75.2642 84.261C75.3438 84.4059 75.3836 84.587 75.3836 84.8043V86.9946H74.6421V86.5451H74.6165C74.5696 86.636 74.5036 86.7212 74.4184 86.8007C74.3345 86.8789 74.2287 86.9421 74.1009 86.9904C73.9745 87.0372 73.826 87.0607 73.6556 87.0607ZM73.8559 86.4939C74.0107 86.4939 74.1449 86.4634 74.2586 86.4023C74.3722 86.3398 74.4595 86.2574 74.5206 86.1551C74.5831 86.0529 74.6144 85.9414 74.6144 85.8206V85.435C74.5902 85.4549 74.549 85.4733 74.4908 85.4904C74.434 85.5074 74.3701 85.5223 74.299 85.5351C74.228 85.5479 74.1577 85.5593 74.0881 85.5692C74.0185 85.5791 73.9581 85.5877 73.907 85.5948C73.7919 85.6104 73.6889 85.636 73.598 85.6715C73.5071 85.707 73.4354 85.7567 73.3828 85.8206C73.3303 85.8831 73.304 85.9641 73.304 86.0635C73.304 86.2056 73.3559 86.3128 73.4595 86.3853C73.5632 86.4577 73.6953 86.4939 73.8559 86.4939ZM76.0391 86.9946V83.7219H76.787V84.2674H76.8211C76.8807 84.0784 76.983 83.9328 77.1279 83.8306C77.2742 83.7269 77.4411 83.675 77.6286 83.675C77.6712 83.675 77.7188 83.6772 77.7714 83.6814C77.8253 83.6843 77.8701 83.6892 77.9056 83.6963V84.4059C77.8729 84.3945 77.8211 84.3845 77.7501 84.376C77.6805 84.3661 77.613 84.3611 77.5476 84.3611C77.407 84.3611 77.2806 84.3916 77.1684 84.4527C77.0576 84.5124 76.9702 84.5955 76.9063 84.702C76.8424 84.8085 76.8104 84.9314 76.8104 85.0706V86.9946H76.0391Z" fill="#6E6363"/>
<rect x="91" y="41.1309" width="8" height="36.4712" rx="2" fill="#2769B3"/>
<rect x="101" y="35.1938" width="8" height="42.4084" rx="2" fill="#5BA913"/>
<path d="M94.9908 86.9946H94.147L95.6832 82.631H96.6591L98.1974 86.9946H97.3537L96.1882 83.5259H96.1541L94.9908 86.9946ZM95.0185 85.2837H97.3196V85.9186H95.0185V85.2837ZM98.6181 88.2219V83.7219H99.3766V84.2631H99.4214C99.4611 84.1835 99.5173 84.099 99.5897 84.0095C99.6621 83.9186 99.7601 83.8412 99.8837 83.7773C100.007 83.712 100.165 83.6793 100.357 83.6793C100.61 83.6793 100.838 83.7439 101.041 83.8732C101.245 84.001 101.407 84.1907 101.526 84.4421C101.647 84.6921 101.708 84.9989 101.708 85.3625C101.708 85.7219 101.649 86.0273 101.531 86.2787C101.413 86.5301 101.252 86.7219 101.049 86.854C100.846 86.9861 100.616 87.0522 100.359 87.0522C100.171 87.0522 100.016 87.0209 99.8923 86.9584C99.7687 86.8959 99.6692 86.8206 99.594 86.7326C99.5201 86.6431 99.4626 86.5585 99.4214 86.479H99.3894V88.2219H98.6181ZM99.3745 85.3583C99.3745 85.5699 99.4043 85.7553 99.464 85.9144C99.5251 86.0735 99.6124 86.1978 99.7261 86.2872C99.8411 86.3753 99.9803 86.4193 100.144 86.4193C100.314 86.4193 100.457 86.3739 100.572 86.283C100.687 86.1907 100.774 86.0649 100.832 85.9059C100.892 85.7453 100.921 85.5628 100.921 85.3583C100.921 85.1551 100.892 84.9747 100.834 84.8171C100.776 84.6594 100.689 84.5358 100.574 84.4463C100.459 84.3568 100.316 84.3121 100.144 84.3121C99.9789 84.3121 99.839 84.3554 99.7239 84.4421C99.6089 84.5287 99.5215 84.6502 99.4619 84.8064C99.4036 84.9627 99.3745 85.1466 99.3745 85.3583ZM102.248 86.9946V83.7219H102.996V84.2674H103.03C103.09 84.0784 103.192 83.9328 103.337 83.8306C103.483 83.7269 103.65 83.675 103.838 83.675C103.88 83.675 103.928 83.6772 103.98 83.6814C104.034 83.6843 104.079 83.6892 104.115 83.6963V84.4059C104.082 84.3945 104.03 84.3845 103.959 84.376C103.889 84.3661 103.822 84.3611 103.757 84.3611C103.616 84.3611 103.49 84.3916 103.377 84.4527C103.267 84.5124 103.179 84.5955 103.115 84.702C103.051 84.8085 103.019 84.9314 103.019 85.0706V86.9946H102.248Z" fill="#6E6363"/>
<rect x="118" y="33.4976" width="8" height="44.1047" rx="2" fill="#2769B3"/>
<rect x="128" y="16.5342" width="8" height="61.0681" rx="2" fill="#5BA913"/>
<path d="M121.43 82.631H122.398L123.693 85.7929H123.744L125.04 82.631H126.007V86.9946H125.249V83.9968H125.208L124.002 86.9818H123.435L122.229 83.9904H122.189V86.9946H121.43V82.631ZM127.656 87.0607C127.448 87.0607 127.261 87.0237 127.095 86.9499C126.93 86.8746 126.8 86.7638 126.703 86.6175C126.608 86.4712 126.56 86.2908 126.56 86.0763C126.56 85.8916 126.594 85.7389 126.663 85.6182C126.731 85.4975 126.824 85.4009 126.942 85.3284C127.06 85.256 127.193 85.2013 127.34 85.1644C127.489 85.126 127.643 85.0983 127.803 85.0813C127.994 85.0614 128.15 85.0436 128.269 85.028C128.389 85.011 128.475 84.9854 128.529 84.9513C128.585 84.9158 128.612 84.8611 128.612 84.7872V84.7745C128.612 84.6139 128.565 84.4897 128.469 84.4016C128.374 84.3135 128.237 84.2695 128.058 84.2695C127.869 84.2695 127.719 84.3107 127.609 84.3931C127.499 84.4755 127.425 84.5728 127.387 84.685L126.667 84.5827C126.724 84.3838 126.818 84.2176 126.948 84.0841C127.079 83.9492 127.239 83.8483 127.428 83.7816C127.617 83.7134 127.825 83.6793 128.054 83.6793C128.212 83.6793 128.369 83.6978 128.525 83.7347C128.681 83.7716 128.824 83.8327 128.953 83.9179C129.082 84.0017 129.186 84.1161 129.264 84.261C129.344 84.4059 129.384 84.587 129.384 84.8043V86.9946H128.642V86.5451H128.617C128.57 86.636 128.504 86.7212 128.418 86.8007C128.335 86.8789 128.229 86.9421 128.101 86.9904C127.974 87.0372 127.826 87.0607 127.656 87.0607ZM127.856 86.4939C128.011 86.4939 128.145 86.4634 128.259 86.4023C128.372 86.3398 128.46 86.2574 128.521 86.1551C128.583 86.0529 128.614 85.9414 128.614 85.8206V85.435C128.59 85.4549 128.549 85.4733 128.491 85.4904C128.434 85.5074 128.37 85.5223 128.299 85.5351C128.228 85.5479 128.158 85.5593 128.088 85.5692C128.018 85.5791 127.958 85.5877 127.907 85.5948C127.792 85.6104 127.689 85.636 127.598 85.6715C127.507 85.707 127.435 85.7567 127.383 85.8206C127.33 85.8831 127.304 85.9641 127.304 86.0635C127.304 86.2056 127.356 86.3128 127.46 86.3853C127.563 86.4577 127.695 86.4939 127.856 86.4939ZM130.401 88.2219C130.296 88.2219 130.199 88.2134 130.109 88.1963C130.021 88.1807 129.951 88.1622 129.898 88.1409L130.077 87.5401C130.19 87.5728 130.29 87.5884 130.378 87.587C130.466 87.5855 130.543 87.5578 130.61 87.5039C130.678 87.4513 130.736 87.3632 130.783 87.2397L130.849 87.0628L129.662 83.7219H130.48L131.234 86.1935H131.269L132.025 83.7219H132.845L131.535 87.3909C131.474 87.5642 131.393 87.7127 131.292 87.8362C131.191 87.9612 131.068 88.0564 130.921 88.1218C130.776 88.1885 130.603 88.2219 130.401 88.2219Z" fill="#6E6363"/>
<rect x="145" y="33.4976" width="8" height="44.1047" rx="2" fill="#2769B3"/>
<rect x="155" y="16.5342" width="8" height="61.0681" rx="2" fill="#5BA913"/>
<path d="M149.152 82.631H149.936V85.6992C149.935 85.9804 149.875 86.2226 149.757 86.4257C149.639 86.6274 149.474 86.783 149.263 86.8924C149.053 87.0003 148.808 87.0543 148.528 87.0543C148.272 87.0543 148.042 87.0088 147.837 86.9179C147.634 86.8256 147.473 86.6892 147.354 86.5088C147.234 86.3284 147.175 86.104 147.175 85.8355H147.961C147.962 85.9534 147.988 86.055 148.038 86.1402C148.089 86.2255 148.159 86.2908 148.249 86.3362C148.338 86.3817 148.441 86.4044 148.558 86.4044C148.684 86.4044 148.791 86.3782 148.879 86.3256C148.967 86.2716 149.034 86.1921 149.08 86.087C149.126 85.9818 149.151 85.8526 149.152 85.6992V82.631ZM152.726 85.6182V83.7219H153.497V86.9946H152.749V86.413H152.715C152.641 86.5962 152.52 86.746 152.351 86.8625C152.183 86.979 151.976 87.0372 151.73 87.0372C151.516 87.0372 151.326 86.9897 151.162 86.8945C150.998 86.7979 150.87 86.658 150.778 86.4747C150.686 86.2901 150.64 86.0671 150.64 85.8057V83.7219H151.411V85.6864C151.411 85.8938 151.468 86.0585 151.581 86.1807C151.695 86.3029 151.844 86.3639 152.029 86.3639C152.142 86.3639 152.253 86.3362 152.359 86.2809C152.466 86.2255 152.553 86.1431 152.621 86.0337C152.691 85.9229 152.726 85.7844 152.726 85.6182ZM154.941 85.077V86.9946H154.17V83.7219H154.907V84.278H154.946C155.021 84.0948 155.141 83.9492 155.306 83.8412C155.472 83.7333 155.677 83.6793 155.921 83.6793C156.147 83.6793 156.344 83.7276 156.512 83.8242C156.681 83.9208 156.811 84.0607 156.904 84.2439C156.997 84.4272 157.044 84.6495 157.042 84.9108V86.9946H156.271V85.0301C156.271 84.8114 156.214 84.6402 156.1 84.5166C155.988 84.3931 155.833 84.3313 155.634 84.3313C155.499 84.3313 155.379 84.3611 155.274 84.4208C155.17 84.479 155.088 84.5635 155.029 84.6743C154.97 84.7851 154.941 84.9193 154.941 85.077ZM159.155 87.0585C158.827 87.0585 158.544 86.9904 158.305 86.854C158.068 86.7162 157.885 86.5216 157.757 86.2702C157.63 86.0174 157.566 85.7198 157.566 85.3774C157.566 85.0408 157.63 84.7453 157.757 84.4911C157.887 84.2354 158.067 84.0365 158.299 83.8945C158.53 83.751 158.802 83.6793 159.115 83.6793C159.316 83.6793 159.507 83.712 159.686 83.7773C159.866 83.8412 160.025 83.9407 160.163 84.0756C160.302 84.2105 160.411 84.3824 160.491 84.5912C160.571 84.7986 160.61 85.0458 160.61 85.3327V85.5692H157.928V85.0493H159.871C159.87 84.9016 159.838 84.7702 159.775 84.6551C159.713 84.5387 159.625 84.447 159.513 84.3803C159.402 84.3135 159.273 84.2801 159.125 84.2801C158.968 84.2801 158.829 84.3185 158.71 84.3952C158.59 84.4705 158.497 84.5699 158.431 84.6935C158.365 84.8157 158.332 84.9499 158.331 85.0962V85.55C158.331 85.7404 158.365 85.9037 158.435 86.0401C158.505 86.175 158.602 86.2787 158.727 86.3512C158.852 86.4222 158.998 86.4577 159.166 86.4577C159.278 86.4577 159.38 86.4421 159.47 86.4108C159.561 86.3782 159.64 86.3306 159.707 86.2681C159.774 86.2056 159.824 86.1282 159.858 86.0358L160.578 86.1168C160.533 86.3071 160.446 86.4733 160.318 86.6154C160.192 86.756 160.03 86.8654 159.833 86.9435C159.635 87.0202 159.409 87.0585 159.155 87.0585Z" fill="#6E6363"/>
<rect x="171" y="33.4976" width="9" height="44.1047" rx="2" fill="#2769B3"/>
<rect x="182" y="16.5342" width="9" height="61.0681" rx="2" fill="#5BA913"/>
<path d="M177.152 82.631H177.936V85.6992C177.935 85.9804 177.875 86.2226 177.757 86.4257C177.639 86.6274 177.474 86.783 177.263 86.8924C177.053 87.0003 176.808 87.0543 176.528 87.0543C176.272 87.0543 176.042 87.0088 175.837 86.9179C175.634 86.8256 175.473 86.6892 175.354 86.5088C175.234 86.3284 175.175 86.104 175.175 85.8355H175.961C175.962 85.9534 175.988 86.055 176.038 86.1402C176.089 86.2255 176.159 86.2908 176.249 86.3362C176.338 86.3817 176.441 86.4044 176.558 86.4044C176.684 86.4044 176.791 86.3782 176.879 86.3256C176.967 86.2716 177.034 86.1921 177.08 86.087C177.126 85.9818 177.151 85.8526 177.152 85.6992V82.631ZM180.726 85.6182V83.7219H181.497V86.9946H180.749V86.413H180.715C180.641 86.5962 180.52 86.746 180.351 86.8625C180.183 86.979 179.976 87.0372 179.73 87.0372C179.516 87.0372 179.326 86.9897 179.162 86.8945C178.998 86.7979 178.87 86.658 178.778 86.4747C178.686 86.2901 178.64 86.0671 178.64 85.8057V83.7219H179.411V85.6864C179.411 85.8938 179.468 86.0585 179.581 86.1807C179.695 86.3029 179.844 86.3639 180.029 86.3639C180.142 86.3639 180.253 86.3362 180.359 86.2809C180.466 86.2255 180.553 86.1431 180.621 86.0337C180.691 85.9229 180.726 85.7844 180.726 85.6182ZM182.941 82.631V86.9946H182.17V82.631H182.941ZM184.094 88.2219C183.989 88.2219 183.891 88.2134 183.802 88.1963C183.714 88.1807 183.644 88.1622 183.591 88.1409L183.77 87.5401C183.882 87.5728 183.982 87.5884 184.07 87.587C184.158 87.5855 184.236 87.5578 184.303 87.5039C184.371 87.4513 184.428 87.3632 184.475 87.2397L184.541 87.0628L183.354 83.7219H184.173L184.927 86.1935H184.961L185.717 83.7219H186.538L185.227 87.3909C185.166 87.5642 185.085 87.7127 184.984 87.8362C184.884 87.9612 184.76 88.0564 184.614 88.1218C184.469 88.1885 184.296 88.2219 184.094 88.2219Z" fill="#6E6363"/>
<path d="M119.502 107V101.909H122.763V102.682H120.424V104.064H122.54V104.837H120.424V107H119.502ZM123.424 107V103.182H124.324V107H123.424ZM123.876 102.64C123.734 102.64 123.611 102.593 123.508 102.498C123.406 102.402 123.354 102.287 123.354 102.153C123.354 102.017 123.406 101.902 123.508 101.807C123.611 101.711 123.734 101.663 123.876 101.663C124.021 101.663 124.143 101.711 124.244 101.807C124.347 101.902 124.398 102.017 124.398 102.153C124.398 102.287 124.347 102.402 124.244 102.498C124.143 102.593 124.021 102.64 123.876 102.64ZM126.009 104.763V107H125.109V103.182H125.969V103.831H126.014C126.102 103.617 126.242 103.447 126.434 103.321C126.628 103.195 126.867 103.132 127.152 103.132C127.416 103.132 127.645 103.188 127.841 103.301C128.038 103.414 128.191 103.577 128.298 103.791C128.408 104.005 128.462 104.264 128.46 104.569V107H127.56V104.708C127.56 104.453 127.494 104.253 127.361 104.109C127.23 103.965 127.049 103.893 126.817 103.893C126.659 103.893 126.519 103.928 126.397 103.997C126.276 104.065 126.18 104.164 126.111 104.293C126.043 104.422 126.009 104.579 126.009 104.763ZM130.333 107.077C130.092 107.077 129.874 107.034 129.68 106.948C129.487 106.86 129.335 106.731 129.222 106.56C129.111 106.389 129.056 106.179 129.056 105.929C129.056 105.713 129.096 105.535 129.175 105.394C129.255 105.253 129.363 105.141 129.501 105.056C129.638 104.972 129.793 104.908 129.966 104.865C130.14 104.82 130.319 104.788 130.505 104.768C130.729 104.745 130.91 104.724 131.049 104.706C131.189 104.686 131.29 104.656 131.353 104.616C131.417 104.575 131.45 104.511 131.45 104.425V104.41C131.45 104.223 131.394 104.078 131.283 103.975C131.172 103.872 131.012 103.821 130.803 103.821C130.583 103.821 130.408 103.869 130.279 103.965C130.151 104.061 130.065 104.174 130.02 104.305L129.18 104.186C129.246 103.954 129.356 103.76 129.508 103.604C129.661 103.447 129.847 103.329 130.067 103.251C130.288 103.172 130.531 103.132 130.798 103.132C130.982 103.132 131.165 103.154 131.348 103.197C131.53 103.24 131.697 103.311 131.847 103.411C131.998 103.508 132.119 103.642 132.21 103.811C132.303 103.98 132.349 104.191 132.349 104.445V107H131.484V106.475H131.455C131.4 106.582 131.323 106.681 131.223 106.774C131.126 106.865 131.002 106.939 130.853 106.995C130.706 107.05 130.532 107.077 130.333 107.077ZM130.567 106.416C130.748 106.416 130.904 106.38 131.037 106.309C131.17 106.236 131.271 106.14 131.343 106.021C131.416 105.901 131.452 105.771 131.452 105.63V105.18C131.424 105.204 131.376 105.225 131.308 105.245C131.242 105.265 131.167 105.282 131.084 105.297C131.001 105.312 130.919 105.325 130.838 105.337C130.757 105.349 130.686 105.359 130.627 105.367C130.493 105.385 130.372 105.415 130.266 105.456C130.16 105.498 130.077 105.556 130.015 105.63C129.954 105.703 129.923 105.798 129.923 105.914C129.923 106.079 129.984 106.205 130.105 106.289C130.226 106.374 130.38 106.416 130.567 106.416ZM134.014 101.909V107H133.114V101.909H134.014ZM137.117 101.909L138.442 105.916H138.494L139.816 101.909H140.83L139.036 107H137.897L136.105 101.909H137.117ZM142.023 107.077C141.782 107.077 141.564 107.034 141.37 106.948C141.177 106.86 141.025 106.731 140.912 106.56C140.801 106.389 140.746 106.179 140.746 105.929C140.746 105.713 140.786 105.535 140.865 105.394C140.945 105.253 141.053 105.141 141.191 105.056C141.328 104.972 141.483 104.908 141.656 104.865C141.83 104.82 142.009 104.788 142.195 104.768C142.419 104.745 142.6 104.724 142.739 104.706C142.879 104.686 142.98 104.656 143.043 104.616C143.107 104.575 143.14 104.511 143.14 104.425V104.41C143.14 104.223 143.084 104.078 142.973 103.975C142.862 103.872 142.702 103.821 142.493 103.821C142.273 103.821 142.098 103.869 141.969 103.965C141.841 104.061 141.755 104.174 141.71 104.305L140.87 104.186C140.936 103.954 141.046 103.76 141.198 103.604C141.351 103.447 141.537 103.329 141.757 103.251C141.978 103.172 142.221 103.132 142.488 103.132C142.672 103.132 142.855 103.154 143.038 103.197C143.22 103.24 143.387 103.311 143.537 103.411C143.688 103.508 143.809 103.642 143.9 103.811C143.993 103.98 144.039 104.191 144.039 104.445V107H143.174V106.475H143.145C143.09 106.582 143.013 106.681 142.913 106.774C142.816 106.865 142.692 106.939 142.543 106.995C142.396 107.05 142.222 107.077 142.023 107.077ZM142.257 106.416C142.438 106.416 142.594 106.38 142.727 106.309C142.86 106.236 142.961 106.14 143.033 106.021C143.106 105.901 143.142 105.771 143.142 105.63V105.18C143.114 105.204 143.066 105.225 142.998 105.245C142.932 105.265 142.857 105.282 142.774 105.297C142.691 105.312 142.609 105.325 142.528 105.337C142.447 105.349 142.376 105.359 142.317 105.367C142.183 105.385 142.062 105.415 141.956 105.456C141.85 105.498 141.767 105.556 141.705 105.63C141.644 105.703 141.613 105.798 141.613 105.914C141.613 106.079 141.674 106.205 141.795 106.289C141.916 106.374 142.07 106.416 142.257 106.416ZM145.704 101.909V107H144.804V101.909H145.704ZM148.923 105.394V103.182H149.823V107H148.95V106.321H148.911C148.824 106.535 148.683 106.71 148.486 106.846C148.29 106.982 148.049 107.05 147.762 107.05C147.512 107.05 147.291 106.994 147.098 106.883C146.908 106.77 146.759 106.607 146.651 106.393C146.543 106.178 146.489 105.918 146.489 105.613V103.182H147.389V105.474C147.389 105.716 147.456 105.908 147.588 106.05C147.721 106.193 147.895 106.264 148.11 106.264C148.243 106.264 148.371 106.232 148.496 106.167C148.62 106.103 148.722 106.007 148.801 105.879C148.882 105.75 148.923 105.588 148.923 105.394ZM152.299 107.075C151.916 107.075 151.585 106.995 151.307 106.836C151.03 106.675 150.817 106.448 150.668 106.155C150.519 105.86 150.444 105.513 150.444 105.113C150.444 104.721 150.519 104.376 150.668 104.079C150.819 103.781 151.029 103.549 151.299 103.383C151.569 103.216 151.887 103.132 152.251 103.132C152.487 103.132 152.709 103.17 152.918 103.246C153.128 103.321 153.314 103.437 153.474 103.594C153.637 103.752 153.764 103.952 153.857 104.196C153.95 104.438 153.996 104.726 153.996 105.061V105.337H150.867V104.73H153.134C153.132 104.558 153.095 104.405 153.022 104.271C152.949 104.135 152.847 104.028 152.716 103.95C152.587 103.872 152.436 103.833 152.264 103.833C152.08 103.833 151.918 103.878 151.779 103.967C151.64 104.055 151.531 104.171 151.453 104.315C151.377 104.458 151.338 104.614 151.337 104.785V105.315C151.337 105.537 151.377 105.727 151.458 105.886C151.54 106.044 151.653 106.165 151.799 106.249C151.945 106.332 152.115 106.374 152.311 106.374C152.442 106.374 152.56 106.355 152.666 106.319C152.773 106.281 152.865 106.225 152.942 106.152C153.02 106.079 153.079 105.989 153.119 105.881L153.959 105.976C153.906 106.198 153.805 106.392 153.656 106.558C153.508 106.722 153.319 106.849 153.089 106.94C152.859 107.03 152.595 107.075 152.299 107.075Z" fill="#1F1F1F"/>
</svg>
