<svg width="278" height="96" viewBox="0 0 278 96" fill="none" xmlns="http://www.w3.org/2000/svg">
<rect width="277.572" height="95.7604" rx="8" fill="white"/>
<path d="M98.2614 38H96.3977L100.585 26.3636H102.614L106.801 38H104.938L101.648 28.4773H101.557L98.2614 38ZM98.5739 33.4432H104.619V34.9205H98.5739V33.4432ZM114.822 31.4034L113.283 31.6761C113.218 31.4792 113.116 31.2917 112.976 31.1136C112.839 30.9356 112.654 30.7898 112.419 30.6761C112.184 30.5625 111.891 30.5057 111.538 30.5057C111.057 30.5057 110.656 30.6136 110.334 30.8295C110.012 31.0417 109.851 31.3163 109.851 31.6534C109.851 31.9451 109.959 32.1799 110.175 32.358C110.391 32.536 110.739 32.6818 111.22 32.7955L112.607 33.1136C113.41 33.2992 114.008 33.5852 114.402 33.9716C114.796 34.358 114.993 34.8598 114.993 35.4773C114.993 36 114.841 36.4659 114.538 36.875C114.239 37.2803 113.821 37.5985 113.283 37.8295C112.749 38.0606 112.129 38.1761 111.425 38.1761C110.447 38.1761 109.65 37.9678 109.033 37.5511C108.415 37.1307 108.036 36.5341 107.896 35.7614L109.538 35.5114C109.641 35.9394 109.851 36.2633 110.169 36.483C110.487 36.6989 110.902 36.8068 111.413 36.8068C111.97 36.8068 112.415 36.6913 112.749 36.4602C113.082 36.2254 113.249 35.9394 113.249 35.6023C113.249 35.3295 113.146 35.1004 112.942 34.9148C112.741 34.7292 112.432 34.589 112.016 34.4943L110.538 34.1705C109.724 33.9848 109.122 33.6894 108.732 33.2841C108.345 32.8788 108.152 32.3655 108.152 31.7443C108.152 31.2292 108.296 30.7784 108.584 30.392C108.872 30.0057 109.269 29.7045 109.777 29.4886C110.285 29.2689 110.866 29.1591 111.521 29.1591C112.464 29.1591 113.207 29.3636 113.749 29.7727C114.29 30.178 114.648 30.7216 114.822 31.4034ZM123.401 31.4034L121.861 31.6761C121.796 31.4792 121.694 31.2917 121.554 31.1136C121.418 30.9356 121.232 30.7898 120.997 30.6761C120.762 30.5625 120.469 30.5057 120.116 30.5057C119.635 30.5057 119.234 30.6136 118.912 30.8295C118.59 31.0417 118.429 31.3163 118.429 31.6534C118.429 31.9451 118.537 32.1799 118.753 32.358C118.969 32.536 119.317 32.6818 119.798 32.7955L121.185 33.1136C121.988 33.2992 122.586 33.5852 122.98 33.9716C123.374 34.358 123.571 34.8598 123.571 35.4773C123.571 36 123.42 36.4659 123.116 36.875C122.817 37.2803 122.399 37.5985 121.861 37.8295C121.327 38.0606 120.707 38.1761 120.003 38.1761C119.026 38.1761 118.228 37.9678 117.611 37.5511C116.993 37.1307 116.615 36.5341 116.474 35.7614L118.116 35.5114C118.219 35.9394 118.429 36.2633 118.747 36.483C119.065 36.6989 119.48 36.8068 119.991 36.8068C120.548 36.8068 120.993 36.6913 121.327 36.4602C121.66 36.2254 121.827 35.9394 121.827 35.6023C121.827 35.3295 121.724 35.1004 121.52 34.9148C121.319 34.7292 121.01 34.589 120.594 34.4943L119.116 34.1705C118.302 33.9848 117.7 33.6894 117.31 33.2841C116.923 32.8788 116.73 32.3655 116.73 31.7443C116.73 31.2292 116.874 30.7784 117.162 30.392C117.45 30.0057 117.848 29.7045 118.355 29.4886C118.863 29.2689 119.444 29.1591 120.099 29.1591C121.043 29.1591 121.785 29.3636 122.327 29.7727C122.868 30.178 123.226 30.7216 123.401 31.4034ZM129.2 38.1761C128.34 38.1761 127.6 37.9924 126.979 37.625C126.361 37.2538 125.884 36.733 125.547 36.0625C125.214 35.3883 125.047 34.5985 125.047 33.6932C125.047 32.7992 125.214 32.0114 125.547 31.3295C125.884 30.6477 126.354 30.1155 126.956 29.733C127.562 29.3504 128.27 29.1591 129.081 29.1591C129.573 29.1591 130.051 29.2405 130.513 29.4034C130.975 29.5663 131.39 29.822 131.757 30.1705C132.125 30.5189 132.414 30.9716 132.626 31.5284C132.839 32.0814 132.945 32.7538 132.945 33.5455V34.1477H126.007V32.875H131.28C131.28 32.428 131.189 32.0322 131.007 31.6875C130.825 31.339 130.57 31.0644 130.24 30.8636C129.914 30.6629 129.532 30.5625 129.092 30.5625C128.615 30.5625 128.198 30.6799 127.842 30.9148C127.49 31.1458 127.217 31.4489 127.024 31.8239C126.835 32.1951 126.74 32.5985 126.74 33.0341V34.0284C126.74 34.6117 126.842 35.108 127.047 35.517C127.255 35.9261 127.545 36.2386 127.916 36.4545C128.287 36.6667 128.721 36.7727 129.217 36.7727C129.539 36.7727 129.833 36.7273 130.098 36.6364C130.363 36.5417 130.592 36.4015 130.786 36.2159C130.979 36.0303 131.126 35.8011 131.229 35.5284L132.837 35.8182C132.708 36.2917 132.477 36.7064 132.143 37.0625C131.814 37.4148 131.399 37.6894 130.899 37.8864C130.403 38.0795 129.837 38.1761 129.2 38.1761ZM138.903 29.2727V30.6364H134.136V29.2727H138.903ZM135.415 27.1818H137.114V35.4375C137.114 35.767 137.163 36.0152 137.261 36.1818C137.36 36.3447 137.487 36.4564 137.642 36.517C137.801 36.5739 137.973 36.6023 138.159 36.6023C138.295 36.6023 138.415 36.5928 138.517 36.5739C138.619 36.5549 138.699 36.5398 138.756 36.5284L139.062 37.9318C138.964 37.9697 138.824 38.0076 138.642 38.0455C138.46 38.0871 138.233 38.1098 137.96 38.1136C137.513 38.1212 137.097 38.0417 136.71 37.875C136.324 37.7083 136.011 37.4508 135.773 37.1023C135.534 36.7538 135.415 36.3163 135.415 35.7898V27.1818ZM147.182 31.4034L145.642 31.6761C145.578 31.4792 145.475 31.2917 145.335 31.1136C145.199 30.9356 145.013 30.7898 144.778 30.6761C144.544 30.5625 144.25 30.5057 143.898 30.5057C143.417 30.5057 143.015 30.6136 142.693 30.8295C142.371 31.0417 142.21 31.3163 142.21 31.6534C142.21 31.9451 142.318 32.1799 142.534 32.358C142.75 32.536 143.098 32.6818 143.58 32.7955L144.966 33.1136C145.769 33.2992 146.367 33.5852 146.761 33.9716C147.155 34.358 147.352 34.8598 147.352 35.4773C147.352 36 147.201 36.4659 146.898 36.875C146.598 37.2803 146.18 37.5985 145.642 37.8295C145.108 38.0606 144.489 38.1761 143.784 38.1761C142.807 38.1761 142.009 37.9678 141.392 37.5511C140.775 37.1307 140.396 36.5341 140.256 35.7614L141.898 35.5114C142 35.9394 142.21 36.2633 142.528 36.483C142.847 36.6989 143.261 36.8068 143.773 36.8068C144.33 36.8068 144.775 36.6913 145.108 36.4602C145.441 36.2254 145.608 35.9394 145.608 35.6023C145.608 35.3295 145.506 35.1004 145.301 34.9148C145.1 34.7292 144.792 34.589 144.375 34.4943L142.898 34.1705C142.083 33.9848 141.481 33.6894 141.091 33.2841C140.705 32.8788 140.511 32.3655 140.511 31.7443C140.511 31.2292 140.655 30.7784 140.943 30.392C141.231 30.0057 141.629 29.7045 142.136 29.4886C142.644 29.2689 143.225 29.1591 143.881 29.1591C144.824 29.1591 145.566 29.3636 146.108 29.7727C146.65 30.178 147.008 30.7216 147.182 31.4034Z" fill="#1F1F1F"/>
<path d="M103.468 66.6761C102.263 66.6761 101.19 66.4545 100.246 66.0114C99.3089 65.5682 98.5646 64.9574 98.0135 64.179C97.4623 63.4006 97.1754 62.5085 97.1527 61.5028H100.732C100.772 62.179 101.056 62.7273 101.584 63.1477C102.113 63.5682 102.741 63.7784 103.468 63.7784C104.048 63.7784 104.559 63.6506 105.002 63.3949C105.451 63.1335 105.8 62.7727 106.05 62.3125C106.306 61.8466 106.434 61.3125 106.434 60.7102C106.434 60.0966 106.303 59.5568 106.042 59.0909C105.786 58.625 105.431 58.2614 104.977 58C104.522 57.7386 104.002 57.6051 103.417 57.5994C102.905 57.5994 102.408 57.7045 101.925 57.9148C101.448 58.125 101.076 58.4119 100.809 58.7756L97.5277 58.1875L98.3544 48.983H109.025V52H101.397L100.945 56.3722H101.048C101.354 55.9403 101.817 55.5824 102.437 55.2983C103.056 55.0142 103.749 54.8722 104.516 54.8722C105.567 54.8722 106.505 55.1193 107.329 55.6136C108.153 56.108 108.803 56.7869 109.28 57.6506C109.758 58.5085 109.994 59.4972 109.988 60.6165C109.994 61.7926 109.721 62.8381 109.17 63.7528C108.624 64.6619 107.86 65.3778 106.877 65.9006C105.9 66.4176 104.763 66.6761 103.468 66.6761ZM119.405 66.821C117.94 66.8153 116.678 66.4545 115.621 65.7386C114.57 65.0227 113.761 63.9858 113.192 62.6278C112.63 61.2699 112.352 59.6364 112.357 57.7273C112.357 55.8239 112.638 54.2017 113.201 52.8608C113.769 51.5199 114.579 50.5 115.63 49.8011C116.687 49.0966 117.945 48.7443 119.405 48.7443C120.866 48.7443 122.121 49.0966 123.173 49.8011C124.229 50.5057 125.042 51.5284 125.61 52.8693C126.178 54.2045 126.459 55.8239 126.454 57.7273C126.454 59.642 126.17 61.2784 125.602 62.6364C125.039 63.9943 124.232 65.0312 123.181 65.7472C122.13 66.4631 120.871 66.821 119.405 66.821ZM119.405 63.7614C120.405 63.7614 121.204 63.2585 121.8 62.2528C122.397 61.2472 122.692 59.7386 122.687 57.7273C122.687 56.4034 122.55 55.3011 122.278 54.4205C122.011 53.5398 121.63 52.8778 121.136 52.4347C120.647 51.9915 120.07 51.7699 119.405 51.7699C118.411 51.7699 117.616 52.267 117.019 53.2614C116.423 54.2557 116.121 55.7443 116.116 57.7273C116.116 59.0682 116.249 60.1875 116.516 61.0852C116.789 61.9773 117.173 62.6477 117.667 63.0966C118.161 63.5398 118.741 63.7614 119.405 63.7614ZM135.929 66.821C134.463 66.8153 133.202 66.4545 132.145 65.7386C131.094 65.0227 130.284 63.9858 129.716 62.6278C129.153 61.2699 128.875 59.6364 128.881 57.7273C128.881 55.8239 129.162 54.2017 129.724 52.8608C130.293 51.5199 131.102 50.5 132.153 49.8011C133.21 49.0966 134.469 48.7443 135.929 48.7443C137.389 48.7443 138.645 49.0966 139.696 49.8011C140.753 50.5057 141.565 51.5284 142.133 52.8693C142.702 54.2045 142.983 55.8239 142.977 57.7273C142.977 59.642 142.693 61.2784 142.125 62.6364C141.562 63.9943 140.756 65.0312 139.705 65.7472C138.653 66.4631 137.395 66.821 135.929 66.821ZM135.929 63.7614C136.929 63.7614 137.727 63.2585 138.324 62.2528C138.92 61.2472 139.216 59.7386 139.21 57.7273C139.21 56.4034 139.074 55.3011 138.801 54.4205C138.534 53.5398 138.153 52.8778 137.659 52.4347C137.17 51.9915 136.594 51.7699 135.929 51.7699C134.935 51.7699 134.139 52.267 133.543 53.2614C132.946 54.2557 132.645 55.7443 132.639 57.7273C132.639 59.0682 132.773 60.1875 133.04 61.0852C133.312 61.9773 133.696 62.6477 134.19 63.0966C134.685 63.5398 135.264 63.7614 135.929 63.7614ZM150.825 63.7784V51.7102H153.876V63.7784H150.825ZM146.316 59.2699V56.2188H158.384V59.2699H146.316ZM177.424 55.0938H173.691C173.623 54.6108 173.484 54.1818 173.273 53.8068C173.063 53.4261 172.793 53.1023 172.464 52.8352C172.134 52.5682 171.754 52.3636 171.322 52.2216C170.896 52.0795 170.432 52.0085 169.932 52.0085C169.029 52.0085 168.242 52.233 167.572 52.6818C166.901 53.125 166.381 53.7727 166.012 54.625C165.643 55.4716 165.458 56.5 165.458 57.7102C165.458 58.9545 165.643 60 166.012 60.8466C166.387 61.6932 166.91 62.3324 167.58 62.7642C168.251 63.196 169.026 63.4119 169.907 63.4119C170.401 63.4119 170.859 63.3466 171.279 63.2159C171.705 63.0852 172.083 62.8949 172.413 62.6449C172.742 62.3892 173.015 62.0795 173.231 61.7159C173.452 61.3523 173.606 60.9375 173.691 60.4716L177.424 60.4886C177.327 61.2898 177.086 62.0625 176.7 62.8068C176.319 63.5455 175.805 64.2074 175.157 64.7926C174.515 65.3722 173.748 65.8324 172.856 66.1733C171.969 66.5085 170.967 66.6761 169.847 66.6761C168.29 66.6761 166.898 66.3239 165.671 65.6193C164.45 64.9148 163.484 63.8949 162.773 62.5597C162.069 61.2244 161.717 59.608 161.717 57.7102C161.717 55.8068 162.075 54.1875 162.79 52.8523C163.506 51.517 164.478 50.5 165.705 49.8011C166.932 49.0966 168.313 48.7443 169.847 48.7443C170.859 48.7443 171.796 48.8864 172.66 49.1705C173.529 49.4545 174.299 49.8693 174.969 50.4148C175.64 50.9545 176.185 51.6165 176.606 52.4006C177.032 53.1847 177.305 54.0824 177.424 55.0938ZM180.002 66.4375V53.3466H183.522V55.6307H183.658C183.897 54.8182 184.298 54.2045 184.86 53.7898C185.423 53.3693 186.07 53.1591 186.803 53.1591C186.985 53.1591 187.181 53.1705 187.391 53.1932C187.602 53.2159 187.786 53.2472 187.945 53.2869V56.5085C187.775 56.4574 187.539 56.4119 187.238 56.3722C186.937 56.3324 186.661 56.3125 186.411 56.3125C185.877 56.3125 185.4 56.429 184.979 56.6619C184.565 56.8892 184.235 57.2074 183.991 57.6165C183.752 58.0256 183.633 58.4972 183.633 59.0312V66.4375H180.002ZM198.454 66.4375H194.499L200.525 48.983H205.28L211.298 66.4375H207.343L202.971 52.9716H202.834L198.454 66.4375ZM198.207 59.5767H207.548V62.4574H198.207V59.5767ZM224.18 48.983H227.87V60.3182C227.87 61.5909 227.566 62.7045 226.958 63.6591C226.356 64.6136 225.512 65.358 224.427 65.892C223.342 66.4205 222.077 66.6847 220.634 66.6847C219.185 66.6847 217.918 66.4205 216.833 65.892C215.748 65.358 214.904 64.6136 214.302 63.6591C213.7 62.7045 213.398 61.5909 213.398 60.3182V48.983H217.089V60.0028C217.089 60.6676 217.234 61.2585 217.523 61.7756C217.819 62.2926 218.234 62.6989 218.768 62.9943C219.302 63.2898 219.924 63.4375 220.634 63.4375C221.35 63.4375 221.972 63.2898 222.501 62.9943C223.035 62.6989 223.447 62.2926 223.736 61.7756C224.032 61.2585 224.18 60.6676 224.18 60.0028V48.983ZM230.906 48.983H235.457L240.264 60.7102H240.469L245.276 48.983H249.827V66.4375H246.247V55.0767H246.102L241.585 66.3523H239.148L234.631 55.0341H234.486V66.4375H230.906V48.983Z" fill="#2769B3"/>
<ellipse cx="46.7879" cy="47.3868" rx="29.9652" ry="27.6422" fill="#5BA913"/>
<g clip-path="url(#clip0_4065_26)">
<path d="M60.766 51.5537C59.838 51.5537 59.3358 52.0329 59.1027 52.4717C58.8694 52.9084 58.879 53.3293 58.879 53.3293V61.6248C58.879 61.6248 58.8694 62.0435 59.1027 62.4823C59.3358 62.919 59.8475 63.4004 60.7684 63.4004H63.2955C64.2355 63.4004 64.7257 62.919 64.9589 62.4823C65.1921 62.0435 65.1874 61.6248 65.1874 61.6248V53.3293C65.1874 53.3293 65.1921 52.9084 64.9589 52.4717C64.7257 52.0329 64.2379 51.5537 63.2932 51.5537H60.766ZM60.766 52.7382H63.2955C63.6144 52.7382 63.7525 52.8456 63.8333 53.0001C63.9166 53.1569 63.9286 53.3293 63.9286 53.3293V61.6248C63.9286 61.6248 63.9166 61.7928 63.8333 61.9473C63.7525 62.104 63.6287 62.2159 63.2955 62.2159H60.766C60.4376 62.2159 60.3091 62.104 60.2282 61.9473C60.1449 61.7928 60.1402 61.6248 60.1402 61.6248V53.3293C60.1402 53.3293 60.1449 53.1546 60.2282 53.0001C60.3091 52.8456 60.4376 52.7382 60.766 52.7382Z" fill="white"/>
<path d="M50.2439 53.3234C50.086 53.3229 49.9333 53.373 49.8147 53.4643L45.6448 56.7129C45.3688 56.9035 45.1401 57.1415 44.9729 57.4122C44.8057 57.6829 44.7033 57.9807 44.6722 58.2872C44.6411 58.5938 44.6819 58.9027 44.7919 59.195C44.902 59.4873 45.0792 59.7568 45.3125 59.9871C45.5458 60.2174 45.8303 60.4035 46.1487 60.5341C46.4671 60.6647 46.8126 60.737 47.1641 60.7466C47.5155 60.7562 47.8655 60.7029 48.1926 60.5899C48.5196 60.4769 48.8168 60.3066 49.0661 60.0895L50.7292 58.8003C51.3729 58.3009 50.517 57.4557 49.8708 57.9551L48.2004 59.255C48.0184 59.4051 47.7898 59.5046 47.5433 59.5411C47.2968 59.5775 47.0435 59.5493 46.8153 59.4599C46.5827 59.3777 46.384 59.2359 46.2452 59.053C46.1064 58.8702 46.034 58.6549 46.0374 58.4354C46.0353 58.2707 46.0744 58.1076 46.1519 57.9575C46.2294 57.8075 46.3434 57.674 46.4861 57.5666L50.4853 54.4525H58.9592V53.3213L50.2439 53.3234Z" fill="white"/>
<path d="M45.3624 58.3229L36.066 58.35C35.4896 58.3354 34.8037 58.4043 34.1907 58.7341C33.5753 59.064 33.101 59.6381 33.1108 60.5483C33.1254 61.6151 34.0375 62.5316 35.2731 62.7048L46.2526 64.3729C46.8655 64.4313 47.3276 64.3123 47.8773 64.1224L56.3272 61.0827H58.8787V59.9763H56.1959C56.1104 59.9773 56.0261 59.9929 55.9478 60.0222L47.4152 63.0911C46.9068 63.2581 46.7755 63.3082 46.3888 63.2727L35.4823 61.6172C35.1826 61.5797 34.9087 61.4512 34.71 61.2551C34.5114 61.059 34.4014 60.8082 34.3999 60.5483C34.3999 60.0536 34.5799 59.8239 34.8693 59.6673C35.1612 59.5107 35.6233 59.4418 36.0271 59.4523L45.3672 59.4272L45.3624 58.3229ZM46.0093 40.6446C43.9605 40.6467 41.9963 41.3466 40.548 42.5905C39.0998 43.8343 38.2856 45.5206 38.2843 47.2791C38.2875 49.0366 39.1025 50.7212 40.5506 51.9637C41.9987 53.2062 43.9617 53.9052 46.0093 53.9074C48.0569 53.9052 50.02 53.2062 51.468 51.9637C52.9162 50.7212 53.7312 49.0366 53.7344 47.2791C53.7331 45.5206 52.919 43.8343 51.4706 42.5905C50.0223 41.3466 48.0582 40.6467 46.0093 40.6446ZM46.0093 41.751C46.8552 41.7499 47.693 41.8921 48.4747 42.1694C49.2564 42.4467 49.9667 42.8537 50.5648 43.3671C51.1629 43.8805 51.6371 44.4901 51.9602 45.161C52.2833 45.832 52.449 46.551 52.4477 47.2771C52.4486 48.0029 52.2828 48.7217 51.9595 49.3924C51.6363 50.0631 51.162 50.6725 50.5639 51.1856C49.9658 51.6988 49.2557 52.1056 48.4741 52.3828C47.6926 52.66 46.855 52.8021 46.0093 52.801C45.1639 52.8018 44.3266 52.6595 43.5453 52.3822C42.764 52.1049 42.0541 51.698 41.4563 51.1849C40.8585 50.6718 40.3845 50.0625 40.0614 49.3919C39.7383 48.7214 39.5724 48.0027 39.5734 47.2771C39.5722 46.5512 39.7377 45.8323 40.0607 45.1615C40.3836 44.4907 40.8576 43.8812 41.4555 43.3678C42.0533 42.8545 42.7633 42.4474 43.5447 42.17C44.3262 41.8925 45.1637 41.7502 46.0093 41.751ZM31.8532 42.8575C32.8019 42.8575 33.3151 42.4086 33.5534 42.0015C33.7918 41.5924 33.7821 41.1999 33.7821 41.1999V33.4651C33.7821 33.4651 33.7918 33.0747 33.5534 32.6655C33.3151 32.2584 32.7921 31.8096 31.8508 31.8096H29.2701C28.3094 31.8096 27.8083 32.2584 27.5699 32.6655C27.3316 33.0747 27.3364 33.4651 27.3364 33.4651V41.1999C27.3364 41.1999 27.3316 41.5924 27.5699 41.9994C27.8083 42.4086 28.3069 42.8554 29.2726 42.8554L31.8532 42.8575ZM31.8532 41.751H29.2677C28.9418 41.751 28.8007 41.6508 28.718 41.5068C28.6329 41.3606 28.6207 41.1999 28.6207 41.1999V33.4651C28.6207 33.4651 28.6329 33.3085 28.718 33.1645C28.8007 33.0183 28.9272 32.9139 29.2677 32.9139H31.8532C32.1889 32.9139 32.3203 33.0183 32.403 33.1645C32.4881 33.3085 32.4929 33.4651 32.4929 33.4651V41.1999C32.4929 41.1999 32.4881 41.3627 32.403 41.5068C32.3203 41.6508 32.1889 41.751 31.8532 41.751Z" fill="white"/>
<path d="M41.9794 40.6947C42.1295 40.6947 42.2746 40.6481 42.3874 40.5636L46.3738 37.5398C46.6377 37.3624 46.8563 37.1408 47.0162 36.8889C47.1761 36.6368 47.2739 36.3597 47.3037 36.0744C47.3334 35.789 47.2945 35.5015 47.1892 35.2294C47.084 34.9573 46.9146 34.7065 46.6916 34.4921C46.4686 34.2778 46.1965 34.1046 45.8921 33.983C45.5877 33.8614 45.2574 33.7941 44.9214 33.7852C44.5854 33.7763 44.2509 33.8259 43.9382 33.9311C43.6255 34.0362 43.3413 34.1947 43.1031 34.3968L41.5131 35.5968C40.8976 36.0617 41.716 36.8484 42.3337 36.3835L43.9307 35.1736C44.1046 35.0339 44.3232 34.9412 44.5589 34.9073C44.7945 34.8734 45.0366 34.8997 45.2548 34.9829C45.4771 35.0594 45.6671 35.1914 45.7999 35.3616C45.9326 35.5318 46.0018 35.7322 45.9985 35.9365C46.0005 36.0898 45.9632 36.2416 45.8891 36.3813C45.815 36.5209 45.7059 36.6451 45.5696 36.7451L41.7462 39.6457H33.645V40.6947H41.9794Z" fill="white"/>
<path d="M46.8811 36.0841L55.9847 36.054C56.5492 36.069 57.2209 35.998 57.8212 35.6583C58.4238 35.3185 58.8883 34.7271 58.8787 33.7894C58.8704 33.2537 58.6538 32.7376 58.2667 32.3315C57.8796 31.9254 57.3467 31.6551 56.7613 31.5679L46.0094 29.8496C45.4091 29.7915 44.9566 29.912 44.4183 30.1077L36.1436 33.2367H33.645V34.3765H36.2746C36.3556 34.3765 36.439 34.3593 36.5152 34.3292L44.8708 31.17C45.3687 30.998 45.4973 30.9464 45.876 30.9829L56.5564 32.6883C56.8498 32.7269 57.1181 32.8593 57.3126 33.0613C57.5071 33.2634 57.6149 33.5217 57.6163 33.7894C57.6163 34.2991 57.44 34.5357 57.1566 34.697C56.8708 34.8583 56.4182 34.9314 56.0228 34.9206L46.8764 34.9443L46.8811 36.0841ZM43.7561 43.5035C42.913 43.5035 42.913 44.6433 43.7561 44.6433H48.8057C49.6489 44.6433 49.6489 43.5035 48.8057 43.5035H43.7561Z" fill="white"/>
<path d="M46.3894 43.6562V45.9114C46.3894 45.9114 46.382 46.3543 46.132 46.7845C45.8846 47.2125 45.4242 47.598 44.4243 47.598H43.7685C43.6327 47.597 43.5001 47.6324 43.3887 47.6991C43.2773 47.7658 43.1927 47.8606 43.1465 47.9704C43.1004 48.0801 43.0949 48.1995 43.131 48.3122C43.167 48.4247 43.2427 48.5249 43.3477 48.5989L47.2779 51.412C47.9487 51.8954 48.7877 51.0286 48.1195 50.5474L45.4242 48.6159C46.3894 48.4072 46.9933 47.8258 47.3027 47.2913C47.7086 46.5929 47.6987 45.9093 47.6987 45.9093V43.6584H46.387L46.3894 43.6562Z" fill="white"/>
<path d="M43.7384 45.6309C42.8971 45.6309 42.8971 46.6181 43.7384 46.6181H48.7866C49.6256 46.6181 49.6256 45.6309 48.7866 45.6309H43.7384Z" fill="white"/>
</g>
<defs>
<clipPath id="clip0_4065_26">
<rect width="37.8507" height="35.5399" fill="white" transform="translate(27.3364 29.6167)"/>
</clipPath>
</defs>
</svg>
