<svg width="264" height="97" viewBox="0 0 264 97" fill="none" xmlns="http://www.w3.org/2000/svg">
<rect width="264" height="97" rx="8" fill="white"/>
<path d="M92.2784 38V26.3636H99.5739V27.875H94.0341V31.4205H99.1932V32.9261H94.0341V36.4886H99.642V38H92.2784ZM103.124 29.2727L105.05 32.6705L106.993 29.2727H108.851L106.129 33.6364L108.874 38H107.016L105.05 34.7386L103.089 38H101.226L103.942 33.6364L101.26 29.2727H103.124ZM110.595 41.2727V29.2727H112.254V30.6875H112.396C112.495 30.5057 112.637 30.2955 112.822 30.0568C113.008 29.8182 113.266 29.6098 113.595 29.4318C113.925 29.25 114.36 29.1591 114.902 29.1591C115.607 29.1591 116.235 29.3371 116.788 29.6932C117.341 30.0492 117.775 30.5625 118.089 31.233C118.408 31.9034 118.567 32.7102 118.567 33.6534C118.567 34.5966 118.41 35.4053 118.095 36.0795C117.781 36.75 117.349 37.267 116.8 37.6307C116.25 37.9905 115.624 38.1705 114.919 38.1705C114.389 38.1705 113.955 38.0814 113.618 37.9034C113.285 37.7254 113.023 37.517 112.834 37.2784C112.644 37.0398 112.499 36.8277 112.396 36.642H112.294V41.2727H110.595ZM112.26 33.6364C112.26 34.25 112.349 34.7879 112.527 35.25C112.705 35.7121 112.963 36.0739 113.3 36.3352C113.637 36.5928 114.05 36.7216 114.538 36.7216C115.046 36.7216 115.47 36.5871 115.811 36.3182C116.152 36.0455 116.41 35.6761 116.584 35.2102C116.762 34.7443 116.851 34.2197 116.851 33.6364C116.851 33.0606 116.764 32.5436 116.589 32.0852C116.419 31.6269 116.161 31.2652 115.817 31C115.476 30.7348 115.05 30.6023 114.538 30.6023C114.046 30.6023 113.629 30.7292 113.288 30.983C112.951 31.2367 112.696 31.5909 112.521 32.0455C112.347 32.5 112.26 33.0303 112.26 33.6364ZM124.232 38.1761C123.372 38.1761 122.631 37.9924 122.01 37.625C121.393 37.2538 120.915 36.733 120.578 36.0625C120.245 35.3883 120.078 34.5985 120.078 33.6932C120.078 32.7992 120.245 32.0114 120.578 31.3295C120.915 30.6477 121.385 30.1155 121.987 29.733C122.593 29.3504 123.302 29.1591 124.112 29.1591C124.605 29.1591 125.082 29.2405 125.544 29.4034C126.006 29.5663 126.421 29.822 126.788 30.1705C127.156 30.5189 127.446 30.9716 127.658 31.5284C127.87 32.0814 127.976 32.7538 127.976 33.5455V34.1477H121.038V32.875H126.311C126.311 32.428 126.22 32.0322 126.038 31.6875C125.857 31.339 125.601 31.0644 125.271 30.8636C124.946 30.6629 124.563 30.5625 124.124 30.5625C123.646 30.5625 123.23 30.6799 122.874 30.9148C122.521 31.1458 122.249 31.4489 122.055 31.8239C121.866 32.1951 121.771 32.5985 121.771 33.0341V34.0284C121.771 34.6117 121.874 35.108 122.078 35.517C122.286 35.9261 122.576 36.2386 122.947 36.4545C123.319 36.6667 123.752 36.7727 124.249 36.7727C124.571 36.7727 124.864 36.7273 125.129 36.6364C125.394 36.5417 125.624 36.4015 125.817 36.2159C126.01 36.0303 126.158 35.8011 126.26 35.5284L127.868 35.8182C127.739 36.2917 127.508 36.7064 127.175 37.0625C126.845 37.4148 126.43 37.6894 125.93 37.8864C125.434 38.0795 124.868 38.1761 124.232 38.1761ZM129.861 38V29.2727H131.503V30.6591H131.594C131.753 30.1894 132.033 29.8201 132.435 29.5511C132.84 29.2784 133.298 29.142 133.81 29.142C133.916 29.142 134.041 29.1458 134.185 29.1534C134.332 29.161 134.448 29.1705 134.531 29.1818V30.8068C134.463 30.7879 134.342 30.767 134.168 30.7443C133.993 30.7178 133.819 30.7045 133.645 30.7045C133.243 30.7045 132.885 30.7898 132.571 30.9602C132.26 31.1269 132.014 31.3598 131.832 31.6591C131.651 31.9545 131.56 32.2917 131.56 32.6705V38H129.861ZM136.001 38V29.2727H137.7V38H136.001ZM136.859 27.9261C136.564 27.9261 136.31 27.8277 136.098 27.6307C135.89 27.4299 135.786 27.1913 135.786 26.9148C135.786 26.6345 135.89 26.3958 136.098 26.1989C136.31 25.9981 136.564 25.8977 136.859 25.8977C137.155 25.8977 137.407 25.9981 137.615 26.1989C137.827 26.3958 137.933 26.6345 137.933 26.9148C137.933 27.1913 137.827 27.4299 137.615 27.6307C137.407 27.8277 137.155 27.9261 136.859 27.9261ZM143.747 38.1761C142.887 38.1761 142.147 37.9924 141.526 37.625C140.908 37.2538 140.431 36.733 140.094 36.0625C139.76 35.3883 139.594 34.5985 139.594 33.6932C139.594 32.7992 139.76 32.0114 140.094 31.3295C140.431 30.6477 140.901 30.1155 141.503 29.733C142.109 29.3504 142.817 29.1591 143.628 29.1591C144.12 29.1591 144.598 29.2405 145.06 29.4034C145.522 29.5663 145.937 29.822 146.304 30.1705C146.671 30.5189 146.961 30.9716 147.173 31.5284C147.385 32.0814 147.491 32.7538 147.491 33.5455V34.1477H140.554V32.875H145.827C145.827 32.428 145.736 32.0322 145.554 31.6875C145.372 31.339 145.116 31.0644 144.787 30.8636C144.461 30.6629 144.079 30.5625 143.639 30.5625C143.162 30.5625 142.745 30.6799 142.389 30.9148C142.037 31.1458 141.764 31.4489 141.571 31.8239C141.382 32.1951 141.287 32.5985 141.287 33.0341V34.0284C141.287 34.6117 141.389 35.108 141.594 35.517C141.802 35.9261 142.092 36.2386 142.463 36.4545C142.834 36.6667 143.268 36.7727 143.764 36.7727C144.086 36.7727 144.38 36.7273 144.645 36.6364C144.91 36.5417 145.139 36.4015 145.332 36.2159C145.526 36.0303 145.673 35.8011 145.776 35.5284L147.384 35.8182C147.255 36.2917 147.024 36.7064 146.69 37.0625C146.361 37.4148 145.946 37.6894 145.446 37.8864C144.95 38.0795 144.384 38.1761 143.747 38.1761ZM151.075 32.8182V38H149.376V29.2727H151.007V30.6932H151.115C151.316 30.2311 151.63 29.8598 152.058 29.5795C152.49 29.2992 153.034 29.1591 153.689 29.1591C154.284 29.1591 154.804 29.2841 155.251 29.5341C155.698 29.7803 156.045 30.1477 156.291 30.6364C156.537 31.125 156.661 31.7292 156.661 32.4489V38H154.962V32.6534C154.962 32.0208 154.797 31.5265 154.467 31.1705C154.138 30.8106 153.685 30.6307 153.109 30.6307C152.715 30.6307 152.365 30.7159 152.058 30.8864C151.755 31.0568 151.515 31.3068 151.337 31.6364C151.162 31.9621 151.075 32.3561 151.075 32.8182ZM162.615 38.1761C161.77 38.1761 161.043 37.9848 160.433 37.6023C159.827 37.2159 159.361 36.6837 159.036 36.0057C158.71 35.3277 158.547 34.5511 158.547 33.6761C158.547 32.7898 158.714 32.0076 159.047 31.3295C159.38 30.6477 159.85 30.1155 160.456 29.733C161.062 29.3504 161.776 29.1591 162.598 29.1591C163.261 29.1591 163.852 29.2822 164.371 29.5284C164.89 29.7708 165.308 30.1117 165.626 30.5511C165.948 30.9905 166.14 31.5038 166.2 32.0909H164.547C164.456 31.6818 164.248 31.3295 163.922 31.0341C163.6 30.7386 163.168 30.5909 162.626 30.5909C162.153 30.5909 161.738 30.7159 161.382 30.9659C161.03 31.2121 160.755 31.5644 160.558 32.0227C160.361 32.4773 160.263 33.0152 160.263 33.6364C160.263 34.2727 160.359 34.822 160.553 35.2841C160.746 35.7462 161.018 36.1042 161.371 36.358C161.727 36.6117 162.145 36.7386 162.626 36.7386C162.948 36.7386 163.24 36.6799 163.501 36.5625C163.767 36.4413 163.988 36.2689 164.166 36.0455C164.348 35.822 164.475 35.553 164.547 35.2386H166.2C166.14 35.803 165.956 36.3068 165.649 36.75C165.342 37.1932 164.931 37.5417 164.416 37.7955C163.905 38.0492 163.304 38.1761 162.615 38.1761ZM171.778 38.1761C170.919 38.1761 170.178 37.9924 169.557 37.625C168.939 37.2538 168.462 36.733 168.125 36.0625C167.792 35.3883 167.625 34.5985 167.625 33.6932C167.625 32.7992 167.792 32.0114 168.125 31.3295C168.462 30.6477 168.932 30.1155 169.534 29.733C170.14 29.3504 170.848 29.1591 171.659 29.1591C172.152 29.1591 172.629 29.2405 173.091 29.4034C173.553 29.5663 173.968 29.822 174.335 30.1705C174.703 30.5189 174.992 30.9716 175.205 31.5284C175.417 32.0814 175.523 32.7538 175.523 33.5455V34.1477H168.585V32.875H173.858C173.858 32.428 173.767 32.0322 173.585 31.6875C173.403 31.339 173.148 31.0644 172.818 30.8636C172.492 30.6629 172.11 30.5625 171.67 30.5625C171.193 30.5625 170.777 30.6799 170.42 30.9148C170.068 31.1458 169.795 31.4489 169.602 31.8239C169.413 32.1951 169.318 32.5985 169.318 33.0341V34.0284C169.318 34.6117 169.42 35.108 169.625 35.517C169.833 35.9261 170.123 36.2386 170.494 36.4545C170.866 36.6667 171.299 36.7727 171.795 36.7727C172.117 36.7727 172.411 36.7273 172.676 36.6364C172.941 36.5417 173.17 36.4015 173.364 36.2159C173.557 36.0303 173.705 35.8011 173.807 35.5284L175.415 35.8182C175.286 36.2917 175.055 36.7064 174.722 37.0625C174.392 37.4148 173.977 37.6894 173.477 37.8864C172.981 38.0795 172.415 38.1761 171.778 38.1761Z" fill="#1F1F1F"/>
<path d="M100.009 49.5455V67H96.3182V53.0483H96.2159L92.2188 55.554V52.2812L96.5398 49.5455H100.009ZM111.001 67.3835C109.535 67.3778 108.273 67.017 107.217 66.3011C106.165 65.5852 105.356 64.5483 104.788 63.1903C104.225 61.8324 103.947 60.1989 103.952 58.2898C103.952 56.3864 104.234 54.7642 104.796 53.4233C105.364 52.0824 106.174 51.0625 107.225 50.3636C108.282 49.6591 109.54 49.3068 111.001 49.3068C112.461 49.3068 113.717 49.6591 114.768 50.3636C115.825 51.0682 116.637 52.0909 117.205 53.4318C117.773 54.767 118.055 56.3864 118.049 58.2898C118.049 60.2045 117.765 61.8409 117.197 63.1989C116.634 64.5568 115.827 65.5937 114.776 66.3097C113.725 67.0256 112.467 67.3835 111.001 67.3835ZM111.001 64.3239C112.001 64.3239 112.799 63.821 113.396 62.8153C113.992 61.8097 114.288 60.3011 114.282 58.2898C114.282 56.9659 114.146 55.8636 113.873 54.983C113.606 54.1023 113.225 53.4403 112.731 52.9972C112.242 52.554 111.665 52.3324 111.001 52.3324C110.006 52.3324 109.211 52.8295 108.614 53.8239C108.018 54.8182 107.717 56.3068 107.711 58.2898C107.711 59.6307 107.844 60.75 108.112 61.6477C108.384 62.5398 108.768 63.2102 109.262 63.6591C109.756 64.1023 110.336 64.3239 111.001 64.3239ZM125.896 64.3409V52.2727H128.947V64.3409H125.896ZM121.388 59.8324V56.7812H133.456V59.8324H121.388ZM141.627 49.5455H145.761L149.741 57.0625H149.911L153.891 49.5455H158.025L151.658 60.8295V67H147.994V60.8295L141.627 49.5455ZM163.196 67.2557C161.849 67.2557 160.69 66.983 159.719 66.4375C158.753 65.8864 158.009 65.108 157.486 64.1023C156.963 63.0909 156.702 61.8949 156.702 60.5142C156.702 59.1676 156.963 57.9858 157.486 56.9688C158.009 55.9517 158.744 55.1591 159.693 54.5909C160.648 54.0227 161.767 53.7386 163.051 53.7386C163.915 53.7386 164.719 53.8778 165.463 54.1562C166.213 54.429 166.866 54.8409 167.423 55.392C167.986 55.9432 168.423 56.6364 168.736 57.4716C169.048 58.3011 169.205 59.2727 169.205 60.3864V61.3835H158.151V59.1335H165.787C165.787 58.6108 165.673 58.1477 165.446 57.7443C165.219 57.3409 164.903 57.0256 164.5 56.7983C164.102 56.5653 163.639 56.4489 163.111 56.4489C162.56 56.4489 162.071 56.5767 161.645 56.8324C161.224 57.0824 160.895 57.4205 160.656 57.8466C160.418 58.267 160.295 58.7358 160.29 59.2528V61.392C160.29 62.0398 160.409 62.5994 160.648 63.071C160.892 63.5426 161.236 63.9062 161.679 64.1619C162.122 64.4176 162.648 64.5455 163.256 64.5455C163.659 64.5455 164.028 64.4886 164.364 64.375C164.699 64.2614 164.986 64.0909 165.224 63.8636C165.463 63.6364 165.645 63.358 165.77 63.0284L169.128 63.25C168.957 64.0568 168.608 64.7614 168.08 65.3636C167.557 65.9602 166.881 66.4261 166.051 66.7614C165.227 67.0909 164.276 67.2557 163.196 67.2557ZM175.307 67.2472C174.472 67.2472 173.727 67.1023 173.074 66.8125C172.42 66.517 171.903 66.0824 171.523 65.5085C171.148 64.929 170.96 64.2074 170.96 63.3438C170.96 62.6165 171.094 62.0057 171.361 61.5114C171.628 61.017 171.991 60.6193 172.452 60.3182C172.912 60.017 173.435 59.7898 174.02 59.6364C174.611 59.483 175.23 59.375 175.878 59.3125C176.639 59.233 177.253 59.1591 177.719 59.0909C178.185 59.017 178.523 58.9091 178.733 58.767C178.943 58.625 179.048 58.4148 179.048 58.1364V58.0852C179.048 57.5455 178.878 57.1278 178.537 56.8324C178.202 56.5369 177.724 56.3892 177.105 56.3892C176.452 56.3892 175.932 56.5341 175.545 56.8239C175.159 57.108 174.903 57.4659 174.778 57.8977L171.42 57.625C171.591 56.8295 171.926 56.142 172.426 55.5625C172.926 54.9773 173.571 54.5284 174.361 54.2159C175.156 53.8977 176.077 53.7386 177.122 53.7386C177.849 53.7386 178.545 53.8239 179.21 53.9943C179.881 54.1648 180.474 54.429 180.991 54.7869C181.514 55.1449 181.926 55.6051 182.227 56.1676C182.528 56.7244 182.679 57.392 182.679 58.1705V67H179.236V65.1847H179.134C178.923 65.5938 178.642 65.9545 178.29 66.267C177.938 66.5739 177.514 66.8153 177.02 66.9915C176.526 67.1619 175.955 67.2472 175.307 67.2472ZM176.347 64.7415C176.881 64.7415 177.352 64.6364 177.761 64.4261C178.17 64.2102 178.491 63.9205 178.724 63.5568C178.957 63.1932 179.074 62.7812 179.074 62.321V60.9318C178.96 61.0057 178.804 61.0739 178.605 61.1364C178.412 61.1932 178.193 61.2472 177.949 61.2983C177.705 61.3437 177.46 61.3864 177.216 61.4261C176.972 61.4602 176.75 61.4915 176.551 61.5199C176.125 61.5824 175.753 61.6818 175.435 61.8182C175.116 61.9545 174.869 62.1392 174.693 62.3722C174.517 62.5994 174.429 62.8835 174.429 63.2244C174.429 63.7188 174.608 64.0966 174.966 64.358C175.33 64.6136 175.79 64.7415 176.347 64.7415ZM185.496 67V53.9091H189.016V56.1932H189.152C189.391 55.3807 189.791 54.767 190.354 54.3523C190.916 53.9318 191.564 53.7216 192.297 53.7216C192.479 53.7216 192.675 53.733 192.885 53.7557C193.095 53.7784 193.28 53.8097 193.439 53.8494V57.071C193.268 57.0199 193.033 56.9744 192.732 56.9347C192.43 56.8949 192.155 56.875 191.905 56.875C191.371 56.875 190.893 56.9915 190.473 57.2244C190.058 57.4517 189.729 57.7699 189.484 58.179C189.246 58.5881 189.126 59.0597 189.126 59.5938V67H185.496Z" fill="#2769B3"/>
<ellipse cx="44.5" cy="48" rx="28.5" ry="28" fill="#5BA913"/>
<path fill-rule="evenodd" clip-rule="evenodd" d="M30.804 60.8426V61.0548C30.804 61.575 30.2611 62 29.5963 62H27.2077C26.5454 62 26 61.575 26 61.0548V52.9806C26 52.4604 26.5454 52.0354 27.2077 52.0354H29.2404C31.0575 48.1904 35.2521 45.2478 40.427 44.3024C37.6642 43.2523 35.7524 41.0319 35.7524 38.4739C35.7524 34.9091 39.4654 32 44.0202 32C48.5793 32 52.292 34.9092 52.292 38.4739C52.292 41.032 50.3802 43.2525 47.6157 44.3026C50.9636 44.914 53.9007 46.3607 56.049 48.3467C56.1468 48.386 56.2416 48.4323 56.3327 48.4857C56.8662 48.7978 57.0621 48.9483 57.3012 49.0163C57.5401 49.0844 57.8135 49.0677 58.4782 49.0969C59.3459 49.1351 60.0492 49.5966 60.2452 50.2575C60.3975 50.7649 60.4241 50.9787 60.5513 51.1511C60.6786 51.3236 60.9019 51.4487 61.3862 51.8053C62.0182 52.2684 62.1796 52.9766 61.7889 53.5837C61.4884 54.0488 61.3322 54.2264 61.2879 54.4224C61.2437 54.6182 61.3126 54.826 61.3921 55.3431L61.3925 55.3449C61.49 55.9999 61.061 56.6055 60.305 56.8831L61.5885 59.2285C61.6791 59.3939 61.6448 59.5851 61.4994 59.7247C61.3541 59.8643 61.1216 59.9291 60.8963 59.893L59.192 59.6201L58.2743 60.7765C58.1525 60.93 57.9313 61.0176 57.701 61.0035C57.4707 60.9895 57.2696 60.8761 57.1797 60.7095L56.0439 58.6061C55.6031 58.4967 55.3924 58.4338 55.1785 58.4338C55.0593 58.4338 54.941 58.4534 54.7835 58.4897L53.1261 61.2491C53.0282 61.4119 52.8231 61.5188 52.5934 61.5266C52.3638 61.5344 52.1476 61.4419 52.032 61.2863L51.1583 60.1095L49.4451 60.3444C49.2183 60.3755 48.9883 60.3054 48.8481 60.1625C48.7079 60.0195 48.6807 59.8275 48.7776 59.6641L50.365 56.987C50.2905 56.9629 50.2095 56.9364 50.1214 56.9068C49.3926 56.6642 48.9459 56.1241 48.952 55.519H45.563C45.5659 55.5537 45.5674 55.5887 45.5674 55.624C45.5674 56.1581 45.2272 56.6327 44.7079 56.9215C44.9429 57.181 45.0814 57.4973 45.0814 57.8376C45.0814 58.6132 44.364 59.2639 43.4224 59.4021C43.5369 59.6008 43.6006 59.8209 43.6006 60.0522C43.6006 60.9264 42.6869 61.6428 41.5682 61.6428H35.3529C33.3123 61.6428 32.0778 61.1966 30.804 60.8426ZM30.4337 52.3008C30.6521 52.4657 30.7919 52.694 30.8033 52.947C31.2222 52.9223 31.509 52.7755 31.7143 52.5435C32.6743 51.4563 32.5888 51.4769 33.8452 50.8346C35.5354 49.9694 35.4712 49.6152 36.1146 47.4264C36.1518 47.3002 36.2521 47.1908 36.393 47.1229C36.534 47.055 36.7039 47.0341 36.8647 47.065C38.2834 47.3377 38.9104 48.1735 39.0506 49.1621C39.178 50.0613 38.8666 51.0856 38.4656 51.8196H42.7613C43.8799 51.8196 44.795 52.5349 44.795 53.4103C44.795 53.7081 44.6887 53.9877 44.5044 54.2268C44.7028 54.3117 44.8814 54.4216 45.033 54.5512H49.0836C49.0835 54.5057 49.0792 54.4636 49.0698 54.422C49.0259 54.2261 48.8706 54.0493 48.5702 53.5843C48.1796 52.9774 48.338 52.2689 48.9721 51.8054C49.4568 51.4487 49.6799 51.3238 49.8068 51.1514C49.9338 50.979 49.96 50.7652 50.1115 50.2576C50.3096 49.5968 51.013 49.1351 51.8803 49.0969C52.5449 49.0677 52.8185 49.0844 53.0575 49.0163C53.2966 48.9483 53.4924 48.7978 54.0259 48.4857C54.1309 48.4242 54.2408 48.3721 54.3544 48.3292C51.7222 46.2417 48.0648 44.9479 44.0202 44.9479C37.8072 44.9479 32.5057 48.0041 30.4337 52.3008ZM30.804 53.9164V59.822C32.1056 60.1664 33.2849 60.6751 35.3529 60.6751H41.5682C42.0063 60.6751 42.3641 60.3945 42.3641 60.0522C42.3641 59.7093 42.0063 59.4292 41.5682 59.4292H39.0714C38.7301 59.4292 38.4532 59.2124 38.4532 58.9453C38.4532 58.6783 38.7301 58.4614 39.0714 58.4614H43.0489C43.4871 58.4614 43.8449 58.1806 43.8449 57.8376C43.8449 57.4952 43.487 57.2146 43.0489 57.2146H39.0714C38.7301 57.2146 38.4532 56.9978 38.4532 56.7308C38.4532 56.4637 38.7301 56.2469 39.0714 56.2469H43.535C43.9731 56.2469 44.3309 55.9669 44.3309 55.624C44.3309 55.2811 43.9731 55.001 43.535 55.001H39.0714C38.7301 55.001 38.4532 54.7842 38.4532 54.5172C38.4532 54.2501 38.7301 54.0333 39.0714 54.0333H42.7613C43.1996 54.0333 43.5585 53.7528 43.5585 53.4103C43.5585 53.0674 43.1996 52.7874 42.7613 52.7874H37.4088C37.1669 52.7874 36.9472 52.677 36.8466 52.5047C36.746 52.3325 36.783 52.1302 36.9412 51.987C37.4112 51.5618 37.9686 50.3053 37.8216 49.2688C37.7617 48.8456 37.5716 48.4569 37.1528 48.2135C36.5396 50.304 36.3709 50.698 34.5219 51.6444C33.4612 52.1868 33.5419 52.176 32.7313 53.0939C32.3031 53.5781 31.7042 53.8888 30.804 53.9164ZM44.0202 43.9801C47.8978 43.9801 51.0555 41.5058 51.0555 38.4739C51.0555 35.4421 47.8978 32.9677 44.0202 32.9677C40.1465 32.9677 36.9889 35.4421 36.9889 38.4739C36.9889 41.5057 40.1465 43.9801 44.0202 43.9801ZM59.1813 57.2878C59.1762 57.291 59.171 57.2943 59.166 57.2976C58.9712 57.4256 58.8532 57.6196 58.4892 58.056C58.2292 58.3668 57.8511 58.5822 57.4262 58.6801L57.854 59.4721L58.3689 58.8232C58.5055 58.6511 58.7645 58.5638 59.018 58.6045L59.9868 58.7595L59.1813 57.2878ZM53.2713 58.7325C52.7106 58.6875 52.1976 58.4484 51.8699 58.0566C51.6579 57.8029 51.529 57.631 51.4202 57.5064C51.0186 58.1836 50.3973 59.2313 50.3973 59.2313L51.3695 59.098C51.6247 59.0631 51.8806 59.1563 52.0107 59.3316L52.5086 60.0022L53.2713 58.7325ZM55.5922 49.2607C55.3433 49.115 55.0153 49.115 54.7665 49.2607C54.0711 49.6676 53.792 49.837 53.4805 49.9257C53.1689 50.0145 52.8164 50.0251 51.9498 50.0631C51.639 50.0768 51.3865 50.2414 51.3154 50.4782C51.1179 51.1399 51.0437 51.4098 50.8781 51.6347C50.7125 51.8596 50.4512 52.0451 49.8186 52.5109L49.8165 52.5124C49.5896 52.6779 49.5345 52.9312 49.6739 53.1482C50.0658 53.7546 50.2303 53.9989 50.2877 54.2544C50.3451 54.5099 50.2968 54.7834 50.1942 55.4582C50.1572 55.6989 50.3209 55.9218 50.6059 56.0165L50.608 56.0172C51.4064 56.2851 51.7331 56.3895 51.987 56.5565C52.2409 56.7234 52.4287 56.9574 52.9043 57.5266C53.074 57.7292 53.3823 57.8177 53.6802 57.7468C54.5106 57.5507 54.847 57.4661 55.1785 57.4661C55.51 57.4661 55.846 57.5505 56.6774 57.7466L56.6789 57.747C56.9757 57.8177 57.2847 57.7292 57.4541 57.5266C57.9288 56.9573 58.1168 56.7233 58.3711 56.5563C58.6253 56.3893 58.9524 56.2851 59.7506 56.0172L59.7527 56.0165C60.0381 55.9217 60.1999 55.6986 60.1643 55.4576C60.0606 54.7832 60.0126 54.5096 60.0703 54.2541C60.128 53.9986 60.293 53.7544 60.6847 53.1481C60.8244 52.9309 60.7673 52.6774 60.5411 52.5117L60.5401 52.5109C59.9077 52.0453 59.6463 51.8597 59.4805 51.635C59.3147 51.4101 59.24 51.1402 59.0413 50.4784L59.0408 50.4768C58.971 50.2406 58.7187 50.0768 58.4088 50.0631C57.5422 50.0251 57.1898 50.0145 56.8781 49.9257C56.5666 49.837 56.2877 49.6676 55.5922 49.2607ZM55.1783 56.8084C52.823 56.8084 50.9009 55.304 50.9009 53.4606C50.9009 51.6172 52.823 50.1128 55.1783 50.1128C57.536 50.1128 59.4558 51.6172 59.4558 53.4606C59.4558 55.304 57.536 56.8084 55.1783 56.8084ZM55.1783 55.8407C56.8544 55.8407 58.2193 54.7711 58.2193 53.4606C58.2193 52.15 56.8544 51.0806 55.1783 51.0806C53.5039 51.0806 52.1373 52.15 52.1373 53.4606C52.1373 54.7711 53.5039 55.8407 55.1783 55.8407ZM53.4582 53.8636C53.2166 53.6748 53.2163 53.3683 53.4574 53.1793C53.6984 52.9903 54.0902 52.99 54.3317 53.1787L54.6644 53.4386L56.0484 52.4565C56.3012 52.2771 56.6926 52.2921 56.9218 52.4899C57.1509 52.6878 57.1317 52.994 56.8789 53.1734L55.0592 54.4648C54.815 54.638 54.4403 54.6309 54.2071 54.4488L53.4582 53.8636ZM27.2365 53.0032V61.0322H29.5675V53.0032H27.2365Z" fill="white"/>
</svg>
