<svg width="185" height="175" viewBox="0 0 185 175" fill="none" xmlns="http://www.w3.org/2000/svg">
<rect width="185" height="175" rx="12" fill="white"/>
<path d="M13.8594 17L15.9414 23.2969H16.0234L18.1016 17H19.6953L16.875 25H15.0859L12.2695 17H13.8594ZM22.4392 25.1172C21.8532 25.1172 21.3454 24.9883 20.9157 24.7305C20.4861 24.4727 20.1527 24.112 19.9157 23.6484C19.6814 23.1849 19.5642 22.6432 19.5642 22.0234C19.5642 21.4036 19.6814 20.8607 19.9157 20.3945C20.1527 19.9284 20.4861 19.5664 20.9157 19.3086C21.3454 19.0508 21.8532 18.9219 22.4392 18.9219C23.0251 18.9219 23.5329 19.0508 23.9626 19.3086C24.3923 19.5664 24.7243 19.9284 24.9587 20.3945C25.1957 20.8607 25.3142 21.4036 25.3142 22.0234C25.3142 22.6432 25.1957 23.1849 24.9587 23.6484C24.7243 24.112 24.3923 24.4727 23.9626 24.7305C23.5329 24.9883 23.0251 25.1172 22.4392 25.1172ZM22.447 23.9844C22.7647 23.9844 23.0303 23.8971 23.2439 23.7227C23.4574 23.5456 23.6163 23.3086 23.7204 23.0117C23.8272 22.7148 23.8806 22.3841 23.8806 22.0195C23.8806 21.6523 23.8272 21.3203 23.7204 21.0234C23.6163 20.724 23.4574 20.4857 23.2439 20.3086C23.0303 20.1315 22.7647 20.043 22.447 20.043C22.1215 20.043 21.8506 20.1315 21.6345 20.3086C21.421 20.4857 21.2608 20.724 21.154 21.0234C21.0499 21.3203 20.9978 21.6523 20.9978 22.0195C20.9978 22.3841 21.0499 22.7148 21.154 23.0117C21.2608 23.3086 21.421 23.5456 21.6345 23.7227C21.8506 23.8971 22.1215 23.9844 22.447 23.9844ZM27.7084 17V25H26.2944V17H27.7084ZM32.7668 22.4766V19H34.1808V25H32.8097V23.9336H32.7472C32.6118 24.2695 32.3892 24.5443 32.0793 24.7578C31.772 24.9714 31.3931 25.0781 30.9425 25.0781C30.5493 25.0781 30.2017 24.9909 29.8996 24.8164C29.6001 24.6393 29.3657 24.3828 29.1964 24.0469C29.0272 23.7083 28.9425 23.2995 28.9425 22.8203V19H30.3566V22.6016C30.3566 22.9818 30.4608 23.2839 30.6691 23.5078C30.8774 23.7318 31.1509 23.8437 31.4894 23.8437C31.6977 23.8437 31.8996 23.793 32.0949 23.6914C32.2902 23.5898 32.4504 23.4388 32.5754 23.2383C32.703 23.0352 32.7668 22.7812 32.7668 22.4766ZM35.4149 25V19H36.7665V20.0195H36.8368C36.9618 19.6758 37.1688 19.4076 37.4579 19.2148C37.747 19.0195 38.092 18.9219 38.493 18.9219C38.8993 18.9219 39.2417 19.0208 39.5204 19.2187C39.8016 19.4141 39.9996 19.681 40.1141 20.0195H40.1766C40.3095 19.6862 40.5334 19.4206 40.8485 19.2227C41.1662 19.0221 41.5425 18.9219 41.9774 18.9219C42.5295 18.9219 42.98 19.0964 43.329 19.4453C43.6779 19.7943 43.8524 20.3034 43.8524 20.9727V25H42.4345V21.1914C42.4345 20.819 42.3355 20.5469 42.1376 20.375C41.9397 20.2005 41.6975 20.1133 41.411 20.1133C41.0699 20.1133 40.8029 20.2201 40.6102 20.4336C40.4201 20.6445 40.3251 20.9193 40.3251 21.2578V25H38.9384V21.1328C38.9384 20.8229 38.8446 20.5755 38.6571 20.3906C38.4722 20.2057 38.23 20.1133 37.9305 20.1133C37.7274 20.1133 37.5425 20.1654 37.3759 20.2695C37.2092 20.3711 37.0764 20.5156 36.9774 20.7031C36.8785 20.888 36.829 21.1042 36.829 21.3516V25H35.4149ZM47.7232 25.1172C47.1217 25.1172 46.6022 24.9922 46.1647 24.7422C45.7298 24.4896 45.3951 24.1328 45.1607 23.6719C44.9264 23.2083 44.8092 22.6628 44.8092 22.0352C44.8092 21.418 44.9264 20.8763 45.1607 20.4102C45.3977 19.9414 45.7285 19.5768 46.1529 19.3164C46.5774 19.0534 47.0761 18.9219 47.649 18.9219C48.0188 18.9219 48.3678 18.9818 48.6959 19.1016C49.0266 19.2187 49.3183 19.401 49.5709 19.6484C49.8261 19.8958 50.0266 20.2109 50.1725 20.5937C50.3183 20.974 50.3912 21.4271 50.3912 21.9531V22.3867H45.4732V21.4336H49.0357C49.0331 21.1628 48.9745 20.9219 48.86 20.7109C48.7454 20.4974 48.5852 20.3294 48.3795 20.207C48.1764 20.0846 47.9394 20.0234 47.6686 20.0234C47.3795 20.0234 47.1256 20.0937 46.9068 20.2344C46.6881 20.3724 46.5175 20.5547 46.3951 20.7812C46.2753 21.0052 46.2141 21.2513 46.2115 21.5195V22.3516C46.2115 22.7005 46.2753 23 46.4029 23.25C46.5305 23.4974 46.7089 23.6875 46.9381 23.8203C47.1673 23.9505 47.4355 24.0156 47.7428 24.0156C47.9485 24.0156 48.1347 23.987 48.3014 23.9297C48.468 23.8698 48.6126 23.7826 48.735 23.668C48.8574 23.5534 48.9498 23.4115 49.0123 23.2422L50.3326 23.3906C50.2493 23.7396 50.0904 24.0443 49.8561 24.3047C49.6243 24.5625 49.3274 24.763 48.9654 24.9062C48.6035 25.0469 48.1894 25.1172 47.7232 25.1172ZM59.2354 19L57.0987 25H55.5362L53.3995 19H54.9073L56.2862 23.457H56.3487L57.7315 19H59.2354ZM64.7361 20.5859L63.447 20.7266C63.4106 20.5964 63.3468 20.474 63.2556 20.3594C63.1671 20.2448 63.0473 20.1523 62.8963 20.082C62.7452 20.0117 62.5603 19.9766 62.3416 19.9766C62.0473 19.9766 61.7999 20.0404 61.5994 20.168C61.4015 20.2956 61.3038 20.4609 61.3064 20.6641C61.3038 20.8385 61.3676 20.9805 61.4978 21.0898C61.6306 21.1992 61.8494 21.2891 62.1541 21.3594L63.1775 21.5781C63.7452 21.7005 64.1671 21.8945 64.4431 22.1602C64.7218 22.4258 64.8624 22.7734 64.865 23.2031C64.8624 23.5807 64.7517 23.9141 64.533 24.2031C64.3168 24.4896 64.016 24.7135 63.6306 24.875C63.2452 25.0365 62.8025 25.1172 62.3025 25.1172C61.5681 25.1172 60.977 24.9635 60.5291 24.6562C60.0811 24.3464 59.8142 23.9154 59.7283 23.3633L61.1072 23.2305C61.1697 23.5013 61.3025 23.7057 61.5056 23.8437C61.7088 23.9818 61.9731 24.0508 62.2986 24.0508C62.6345 24.0508 62.9041 23.9818 63.1072 23.8437C63.3129 23.7057 63.4158 23.5352 63.4158 23.332C63.4158 23.1602 63.3494 23.0182 63.2166 22.9062C63.0864 22.7943 62.8832 22.7083 62.6072 22.6484L61.5838 22.4336C61.0082 22.3138 60.5824 22.112 60.3064 21.8281C60.0304 21.5417 59.8936 21.1797 59.8963 20.7422C59.8936 20.3724 59.9939 20.0521 60.197 19.7812C60.4028 19.5078 60.6879 19.2969 61.0525 19.1484C61.4197 18.9974 61.8429 18.9219 62.322 18.9219C63.0252 18.9219 63.5785 19.0716 63.9822 19.3711C64.3884 19.6706 64.6397 20.0755 64.7361 20.5859ZM72.7297 19.1992C72.6932 18.8581 72.5396 18.5924 72.2687 18.4023C72.0005 18.2122 71.6516 18.1172 71.2219 18.1172C70.9198 18.1172 70.6607 18.1628 70.4445 18.2539C70.2284 18.3451 70.063 18.4687 69.9484 18.625C69.8339 18.7812 69.7753 18.9596 69.7727 19.1602C69.7727 19.3268 69.8104 19.4714 69.8859 19.5937C69.9641 19.7161 70.0695 19.8203 70.2023 19.9062C70.3352 19.9896 70.4823 20.0599 70.6437 20.1172C70.8052 20.1745 70.968 20.2227 71.132 20.2617L71.882 20.4492C72.1841 20.5195 72.4745 20.6146 72.7531 20.7344C73.0344 20.8542 73.2857 21.0052 73.507 21.1875C73.731 21.3698 73.9081 21.5898 74.0383 21.8477C74.1685 22.1055 74.2336 22.4076 74.2336 22.7539C74.2336 23.2227 74.1138 23.6354 73.8742 23.9922C73.6346 24.3464 73.2883 24.6237 72.8352 24.8242C72.3846 25.0221 71.8391 25.1211 71.1984 25.1211C70.576 25.1211 70.0357 25.0247 69.5773 24.832C69.1216 24.6393 68.7648 24.3581 68.507 23.9883C68.2518 23.6185 68.1138 23.168 68.093 22.6367H69.5187C69.5396 22.9154 69.6255 23.1471 69.7766 23.332C69.9276 23.5169 70.1242 23.6549 70.3664 23.7461C70.6112 23.8372 70.8846 23.8828 71.1867 23.8828C71.5018 23.8828 71.7779 23.8359 72.0148 23.7422C72.2544 23.6458 72.4419 23.513 72.5773 23.3437C72.7128 23.1719 72.7818 22.9714 72.7844 22.7422C72.7818 22.5339 72.7206 22.362 72.6008 22.2266C72.481 22.0885 72.313 21.974 72.0969 21.8828C71.8833 21.7891 71.6333 21.7057 71.3469 21.6328L70.4367 21.3984C69.7779 21.2292 69.257 20.9727 68.8742 20.6289C68.494 20.2826 68.3039 19.8229 68.3039 19.25C68.3039 18.7786 68.4315 18.3659 68.6867 18.0117C68.9445 17.6576 69.2948 17.3828 69.7375 17.1875C70.1802 16.9896 70.6815 16.8906 71.2414 16.8906C71.8091 16.8906 72.3065 16.9896 72.7336 17.1875C73.1633 17.3828 73.5005 17.6549 73.7453 18.0039C73.9901 18.3503 74.1164 18.7487 74.1242 19.1992H72.7297ZM77.8993 25.1172C77.2978 25.1172 76.7782 24.9922 76.3407 24.7422C75.9058 24.4896 75.5712 24.1328 75.3368 23.6719C75.1025 23.2083 74.9853 22.6628 74.9853 22.0352C74.9853 21.418 75.1025 20.8763 75.3368 20.4102C75.5738 19.9414 75.9045 19.5768 76.329 19.3164C76.7535 19.0534 77.2522 18.9219 77.8251 18.9219C78.1949 18.9219 78.5439 18.9818 78.872 19.1016C79.2027 19.2187 79.4944 19.401 79.747 19.6484C80.0022 19.8958 80.2027 20.2109 80.3486 20.5937C80.4944 20.974 80.5673 21.4271 80.5673 21.9531V22.3867H75.6493V21.4336H79.2118C79.2092 21.1628 79.1506 20.9219 79.0361 20.7109C78.9215 20.4974 78.7613 20.3294 78.5556 20.207C78.3525 20.0846 78.1155 20.0234 77.8447 20.0234C77.5556 20.0234 77.3017 20.0937 77.0829 20.2344C76.8642 20.3724 76.6936 20.5547 76.5712 20.7812C76.4514 21.0052 76.3902 21.2513 76.3876 21.5195V22.3516C76.3876 22.7005 76.4514 23 76.579 23.25C76.7066 23.4974 76.885 23.6875 77.1142 23.8203C77.3433 23.9505 77.6116 24.0156 77.9189 24.0156C78.1246 24.0156 78.3108 23.987 78.4775 23.9297C78.6441 23.8698 78.7887 23.7826 78.9111 23.668C79.0335 23.5534 79.1259 23.4115 79.1884 23.2422L80.5087 23.3906C80.4254 23.7396 80.2665 24.0443 80.0322 24.3047C79.8004 24.5625 79.5035 24.763 79.1415 24.9062C78.7795 25.0469 78.3655 25.1172 77.8993 25.1172ZM81.5436 25V19H82.9147V20H82.9772C83.0866 19.6536 83.2741 19.3867 83.5397 19.1992C83.8079 19.0091 84.1139 18.9141 84.4577 18.9141C84.5358 18.9141 84.623 18.918 84.7194 18.9258C84.8183 18.931 84.9004 18.9401 84.9655 18.9531V20.2539C84.9056 20.2331 84.8105 20.2148 84.6803 20.1992C84.5527 20.181 84.429 20.1719 84.3092 20.1719C84.0514 20.1719 83.8196 20.2279 83.6139 20.3398C83.4108 20.4492 83.2506 20.6016 83.1334 20.7969C83.0163 20.9922 82.9577 21.2174 82.9577 21.4727V25H81.5436ZM91.2269 19L89.0902 25H87.5277L85.391 19H86.8988L88.2777 23.457H88.3402L89.723 19H91.2269ZM91.9854 25V19H93.3995V25H91.9854ZM92.6964 18.1484C92.4724 18.1484 92.2797 18.0742 92.1182 17.9258C91.9568 17.7747 91.8761 17.5937 91.8761 17.3828C91.8761 17.1693 91.9568 16.9883 92.1182 16.8398C92.2797 16.6888 92.4724 16.6133 92.6964 16.6133C92.9229 16.6133 93.1156 16.6888 93.2745 16.8398C93.4359 16.9883 93.5167 17.1693 93.5167 17.3828C93.5167 17.5937 93.4359 17.7747 93.2745 17.9258C93.1156 18.0742 92.9229 18.1484 92.6964 18.1484ZM97.2508 25.1172C96.6518 25.1172 96.1375 24.9857 95.7078 24.7227C95.2807 24.4596 94.9513 24.0964 94.7195 23.6328C94.4904 23.1667 94.3758 22.6302 94.3758 22.0234C94.3758 21.4141 94.493 20.8763 94.7273 20.4102C94.9617 19.9414 95.2924 19.5768 95.7195 19.3164C96.1492 19.0534 96.657 18.9219 97.243 18.9219C97.7299 18.9219 98.1609 19.0117 98.5359 19.1914C98.9135 19.3685 99.2143 19.6198 99.4383 19.9453C99.6622 20.2682 99.7898 20.6458 99.8211 21.0781H98.4695C98.4148 20.7891 98.2846 20.5482 98.0789 20.3555C97.8758 20.1602 97.6036 20.0625 97.2625 20.0625C96.9734 20.0625 96.7195 20.1406 96.5008 20.2969C96.282 20.4505 96.1115 20.6719 95.9891 20.9609C95.8693 21.25 95.8094 21.5964 95.8094 22C95.8094 22.4089 95.8693 22.7604 95.9891 23.0547C96.1089 23.3464 96.2768 23.5716 96.493 23.7305C96.7117 23.8867 96.9682 23.9648 97.2625 23.9648C97.4708 23.9648 97.657 23.9258 97.8211 23.8477C97.9878 23.7669 98.1271 23.651 98.2391 23.5C98.351 23.349 98.4279 23.1654 98.4695 22.9492H99.8211C99.7872 23.3737 99.6622 23.75 99.4461 24.0781C99.2299 24.4036 98.9357 24.6589 98.5633 24.8437C98.1909 25.026 97.7534 25.1172 97.2508 25.1172ZM103.418 25.1172C102.817 25.1172 102.297 24.9922 101.86 24.7422C101.425 24.4896 101.09 24.1328 100.856 23.6719C100.622 23.2083 100.504 22.6628 100.504 22.0352C100.504 21.418 100.622 20.8763 100.856 20.4102C101.093 19.9414 101.424 19.5768 101.848 19.3164C102.273 19.0534 102.771 18.9219 103.344 18.9219C103.714 18.9219 104.063 18.9818 104.391 19.1016C104.722 19.2187 105.014 19.401 105.266 19.6484C105.521 19.8958 105.722 20.2109 105.868 20.5937C106.014 20.974 106.086 21.4271 106.086 21.9531V22.3867H101.168V21.4336H104.731C104.728 21.1628 104.67 20.9219 104.555 20.7109C104.441 20.4974 104.28 20.3294 104.075 20.207C103.872 20.0846 103.635 20.0234 103.364 20.0234C103.075 20.0234 102.821 20.0937 102.602 20.2344C102.383 20.3724 102.213 20.5547 102.09 20.7812C101.971 21.0052 101.909 21.2513 101.907 21.5195V22.3516C101.907 22.7005 101.971 23 102.098 23.25C102.226 23.4974 102.404 23.6875 102.633 23.8203C102.862 23.9505 103.131 24.0156 103.438 24.0156C103.644 24.0156 103.83 23.987 103.997 23.9297C104.163 23.8698 104.308 23.7826 104.43 23.668C104.553 23.5534 104.645 23.4115 104.708 23.2422L106.028 23.3906C105.945 23.7396 105.786 24.0443 105.551 24.3047C105.32 24.5625 105.023 24.763 104.661 24.9062C104.299 25.0469 103.885 25.1172 103.418 25.1172ZM109.634 25V17H111.083V23.7852H114.606V25H109.634ZM118.238 25.1172C117.636 25.1172 117.117 24.9922 116.679 24.7422C116.244 24.4896 115.91 24.1328 115.675 23.6719C115.441 23.2083 115.324 22.6628 115.324 22.0352C115.324 21.418 115.441 20.8763 115.675 20.4102C115.912 19.9414 116.243 19.5768 116.668 19.3164C117.092 19.0534 117.591 18.9219 118.164 18.9219C118.534 18.9219 118.882 18.9818 119.211 19.1016C119.541 19.2187 119.833 19.401 120.086 19.6484C120.341 19.8958 120.541 20.2109 120.687 20.5937C120.833 20.974 120.906 21.4271 120.906 21.9531V22.3867H115.988V21.4336H119.55C119.548 21.1628 119.489 20.9219 119.375 20.7109C119.26 20.4974 119.1 20.3294 118.894 20.207C118.691 20.0846 118.454 20.0234 118.183 20.0234C117.894 20.0234 117.64 20.0937 117.422 20.2344C117.203 20.3724 117.032 20.5547 116.91 20.7812C116.79 21.0052 116.729 21.2513 116.726 21.5195V22.3516C116.726 22.7005 116.79 23 116.918 23.25C117.045 23.4974 117.224 23.6875 117.453 23.8203C117.682 23.9505 117.95 24.0156 118.257 24.0156C118.463 24.0156 118.649 23.987 118.816 23.9297C118.983 23.8698 119.127 23.7826 119.25 23.668C119.372 23.5534 119.465 23.4115 119.527 23.2422L120.847 23.3906C120.764 23.7396 120.605 24.0443 120.371 24.3047C120.139 24.5625 119.842 24.763 119.48 24.9062C119.118 25.0469 118.704 25.1172 118.238 25.1172ZM127.07 19L124.933 25H123.371L121.234 19H122.742L124.121 23.457H124.183L125.566 19H127.07ZM130.28 25.1172C129.679 25.1172 129.159 24.9922 128.722 24.7422C128.287 24.4896 127.952 24.1328 127.718 23.6719C127.484 23.2083 127.366 22.6628 127.366 22.0352C127.366 21.418 127.484 20.8763 127.718 20.4102C127.955 19.9414 128.286 19.5768 128.71 19.3164C129.135 19.0534 129.633 18.9219 130.206 18.9219C130.576 18.9219 130.925 18.9818 131.253 19.1016C131.584 19.2187 131.875 19.401 132.128 19.6484C132.383 19.8958 132.584 20.2109 132.73 20.5937C132.875 20.974 132.948 21.4271 132.948 21.9531V22.3867H128.03V21.4336H131.593C131.59 21.1628 131.532 20.9219 131.417 20.7109C131.303 20.4974 131.142 20.3294 130.937 20.207C130.734 20.0846 130.497 20.0234 130.226 20.0234C129.937 20.0234 129.683 20.0937 129.464 20.2344C129.245 20.3724 129.075 20.5547 128.952 20.7812C128.832 21.0052 128.771 21.2513 128.769 21.5195V22.3516C128.769 22.7005 128.832 23 128.96 23.25C129.088 23.4974 129.266 23.6875 129.495 23.8203C129.724 23.9505 129.993 24.0156 130.3 24.0156C130.506 24.0156 130.692 23.987 130.859 23.9297C131.025 23.8698 131.17 23.7826 131.292 23.668C131.415 23.5534 131.507 23.4115 131.569 23.2422L132.89 23.3906C132.806 23.7396 132.648 24.0443 132.413 24.3047C132.181 24.5625 131.885 24.763 131.523 24.9062C131.161 25.0469 130.747 25.1172 130.28 25.1172ZM135.339 17V25H133.925V17H135.339Z" fill="#1B1464"/>
<rect x="25" y="55" width="6" height="69" fill="#1B1464"/>
<rect x="25" y="92" width="6" height="32" fill="#0666E5"/>
<rect x="51" y="40" width="6" height="84" fill="#1B1464"/>
<rect x="51" y="80" width="6" height="44" fill="#0666E5"/>
<rect x="77" y="55" width="6" height="69" fill="#1B1464"/>
<rect x="77" y="106" width="6" height="18" fill="#0666E5"/>
<rect x="103" y="62" width="6" height="62" fill="#1B1464"/>
<rect x="103" y="104" width="6" height="20" fill="#0666E5"/>
<rect x="129" y="76" width="6" height="48" fill="#1B1464"/>
<rect x="129" y="106" width="6" height="18" fill="#0666E5"/>
<rect x="155" y="73" width="6" height="51" fill="#1B1464"/>
<rect x="155" y="94" width="6" height="30" fill="#0666E5"/>
<path d="M0 135.5H184.5" stroke="#E5E5E5" stroke-width="0.75"/>
<circle cx="44" cy="150" r="3" fill="#C9E0FF"/>
<path d="M53.3523 147.182L54.8665 151.761H54.9261L56.4375 147.182H57.5966L55.5455 153H54.2443L52.196 147.182H53.3523ZM59.5921 153.085C59.166 153.085 58.7967 152.991 58.4842 152.804C58.1717 152.616 57.9293 152.354 57.7569 152.017C57.5864 151.68 57.5012 151.286 57.5012 150.835C57.5012 150.384 57.5864 149.99 57.7569 149.651C57.9293 149.312 58.1717 149.048 58.4842 148.861C58.7967 148.673 59.166 148.58 59.5921 148.58C60.0183 148.58 60.3876 148.673 60.7001 148.861C61.0126 149.048 61.2541 149.312 61.4245 149.651C61.5969 149.99 61.683 150.384 61.683 150.835C61.683 151.286 61.5969 151.68 61.4245 152.017C61.2541 152.354 61.0126 152.616 60.7001 152.804C60.3876 152.991 60.0183 153.085 59.5921 153.085ZM59.5978 152.261C59.8289 152.261 60.0221 152.198 60.1774 152.071C60.3327 151.942 60.4482 151.77 60.5239 151.554C60.6016 151.338 60.6404 151.098 60.6404 150.832C60.6404 150.565 60.6016 150.324 60.5239 150.108C60.4482 149.89 60.3327 149.717 60.1774 149.588C60.0221 149.459 59.8289 149.395 59.5978 149.395C59.3611 149.395 59.1641 149.459 59.0069 149.588C58.8516 149.717 58.7351 149.89 58.6575 150.108C58.5817 150.324 58.5438 150.565 58.5438 150.832C58.5438 151.098 58.5817 151.338 58.6575 151.554C58.7351 151.77 58.8516 151.942 59.0069 152.071C59.1641 152.198 59.3611 152.261 59.5978 152.261ZM63.4243 147.182V153H62.3959V147.182H63.4243ZM67.1031 151.165V148.636H68.1315V153H67.1343V152.224H67.0889C66.9904 152.469 66.8285 152.669 66.6031 152.824C66.3796 152.979 66.104 153.057 65.7764 153.057C65.4904 153.057 65.2376 152.993 65.0179 152.866C64.8001 152.738 64.6296 152.551 64.5065 152.307C64.3834 152.061 64.3218 151.763 64.3218 151.415V148.636H65.3503V151.256C65.3503 151.532 65.426 151.752 65.5775 151.915C65.729 152.078 65.9279 152.159 66.1741 152.159C66.3256 152.159 66.4724 152.122 66.6145 152.048C66.7565 151.974 66.873 151.865 66.9639 151.719C67.0567 151.571 67.1031 151.386 67.1031 151.165ZM69.029 153V148.636H70.012V149.378H70.0631C70.154 149.128 70.3046 148.933 70.5148 148.793C70.7251 148.651 70.976 148.58 71.2677 148.58C71.5631 148.58 71.8122 148.652 72.0148 148.795C72.2194 148.937 72.3633 149.132 72.4466 149.378H72.4921C72.5887 149.135 72.7516 148.942 72.9807 148.798C73.2118 148.652 73.4855 148.58 73.8018 148.58C74.2033 148.58 74.5309 148.706 74.7847 148.96C75.0385 149.214 75.1654 149.584 75.1654 150.071V153H74.1341V150.23C74.1341 149.959 74.0622 149.761 73.9182 149.636C73.7743 149.509 73.5982 149.446 73.3898 149.446C73.1417 149.446 72.9476 149.524 72.8074 149.679C72.6692 149.832 72.6001 150.032 72.6001 150.278V153H71.5915V150.188C71.5915 149.962 71.5234 149.782 71.387 149.648C71.2525 149.513 71.0764 149.446 70.8586 149.446C70.7109 149.446 70.5764 149.484 70.4552 149.56C70.334 149.634 70.2374 149.739 70.1654 149.875C70.0934 150.009 70.0574 150.167 70.0574 150.347V153H69.029ZM77.9805 153.085C77.543 153.085 77.1652 152.994 76.847 152.812C76.5307 152.629 76.2874 152.369 76.1169 152.034C75.9464 151.697 75.8612 151.3 75.8612 150.844C75.8612 150.395 75.9464 150.001 76.1169 149.662C76.2893 149.321 76.5298 149.056 76.8385 148.866C77.1472 148.675 77.5099 148.58 77.9266 148.58C78.1955 148.58 78.4493 148.623 78.6879 148.71C78.9285 148.795 79.1406 148.928 79.3243 149.108C79.5099 149.288 79.6557 149.517 79.7618 149.795C79.8679 150.072 79.9209 150.402 79.9209 150.784V151.099H76.3442V150.406H78.9351C78.9332 150.209 78.8906 150.034 78.8072 149.881C78.7239 149.725 78.6074 149.603 78.4578 149.514C78.3101 149.425 78.1377 149.381 77.9408 149.381C77.7305 149.381 77.5459 149.432 77.3868 149.534C77.2277 149.634 77.1036 149.767 77.0146 149.932C76.9275 150.095 76.883 150.274 76.8811 150.469V151.074C76.8811 151.328 76.9275 151.545 77.0203 151.727C77.1131 151.907 77.2429 152.045 77.4095 152.142C77.5762 152.237 77.7713 152.284 77.9947 152.284C78.1444 152.284 78.2798 152.263 78.401 152.222C78.5222 152.178 78.6273 152.115 78.7163 152.031C78.8054 151.948 78.8726 151.845 78.918 151.722L79.8783 151.83C79.8177 152.083 79.7021 152.305 79.5317 152.494C79.3631 152.682 79.1472 152.828 78.8839 152.932C78.6207 153.034 78.3196 153.085 77.9805 153.085Z" fill="#B3B3B3"/>
<path d="M53.5231 159.909V165H52.6009V160.806H52.571L51.3803 161.567V160.722L52.6456 159.909H53.5231ZM55.4618 164.304L55.4295 164.577C55.4063 164.786 55.3649 164.998 55.3052 165.214C55.2472 165.431 55.1859 165.631 55.1213 165.813C55.0566 165.995 55.0044 166.138 54.9647 166.243H54.3581C54.3813 166.142 54.4128 166.004 54.4526 165.83C54.494 165.656 54.5338 165.461 54.5719 165.244C54.61 165.027 54.6357 164.806 54.649 164.582L54.6664 164.304H55.4618ZM57.7616 159.909V165H56.8394V160.806H56.8096L55.6189 161.567V160.722L56.8842 159.909H57.7616ZM60.7413 165.07C60.3834 165.07 60.0652 165.008 59.7868 164.886C59.51 164.763 59.2913 164.592 59.1305 164.374C58.9698 164.155 58.8844 163.902 58.8745 163.615H59.8091C59.8174 163.753 59.863 163.873 59.9459 163.976C60.0287 164.077 60.1389 164.156 60.2765 164.212C60.414 164.268 60.5681 164.297 60.7388 164.297C60.9211 164.297 61.0827 164.265 61.2236 164.202C61.3644 164.137 61.4746 164.048 61.5542 163.934C61.6337 163.819 61.6727 163.687 61.671 163.538C61.6727 163.384 61.6329 163.248 61.5517 163.131C61.4705 163.013 61.3528 162.921 61.1987 162.855C61.0462 162.788 60.8623 162.755 60.6469 162.755H60.1969V162.044H60.6469C60.8242 162.044 60.9791 162.014 61.1117 161.952C61.2459 161.891 61.3512 161.805 61.4274 161.694C61.5036 161.581 61.5409 161.451 61.5393 161.304C61.5409 161.159 61.5086 161.034 61.4423 160.928C61.3777 160.821 61.2857 160.737 61.1664 160.677C61.0487 160.618 60.9103 160.588 60.7513 160.588C60.5955 160.588 60.4513 160.616 60.3187 160.672C60.1861 160.729 60.0793 160.809 59.9981 160.913C59.9169 161.016 59.8738 161.139 59.8688 161.281H58.9814C58.988 160.996 59.07 160.746 59.2275 160.531C59.3866 160.313 59.5987 160.144 59.8638 160.023C60.129 159.901 60.4264 159.839 60.7562 159.839C61.096 159.839 61.3909 159.903 61.6412 160.031C61.8931 160.157 62.0878 160.327 62.2253 160.54C62.3629 160.754 62.4317 160.99 62.4317 161.249C62.4333 161.536 62.3488 161.776 62.1781 161.97C62.0091 162.164 61.787 162.29 61.5119 162.35V162.39C61.8699 162.44 62.1441 162.572 62.3347 162.788C62.5269 163.001 62.6222 163.267 62.6206 163.586C62.6206 163.871 62.5394 164.126 62.377 164.351C62.2162 164.575 61.9942 164.751 61.7108 164.878C61.429 165.006 61.1059 165.07 60.7413 165.07ZM65.1037 165.07C64.7723 165.07 64.4756 165.007 64.2138 164.883C63.952 164.757 63.744 164.585 63.5899 164.366C63.4374 164.147 63.3562 163.897 63.3462 163.615H64.2411C64.2577 163.824 64.348 163.995 64.5121 164.127C64.6762 164.258 64.8734 164.324 65.1037 164.324C65.2843 164.324 65.4451 164.282 65.586 164.2C65.7268 164.117 65.8378 164.002 65.919 163.854C66.0003 163.707 66.04 163.538 66.0384 163.349C66.04 163.157 65.9994 162.987 65.9166 162.837C65.8337 162.688 65.7202 162.571 65.576 162.487C65.4318 162.401 65.2661 162.358 65.0788 162.358C64.9264 162.356 64.7764 162.384 64.6289 162.442C64.4814 162.5 64.3646 162.576 64.2784 162.671L63.4457 162.534L63.7117 159.909H66.6648V160.68H64.4748L64.3281 162.029H64.358C64.4524 161.918 64.5858 161.826 64.7582 161.754C64.9305 161.679 65.1195 161.642 65.3249 161.642C65.6332 161.642 65.9083 161.715 66.1502 161.86C66.3922 162.005 66.5828 162.203 66.722 162.457C66.8612 162.711 66.9308 163.001 66.9308 163.327C66.9308 163.663 66.8529 163.963 66.6971 164.227C66.543 164.489 66.3284 164.695 66.0533 164.846C65.7798 164.995 65.4633 165.07 65.1037 165.07Z" fill="#1B1464"/>
<circle cx="104" cy="150" r="3" fill="#D0FFA0"/>
<path d="M114.317 165.07C114.073 165.068 113.835 165.026 113.603 164.943C113.371 164.858 113.163 164.722 112.977 164.533C112.791 164.342 112.644 164.089 112.534 163.775C112.425 163.458 112.371 163.066 112.373 162.599C112.373 162.163 112.419 161.774 112.512 161.433C112.605 161.092 112.738 160.803 112.912 160.568C113.086 160.331 113.296 160.15 113.541 160.026C113.788 159.902 114.064 159.839 114.369 159.839C114.689 159.839 114.972 159.902 115.219 160.028C115.468 160.154 115.668 160.327 115.821 160.545C115.973 160.763 116.068 161.008 116.104 161.281H115.197C115.15 161.086 115.055 160.93 114.911 160.814C114.768 160.696 114.588 160.637 114.369 160.637C114.016 160.637 113.744 160.791 113.554 161.097C113.365 161.404 113.269 161.825 113.268 162.36H113.303C113.384 162.214 113.489 162.089 113.618 161.985C113.748 161.88 113.893 161.8 114.056 161.744C114.22 161.686 114.393 161.657 114.575 161.657C114.874 161.657 115.141 161.728 115.378 161.87C115.617 162.013 115.806 162.209 115.945 162.46C116.084 162.708 116.153 162.993 116.151 163.315C116.153 163.649 116.077 163.95 115.923 164.217C115.768 164.482 115.554 164.691 115.279 164.843C115.004 164.996 114.683 165.071 114.317 165.07ZM114.312 164.324C114.492 164.324 114.654 164.28 114.797 164.192C114.939 164.104 115.052 163.986 115.135 163.837C115.217 163.687 115.258 163.52 115.256 163.335C115.258 163.152 115.218 162.987 115.137 162.84C115.058 162.692 114.947 162.576 114.806 162.489C114.666 162.403 114.505 162.36 114.324 162.36C114.19 162.36 114.065 162.386 113.949 162.437C113.833 162.489 113.732 162.56 113.646 162.651C113.559 162.74 113.491 162.845 113.442 162.964C113.394 163.082 113.369 163.208 113.367 163.342C113.369 163.519 113.41 163.683 113.491 163.832C113.573 163.981 113.685 164.1 113.827 164.19C113.97 164.279 114.131 164.324 114.312 164.324ZM118.679 165.07C118.321 165.07 118.002 165.008 117.724 164.886C117.447 164.763 117.228 164.592 117.068 164.374C116.907 164.155 116.822 163.902 116.812 163.615H117.746C117.755 163.753 117.8 163.873 117.883 163.976C117.966 164.077 118.076 164.156 118.214 164.212C118.351 164.268 118.505 164.297 118.676 164.297C118.858 164.297 119.02 164.265 119.161 164.202C119.302 164.137 119.412 164.048 119.491 163.934C119.571 163.819 119.61 163.687 119.608 163.538C119.61 163.384 119.57 163.248 119.489 163.131C119.408 163.013 119.29 162.921 119.136 162.855C118.983 162.788 118.8 162.755 118.584 162.755H118.134V162.044H118.584C118.761 162.044 118.916 162.014 119.049 161.952C119.183 161.891 119.288 161.805 119.365 161.694C119.441 161.581 119.478 161.451 119.476 161.304C119.478 161.159 119.446 161.034 119.38 160.928C119.315 160.821 119.223 160.737 119.104 160.677C118.986 160.618 118.848 160.588 118.688 160.588C118.533 160.588 118.389 160.616 118.256 160.672C118.123 160.729 118.016 160.809 117.935 160.913C117.854 161.016 117.811 161.139 117.806 161.281H116.919C116.925 160.996 117.007 160.746 117.165 160.531C117.324 160.313 117.536 160.144 117.801 160.023C118.066 159.901 118.364 159.839 118.693 159.839C119.033 159.839 119.328 159.903 119.578 160.031C119.83 160.157 120.025 160.327 120.163 160.54C120.3 160.754 120.369 160.99 120.369 161.249C120.371 161.536 120.286 161.776 120.115 161.97C119.946 162.164 119.724 162.29 119.449 162.35V162.39C119.807 162.44 120.081 162.572 120.272 162.788C120.464 163.001 120.559 163.267 120.558 163.586C120.558 163.871 120.477 164.126 120.314 164.351C120.153 164.575 119.931 164.751 119.648 164.878C119.366 165.006 119.043 165.07 118.679 165.07ZM123.041 165.07C122.709 165.07 122.413 165.007 122.151 164.883C121.889 164.757 121.681 164.585 121.527 164.366C121.375 164.147 121.293 163.897 121.283 163.615H122.178C122.195 163.824 122.285 163.995 122.449 164.127C122.613 164.258 122.811 164.324 123.041 164.324C123.222 164.324 123.382 164.282 123.523 164.2C123.664 164.117 123.775 164.002 123.856 163.854C123.937 163.707 123.977 163.538 123.976 163.349C123.977 163.157 123.937 162.987 123.854 162.837C123.771 162.688 123.657 162.571 123.513 162.487C123.369 162.401 123.203 162.358 123.016 162.358C122.864 162.356 122.714 162.384 122.566 162.442C122.419 162.5 122.302 162.576 122.216 162.671L121.383 162.534L121.649 159.909H124.602V160.68H122.412L122.265 162.029H122.295C122.39 161.918 122.523 161.826 122.695 161.754C122.868 161.679 123.057 161.642 123.262 161.642C123.57 161.642 123.846 161.715 124.087 161.86C124.329 162.005 124.52 162.203 124.659 162.457C124.798 162.711 124.868 163.001 124.868 163.327C124.868 163.663 124.79 163.963 124.634 164.227C124.48 164.489 124.266 164.695 123.991 164.846C123.717 164.995 123.401 165.07 123.041 165.07Z" fill="#1B1464"/>
<path d="M115.736 148.781C115.709 148.533 115.598 148.34 115.401 148.202C115.205 148.063 114.952 147.994 114.639 147.994C114.42 147.994 114.231 148.027 114.074 148.094C113.917 148.16 113.796 148.25 113.713 148.364C113.63 148.477 113.587 148.607 113.585 148.753C113.585 148.874 113.613 148.979 113.668 149.068C113.724 149.157 113.801 149.233 113.898 149.295C113.994 149.356 114.101 149.407 114.219 149.449C114.336 149.491 114.455 149.526 114.574 149.554L115.119 149.69C115.339 149.741 115.55 149.811 115.753 149.898C115.957 149.985 116.14 150.095 116.301 150.227C116.464 150.36 116.593 150.52 116.688 150.707C116.782 150.895 116.83 151.115 116.83 151.366C116.83 151.707 116.742 152.008 116.568 152.267C116.394 152.525 116.142 152.726 115.812 152.872C115.485 153.016 115.088 153.088 114.622 153.088C114.17 153.088 113.777 153.018 113.443 152.878C113.112 152.738 112.852 152.533 112.665 152.264C112.479 151.995 112.379 151.668 112.364 151.281H113.401C113.416 151.484 113.478 151.652 113.588 151.787C113.698 151.921 113.841 152.022 114.017 152.088C114.195 152.154 114.394 152.188 114.614 152.188C114.843 152.188 115.044 152.153 115.216 152.085C115.39 152.015 115.527 151.919 115.625 151.795C115.723 151.67 115.774 151.525 115.776 151.358C115.774 151.206 115.729 151.081 115.642 150.983C115.555 150.883 115.433 150.799 115.276 150.733C115.12 150.665 114.938 150.604 114.73 150.551L114.068 150.381C113.589 150.258 113.21 150.071 112.932 149.821C112.655 149.569 112.517 149.235 112.517 148.818C112.517 148.475 112.61 148.175 112.795 147.918C112.983 147.66 113.238 147.46 113.56 147.318C113.882 147.174 114.246 147.102 114.653 147.102C115.066 147.102 115.428 147.174 115.739 147.318C116.051 147.46 116.296 147.658 116.474 147.912C116.652 148.164 116.744 148.454 116.75 148.781H115.736ZM119.496 153.085C119.058 153.085 118.68 152.994 118.362 152.812C118.046 152.629 117.802 152.369 117.632 152.034C117.461 151.697 117.376 151.3 117.376 150.844C117.376 150.395 117.461 150.001 117.632 149.662C117.804 149.321 118.045 149.056 118.353 148.866C118.662 148.675 119.025 148.58 119.442 148.58C119.711 148.58 119.964 148.623 120.203 148.71C120.443 148.795 120.656 148.928 120.839 149.108C121.025 149.288 121.171 149.517 121.277 149.795C121.383 150.072 121.436 150.402 121.436 150.784V151.099H117.859V150.406H120.45C120.448 150.209 120.406 150.034 120.322 149.881C120.239 149.725 120.122 149.603 119.973 149.514C119.825 149.425 119.653 149.381 119.456 149.381C119.246 149.381 119.061 149.432 118.902 149.534C118.743 149.634 118.619 149.767 118.53 149.932C118.443 150.095 118.398 150.274 118.396 150.469V151.074C118.396 151.328 118.443 151.545 118.535 151.727C118.628 151.907 118.758 152.045 118.925 152.142C119.091 152.237 119.286 152.284 119.51 152.284C119.659 152.284 119.795 152.263 119.916 152.222C120.037 152.178 120.142 152.115 120.231 152.031C120.32 151.948 120.388 151.845 120.433 151.722L121.393 151.83C121.333 152.083 121.217 152.305 121.047 152.494C120.878 152.682 120.662 152.828 120.399 152.932C120.136 153.034 119.835 153.085 119.496 153.085ZM122.146 153V148.636H123.143V149.364H123.189C123.268 149.112 123.404 148.918 123.598 148.781C123.793 148.643 124.015 148.574 124.265 148.574C124.322 148.574 124.385 148.577 124.456 148.582C124.528 148.586 124.587 148.593 124.635 148.602V149.548C124.591 149.533 124.522 149.52 124.427 149.509C124.334 149.495 124.244 149.489 124.157 149.489C123.97 149.489 123.801 149.529 123.652 149.611C123.504 149.69 123.387 149.801 123.302 149.943C123.217 150.085 123.174 150.249 123.174 150.435V153H122.146ZM129.188 148.636L127.634 153H126.498L124.944 148.636H126.041L127.043 151.878H127.089L128.095 148.636H129.188ZM129.74 153V148.636H130.768V153H129.74ZM130.257 148.017C130.094 148.017 129.954 147.963 129.837 147.855C129.719 147.745 129.66 147.614 129.66 147.46C129.66 147.305 129.719 147.173 129.837 147.065C129.954 146.955 130.094 146.901 130.257 146.901C130.422 146.901 130.562 146.955 130.677 147.065C130.795 147.173 130.854 147.305 130.854 147.46C130.854 147.614 130.795 147.745 130.677 147.855C130.562 147.963 130.422 148.017 130.257 148.017ZM133.569 153.085C133.134 153.085 132.76 152.99 132.447 152.798C132.137 152.607 131.897 152.343 131.728 152.006C131.562 151.667 131.478 151.277 131.478 150.835C131.478 150.392 131.564 150.001 131.734 149.662C131.905 149.321 132.145 149.056 132.456 148.866C132.768 148.675 133.138 148.58 133.564 148.58C133.918 148.58 134.231 148.645 134.504 148.776C134.779 148.904 134.997 149.087 135.16 149.324C135.323 149.559 135.416 149.833 135.439 150.148H134.456C134.416 149.937 134.321 149.762 134.172 149.622C134.024 149.48 133.826 149.409 133.578 149.409C133.368 149.409 133.183 149.466 133.024 149.58C132.865 149.691 132.741 149.852 132.652 150.062C132.565 150.273 132.521 150.525 132.521 150.818C132.521 151.116 132.565 151.371 132.652 151.585C132.739 151.797 132.861 151.961 133.018 152.077C133.177 152.19 133.364 152.247 133.578 152.247C133.729 152.247 133.865 152.219 133.984 152.162C134.105 152.103 134.207 152.019 134.288 151.909C134.37 151.799 134.425 151.666 134.456 151.509H135.439C135.414 151.817 135.323 152.091 135.166 152.33C135.009 152.566 134.795 152.752 134.524 152.886C134.253 153.019 133.935 153.085 133.569 153.085ZM138.055 153.085C137.617 153.085 137.24 152.994 136.921 152.812C136.605 152.629 136.362 152.369 136.191 152.034C136.021 151.697 135.936 151.3 135.936 150.844C135.936 150.395 136.021 150.001 136.191 149.662C136.364 149.321 136.604 149.056 136.913 148.866C137.222 148.675 137.584 148.58 138.001 148.58C138.27 148.58 138.524 148.623 138.762 148.71C139.003 148.795 139.215 148.928 139.399 149.108C139.584 149.288 139.73 149.517 139.836 149.795C139.942 150.072 139.995 150.402 139.995 150.784V151.099H136.419V150.406H139.009C139.008 150.209 138.965 150.034 138.882 149.881C138.798 149.725 138.682 149.603 138.532 149.514C138.384 149.425 138.212 149.381 138.015 149.381C137.805 149.381 137.62 149.432 137.461 149.534C137.302 149.634 137.178 149.767 137.089 149.932C137.002 150.095 136.957 150.274 136.955 150.469V151.074C136.955 151.328 137.002 151.545 137.095 151.727C137.187 151.907 137.317 152.045 137.484 152.142C137.651 152.237 137.846 152.284 138.069 152.284C138.219 152.284 138.354 152.263 138.475 152.222C138.597 152.178 138.702 152.115 138.791 152.031C138.88 151.948 138.947 151.845 138.992 151.722L139.953 151.83C139.892 152.083 139.777 152.305 139.606 152.494C139.437 152.682 139.222 152.828 138.958 152.932C138.695 153.034 138.394 153.085 138.055 153.085ZM144.154 149.79L143.217 149.892C143.19 149.797 143.144 149.708 143.077 149.625C143.013 149.542 142.926 149.474 142.816 149.423C142.706 149.372 142.572 149.347 142.413 149.347C142.199 149.347 142.019 149.393 141.873 149.486C141.729 149.579 141.658 149.699 141.66 149.847C141.658 149.973 141.704 150.077 141.799 150.156C141.896 150.236 142.055 150.301 142.276 150.352L143.021 150.511C143.434 150.6 143.74 150.741 143.941 150.935C144.144 151.128 144.246 151.381 144.248 151.693C144.246 151.968 144.166 152.21 144.006 152.42C143.849 152.629 143.63 152.792 143.35 152.909C143.07 153.027 142.748 153.085 142.384 153.085C141.85 153.085 141.42 152.973 141.094 152.75C140.769 152.525 140.575 152.211 140.512 151.81L141.515 151.713C141.56 151.91 141.657 152.059 141.805 152.159C141.952 152.259 142.145 152.31 142.381 152.31C142.626 152.31 142.822 152.259 142.969 152.159C143.119 152.059 143.194 151.935 143.194 151.787C143.194 151.662 143.146 151.559 143.049 151.477C142.954 151.396 142.807 151.333 142.606 151.29L141.862 151.134C141.443 151.046 141.133 150.9 140.933 150.693C140.732 150.485 140.632 150.222 140.634 149.903C140.632 149.634 140.705 149.402 140.853 149.205C141.003 149.006 141.21 148.852 141.475 148.744C141.742 148.634 142.05 148.58 142.398 148.58C142.91 148.58 143.312 148.688 143.606 148.906C143.901 149.124 144.084 149.419 144.154 149.79Z" fill="#B3B3B3"/>
<path d="M91 150V161.5" stroke="#E5E5E5" stroke-width="0.75"/>
</svg>
