<svg width="264" height="97" viewBox="0 0 264 97" fill="none" xmlns="http://www.w3.org/2000/svg">
<g clip-path="url(#clip0_5269_2)">
<path d="M256 0H8C3.58172 0 0 3.58172 0 8V89C0 93.4183 3.58172 97 8 97H256C260.418 97 264 93.4183 264 89V8C264 3.58172 260.418 0 256 0Z" fill="white"/>
<path d="M92.2783 38V26.3636H99.5738V27.875H94.034V31.4205H99.1931V32.9261H94.034V36.4886H99.6419V38H92.2783ZM103.124 29.2727L105.05 32.6705L106.993 29.2727H108.851L106.129 33.6364L108.874 38H107.016L105.05 34.7386L103.089 38H101.226L103.942 33.6364L101.26 29.2727H103.124ZM110.595 41.2727V29.2727H112.254V30.6875H112.396C112.495 30.5057 112.637 30.2955 112.822 30.0568C113.008 29.8182 113.266 29.6098 113.595 29.4318C113.925 29.25 114.36 29.1591 114.902 29.1591C115.607 29.1591 116.235 29.3371 116.788 29.6932C117.341 30.0492 117.775 30.5625 118.089 31.233C118.408 31.9034 118.567 32.7102 118.567 33.6534C118.567 34.5966 118.41 35.4053 118.095 36.0795C117.781 36.75 117.349 37.267 116.8 37.6307C116.25 37.9905 115.624 38.1705 114.919 38.1705C114.389 38.1705 113.955 38.0814 113.618 37.9034C113.285 37.7254 113.023 37.517 112.834 37.2784C112.644 37.0398 112.499 36.8277 112.396 36.642H112.294V41.2727H110.595ZM112.26 33.6364C112.26 34.25 112.349 34.7879 112.527 35.25C112.705 35.7121 112.963 36.0739 113.3 36.3352C113.637 36.5928 114.05 36.7216 114.538 36.7216C115.046 36.7216 115.47 36.5871 115.811 36.3182C116.152 36.0455 116.41 35.6761 116.584 35.2102C116.762 34.7443 116.851 34.2197 116.851 33.6364C116.851 33.0606 116.764 32.5436 116.589 32.0852C116.419 31.6269 116.161 31.2652 115.817 31C115.476 30.7348 115.05 30.6023 114.538 30.6023C114.046 30.6023 113.629 30.7292 113.288 30.983C112.951 31.2367 112.696 31.5909 112.521 32.0455C112.347 32.5 112.26 33.0303 112.26 33.6364ZM124.232 38.1761C123.372 38.1761 122.631 37.9924 122.01 37.625C121.393 37.2538 120.915 36.733 120.578 36.0625C120.245 35.3883 120.078 34.5985 120.078 33.6932C120.078 32.7992 120.245 32.0114 120.578 31.3295C120.915 30.6477 121.385 30.1155 121.987 29.733C122.593 29.3504 123.302 29.1591 124.112 29.1591C124.605 29.1591 125.082 29.2405 125.544 29.4034C126.006 29.5663 126.421 29.822 126.788 30.1705C127.156 30.5189 127.446 30.9716 127.658 31.5284C127.87 32.0814 127.976 32.7538 127.976 33.5455V34.1477H121.038V32.875H126.311C126.311 32.428 126.22 32.0322 126.038 31.6875C125.857 31.339 125.601 31.0644 125.271 30.8636C124.946 30.6629 124.563 30.5625 124.124 30.5625C123.646 30.5625 123.23 30.6799 122.874 30.9148C122.521 31.1458 122.249 31.4489 122.055 31.8239C121.866 32.1951 121.771 32.5985 121.771 33.0341V34.0284C121.771 34.6117 121.874 35.108 122.078 35.517C122.286 35.9261 122.576 36.2386 122.947 36.4545C123.319 36.6667 123.752 36.7727 124.249 36.7727C124.571 36.7727 124.864 36.7273 125.129 36.6364C125.394 36.5417 125.624 36.4015 125.817 36.2159C126.01 36.0303 126.158 35.8011 126.26 35.5284L127.868 35.8182C127.739 36.2917 127.508 36.7064 127.175 37.0625C126.845 37.4148 126.43 37.6894 125.93 37.8864C125.434 38.0795 124.868 38.1761 124.232 38.1761ZM129.861 38V29.2727H131.503V30.6591H131.594C131.753 30.1894 132.033 29.8201 132.435 29.5511C132.84 29.2784 133.298 29.142 133.81 29.142C133.916 29.142 134.041 29.1458 134.185 29.1534C134.332 29.161 134.448 29.1705 134.531 29.1818V30.8068C134.463 30.7879 134.342 30.767 134.168 30.7443C133.993 30.7178 133.819 30.7045 133.645 30.7045C133.243 30.7045 132.885 30.7898 132.571 30.9602C132.26 31.1269 132.014 31.3598 131.832 31.6591C131.651 31.9545 131.56 32.2917 131.56 32.6705V38H129.861ZM136.001 38V29.2727H137.7V38H136.001ZM136.859 27.9261C136.564 27.9261 136.31 27.8277 136.098 27.6307C135.89 27.4299 135.786 27.1913 135.786 26.9148C135.786 26.6345 135.89 26.3958 136.098 26.1989C136.31 25.9981 136.564 25.8977 136.859 25.8977C137.155 25.8977 137.407 25.9981 137.615 26.1989C137.827 26.3958 137.933 26.6345 137.933 26.9148C137.933 27.1913 137.827 27.4299 137.615 27.6307C137.407 27.8277 137.155 27.9261 136.859 27.9261ZM143.747 38.1761C142.887 38.1761 142.147 37.9924 141.526 37.625C140.908 37.2538 140.431 36.733 140.094 36.0625C139.76 35.3883 139.594 34.5985 139.594 33.6932C139.594 32.7992 139.76 32.0114 140.094 31.3295C140.431 30.6477 140.901 30.1155 141.503 29.733C142.109 29.3504 142.817 29.1591 143.628 29.1591C144.12 29.1591 144.598 29.2405 145.06 29.4034C145.522 29.5663 145.937 29.822 146.304 30.1705C146.671 30.5189 146.961 30.9716 147.173 31.5284C147.385 32.0814 147.491 32.7538 147.491 33.5455V34.1477H140.554V32.875H145.827C145.827 32.428 145.736 32.0322 145.554 31.6875C145.372 31.339 145.116 31.0644 144.787 30.8636C144.461 30.6629 144.079 30.5625 143.639 30.5625C143.162 30.5625 142.745 30.6799 142.389 30.9148C142.037 31.1458 141.764 31.4489 141.571 31.8239C141.382 32.1951 141.287 32.5985 141.287 33.0341V34.0284C141.287 34.6117 141.389 35.108 141.594 35.517C141.802 35.9261 142.092 36.2386 142.463 36.4545C142.834 36.6667 143.268 36.7727 143.764 36.7727C144.086 36.7727 144.38 36.7273 144.645 36.6364C144.91 36.5417 145.139 36.4015 145.332 36.2159C145.526 36.0303 145.673 35.8011 145.776 35.5284L147.384 35.8182C147.255 36.2917 147.024 36.7064 146.69 37.0625C146.361 37.4148 145.946 37.6894 145.446 37.8864C144.95 38.0795 144.384 38.1761 143.747 38.1761ZM151.075 32.8182V38H149.376V29.2727H151.007V30.6932H151.115C151.316 30.2311 151.63 29.8598 152.058 29.5795C152.49 29.2992 153.034 29.1591 153.689 29.1591C154.284 29.1591 154.804 29.2841 155.251 29.5341C155.698 29.7803 156.045 30.1477 156.291 30.6364C156.537 31.125 156.661 31.7292 156.661 32.4489V38H154.962V32.6534C154.962 32.0208 154.797 31.5265 154.467 31.1705C154.138 30.8106 153.685 30.6307 153.109 30.6307C152.715 30.6307 152.365 30.7159 152.058 30.8864C151.755 31.0568 151.515 31.3068 151.337 31.6364C151.162 31.9621 151.075 32.3561 151.075 32.8182ZM162.615 38.1761C161.77 38.1761 161.043 37.9848 160.433 37.6023C159.827 37.2159 159.361 36.6837 159.036 36.0057C158.71 35.3277 158.547 34.5511 158.547 33.6761C158.547 32.7898 158.714 32.0076 159.047 31.3295C159.38 30.6477 159.85 30.1155 160.456 29.733C161.062 29.3504 161.776 29.1591 162.598 29.1591C163.261 29.1591 163.852 29.2822 164.371 29.5284C164.89 29.7708 165.308 30.1117 165.626 30.5511C165.948 30.9905 166.14 31.5038 166.2 32.0909H164.547C164.456 31.6818 164.248 31.3295 163.922 31.0341C163.6 30.7386 163.168 30.5909 162.626 30.5909C162.153 30.5909 161.738 30.7159 161.382 30.9659C161.03 31.2121 160.755 31.5644 160.558 32.0227C160.361 32.4773 160.263 33.0152 160.263 33.6364C160.263 34.2727 160.359 34.822 160.553 35.2841C160.746 35.7462 161.018 36.1042 161.371 36.358C161.727 36.6117 162.145 36.7386 162.626 36.7386C162.948 36.7386 163.24 36.6799 163.501 36.5625C163.767 36.4413 163.988 36.2689 164.166 36.0455C164.348 35.822 164.475 35.553 164.547 35.2386H166.2C166.14 35.803 165.956 36.3068 165.649 36.75C165.342 37.1932 164.931 37.5417 164.416 37.7955C163.905 38.0492 163.304 38.1761 162.615 38.1761ZM171.778 38.1761C170.919 38.1761 170.178 37.9924 169.557 37.625C168.939 37.2538 168.462 36.733 168.125 36.0625C167.792 35.3883 167.625 34.5985 167.625 33.6932C167.625 32.7992 167.792 32.0114 168.125 31.3295C168.462 30.6477 168.932 30.1155 169.534 29.733C170.14 29.3504 170.848 29.1591 171.659 29.1591C172.152 29.1591 172.629 29.2405 173.091 29.4034C173.553 29.5663 173.968 29.822 174.335 30.1705C174.703 30.5189 174.992 30.9716 175.205 31.5284C175.417 32.0814 175.523 32.7538 175.523 33.5455V34.1477H168.585V32.875H173.858C173.858 32.428 173.767 32.0322 173.585 31.6875C173.403 31.339 173.148 31.0644 172.818 30.8636C172.492 30.6629 172.11 30.5625 171.67 30.5625C171.193 30.5625 170.777 30.6799 170.42 30.9148C170.068 31.1458 169.795 31.4489 169.602 31.8239C169.413 32.1951 169.318 32.5985 169.318 33.0341V34.0284C169.318 34.6117 169.42 35.108 169.625 35.517C169.833 35.9261 170.123 36.2386 170.494 36.4545C170.866 36.6667 171.299 36.7727 171.795 36.7727C172.117 36.7727 172.411 36.7273 172.676 36.6364C172.941 36.5417 173.17 36.4015 173.364 36.2159C173.557 36.0303 173.705 35.8011 173.807 35.5284L175.415 35.8182C175.286 36.2917 175.055 36.7064 174.722 37.0625C174.392 37.4148 173.977 37.6894 173.477 37.8864C172.981 38.0795 172.415 38.1761 171.778 38.1761Z" fill="#1F1F1F"/>
<path d="M44.5 76C60.2401 76 73 63.464 73 48C73 32.536 60.2401 20 44.5 20C28.7599 20 16 32.536 16 48C16 63.464 28.7599 76 44.5 76Z" fill="#5BA913"/>
<path fill-rule="evenodd" clip-rule="evenodd" d="M30.804 60.8426V61.0548C30.804 61.575 30.2611 62 29.5963 62H27.2077C26.5454 62 26 61.575 26 61.0548V52.9806C26 52.4604 26.5454 52.0354 27.2077 52.0354H29.2404C31.0575 48.1904 35.2521 45.2478 40.427 44.3024C37.6642 43.2523 35.7524 41.0319 35.7524 38.4739C35.7524 34.9091 39.4654 32 44.0202 32C48.5793 32 52.292 34.9092 52.292 38.4739C52.292 41.032 50.3802 43.2525 47.6157 44.3026C50.9636 44.914 53.9007 46.3607 56.049 48.3467C56.1468 48.386 56.2416 48.4323 56.3327 48.4857C56.8662 48.7978 57.0621 48.9483 57.3012 49.0163C57.5401 49.0844 57.8135 49.0677 58.4782 49.0969C59.3459 49.1351 60.0492 49.5966 60.2452 50.2575C60.3975 50.7649 60.4241 50.9787 60.5513 51.1511C60.6786 51.3236 60.9019 51.4487 61.3862 51.8053C62.0182 52.2684 62.1796 52.9766 61.7889 53.5837C61.4884 54.0488 61.3322 54.2264 61.2879 54.4224C61.2437 54.6182 61.3126 54.826 61.3921 55.3431L61.3925 55.3449C61.49 55.9999 61.061 56.6055 60.305 56.8831L61.5885 59.2285C61.6791 59.3939 61.6448 59.5851 61.4994 59.7247C61.3541 59.8643 61.1216 59.9291 60.8963 59.893L59.192 59.6201L58.2743 60.7765C58.1525 60.93 57.9313 61.0176 57.701 61.0035C57.4707 60.9895 57.2696 60.8761 57.1797 60.7095L56.0439 58.6061C55.6031 58.4967 55.3924 58.4338 55.1785 58.4338C55.0593 58.4338 54.941 58.4534 54.7835 58.4897L53.1261 61.2491C53.0282 61.4119 52.8231 61.5188 52.5934 61.5266C52.3638 61.5344 52.1476 61.4419 52.032 61.2863L51.1583 60.1095L49.4451 60.3444C49.2183 60.3755 48.9883 60.3054 48.8481 60.1625C48.7079 60.0195 48.6807 59.8275 48.7776 59.6641L50.365 56.987C50.2905 56.9629 50.2095 56.9364 50.1214 56.9068C49.3926 56.6642 48.9459 56.1241 48.952 55.519H45.563C45.5659 55.5537 45.5674 55.5887 45.5674 55.624C45.5674 56.1581 45.2272 56.6327 44.7079 56.9215C44.9429 57.181 45.0814 57.4973 45.0814 57.8376C45.0814 58.6132 44.364 59.2639 43.4224 59.4021C43.5369 59.6008 43.6006 59.8209 43.6006 60.0522C43.6006 60.9264 42.6869 61.6428 41.5682 61.6428H35.3529C33.3123 61.6428 32.0778 61.1966 30.804 60.8426ZM30.4337 52.3008C30.6521 52.4657 30.7919 52.694 30.8033 52.947C31.2222 52.9223 31.509 52.7755 31.7143 52.5435C32.6743 51.4563 32.5888 51.4769 33.8452 50.8346C35.5354 49.9694 35.4712 49.6152 36.1146 47.4264C36.1518 47.3002 36.2521 47.1908 36.393 47.1229C36.534 47.055 36.7039 47.0341 36.8647 47.065C38.2834 47.3377 38.9104 48.1735 39.0506 49.1621C39.178 50.0613 38.8666 51.0856 38.4656 51.8196H42.7613C43.8799 51.8196 44.795 52.5349 44.795 53.4103C44.795 53.7081 44.6887 53.9877 44.5044 54.2268C44.7028 54.3117 44.8814 54.4216 45.033 54.5512H49.0836C49.0835 54.5057 49.0792 54.4636 49.0698 54.422C49.0259 54.2261 48.8706 54.0493 48.5702 53.5843C48.1796 52.9774 48.338 52.2689 48.9721 51.8054C49.4568 51.4487 49.6799 51.3238 49.8068 51.1514C49.9338 50.979 49.96 50.7652 50.1115 50.2576C50.3096 49.5968 51.013 49.1351 51.8803 49.0969C52.5449 49.0677 52.8185 49.0844 53.0575 49.0163C53.2966 48.9483 53.4924 48.7978 54.0259 48.4857C54.1309 48.4242 54.2408 48.3721 54.3544 48.3292C51.7222 46.2417 48.0648 44.9479 44.0202 44.9479C37.8072 44.9479 32.5057 48.0041 30.4337 52.3008ZM30.804 53.9164V59.822C32.1056 60.1664 33.2849 60.6751 35.3529 60.6751H41.5682C42.0063 60.6751 42.3641 60.3945 42.3641 60.0522C42.3641 59.7093 42.0063 59.4292 41.5682 59.4292H39.0714C38.7301 59.4292 38.4532 59.2124 38.4532 58.9453C38.4532 58.6783 38.7301 58.4614 39.0714 58.4614H43.0489C43.4871 58.4614 43.8449 58.1806 43.8449 57.8376C43.8449 57.4952 43.487 57.2146 43.0489 57.2146H39.0714C38.7301 57.2146 38.4532 56.9978 38.4532 56.7308C38.4532 56.4637 38.7301 56.2469 39.0714 56.2469H43.535C43.9731 56.2469 44.3309 55.9669 44.3309 55.624C44.3309 55.2811 43.9731 55.001 43.535 55.001H39.0714C38.7301 55.001 38.4532 54.7842 38.4532 54.5172C38.4532 54.2501 38.7301 54.0333 39.0714 54.0333H42.7613C43.1996 54.0333 43.5585 53.7528 43.5585 53.4103C43.5585 53.0674 43.1996 52.7874 42.7613 52.7874H37.4088C37.1669 52.7874 36.9472 52.677 36.8466 52.5047C36.746 52.3325 36.783 52.1302 36.9412 51.987C37.4112 51.5618 37.9686 50.3053 37.8216 49.2688C37.7617 48.8456 37.5716 48.4569 37.1528 48.2135C36.5396 50.304 36.3709 50.698 34.5219 51.6444C33.4612 52.1868 33.5419 52.176 32.7313 53.0939C32.3031 53.5781 31.7042 53.8888 30.804 53.9164ZM44.0202 43.9801C47.8978 43.9801 51.0555 41.5058 51.0555 38.4739C51.0555 35.4421 47.8978 32.9677 44.0202 32.9677C40.1465 32.9677 36.9889 35.4421 36.9889 38.4739C36.9889 41.5057 40.1465 43.9801 44.0202 43.9801ZM59.1813 57.2878C59.1762 57.291 59.171 57.2943 59.166 57.2976C58.9712 57.4256 58.8532 57.6196 58.4892 58.056C58.2292 58.3668 57.8511 58.5822 57.4262 58.6801L57.854 59.4721L58.3689 58.8232C58.5055 58.6511 58.7645 58.5638 59.018 58.6045L59.9868 58.7595L59.1813 57.2878ZM53.2713 58.7325C52.7106 58.6875 52.1976 58.4484 51.8699 58.0566C51.6579 57.8029 51.529 57.631 51.4202 57.5064C51.0186 58.1836 50.3973 59.2313 50.3973 59.2313L51.3695 59.098C51.6247 59.0631 51.8806 59.1563 52.0107 59.3316L52.5086 60.0022L53.2713 58.7325ZM55.5922 49.2607C55.3433 49.115 55.0153 49.115 54.7665 49.2607C54.0711 49.6676 53.792 49.837 53.4805 49.9257C53.1689 50.0145 52.8164 50.0251 51.9498 50.0631C51.639 50.0768 51.3865 50.2414 51.3154 50.4782C51.1179 51.1399 51.0437 51.4098 50.8781 51.6347C50.7125 51.8596 50.4512 52.0451 49.8186 52.5109L49.8165 52.5124C49.5896 52.6779 49.5345 52.9312 49.6739 53.1482C50.0658 53.7546 50.2303 53.9989 50.2877 54.2544C50.3451 54.5099 50.2968 54.7834 50.1942 55.4582C50.1572 55.6989 50.3209 55.9218 50.6059 56.0165L50.608 56.0172C51.4064 56.2851 51.7331 56.3895 51.987 56.5565C52.2409 56.7234 52.4287 56.9574 52.9043 57.5266C53.074 57.7292 53.3823 57.8177 53.6802 57.7468C54.5106 57.5507 54.847 57.4661 55.1785 57.4661C55.51 57.4661 55.846 57.5505 56.6774 57.7466L56.6789 57.747C56.9757 57.8177 57.2847 57.7292 57.4541 57.5266C57.9288 56.9573 58.1168 56.7233 58.3711 56.5563C58.6253 56.3893 58.9524 56.2851 59.7506 56.0172L59.7527 56.0165C60.0381 55.9217 60.1999 55.6986 60.1643 55.4576C60.0606 54.7832 60.0126 54.5096 60.0703 54.2541C60.128 53.9986 60.293 53.7544 60.6847 53.1481C60.8244 52.9309 60.7673 52.6774 60.5411 52.5117L60.5401 52.5109C59.9077 52.0453 59.6463 51.8597 59.4805 51.635C59.3147 51.4101 59.24 51.1402 59.0413 50.4784L59.0408 50.4768C58.971 50.2406 58.7187 50.0768 58.4088 50.0631C57.5422 50.0251 57.1898 50.0145 56.8781 49.9257C56.5666 49.837 56.2877 49.6676 55.5922 49.2607ZM55.1783 56.8084C52.823 56.8084 50.9009 55.304 50.9009 53.4606C50.9009 51.6172 52.823 50.1128 55.1783 50.1128C57.536 50.1128 59.4558 51.6172 59.4558 53.4606C59.4558 55.304 57.536 56.8084 55.1783 56.8084ZM55.1783 55.8407C56.8544 55.8407 58.2193 54.7711 58.2193 53.4606C58.2193 52.15 56.8544 51.0806 55.1783 51.0806C53.5039 51.0806 52.1373 52.15 52.1373 53.4606C52.1373 54.7711 53.5039 55.8407 55.1783 55.8407ZM53.4582 53.8636C53.2166 53.6748 53.2163 53.3683 53.4574 53.1793C53.6984 52.9903 54.0902 52.99 54.3317 53.1787L54.6644 53.4386L56.0484 52.4565C56.3012 52.2771 56.6926 52.2921 56.9218 52.4899C57.1509 52.6878 57.1317 52.994 56.8789 53.1734L55.0592 54.4648C54.815 54.638 54.4403 54.6309 54.2071 54.4488L53.4582 53.8636ZM27.2365 53.0032V61.0322H29.5675V53.0032H27.2365Z" fill="white"/>
<path d="M93.4148 65V62.3409L99.6278 56.5881C100.156 56.0767 100.599 55.6165 100.957 55.2074C101.321 54.7983 101.597 54.3977 101.784 54.0057C101.972 53.608 102.065 53.179 102.065 52.7188C102.065 52.2074 101.949 51.767 101.716 51.3977C101.483 51.0227 101.165 50.7358 100.761 50.5369C100.358 50.3324 99.9006 50.2301 99.3892 50.2301C98.8551 50.2301 98.3892 50.3381 97.9915 50.554C97.5938 50.7699 97.2869 51.0795 97.071 51.483C96.8551 51.8864 96.7472 52.3665 96.7472 52.9233H93.2443C93.2443 51.7812 93.5028 50.7898 94.0199 49.9489C94.5369 49.108 95.2614 48.4574 96.1932 47.9972C97.125 47.5369 98.1989 47.3068 99.4148 47.3068C100.665 47.3068 101.753 47.5284 102.679 47.9716C103.611 48.4091 104.335 49.017 104.852 49.7955C105.369 50.5739 105.628 51.4659 105.628 52.4716C105.628 53.1307 105.497 53.7812 105.236 54.4233C104.98 55.0653 104.523 55.7784 103.864 56.5625C103.205 57.3409 102.276 58.2756 101.077 59.3665L98.5284 61.8636V61.983H105.858V65H93.4148ZM115.376 65.3835C113.91 65.3778 112.648 65.017 111.592 64.3011C110.54 63.5852 109.731 62.5483 109.163 61.1903C108.6 59.8324 108.322 58.1989 108.327 56.2898C108.327 54.3864 108.609 52.7642 109.171 51.4233C109.739 50.0824 110.549 49.0625 111.6 48.3636C112.657 47.6591 113.915 47.3068 115.376 47.3068C116.836 47.3068 118.092 47.6591 119.143 48.3636C120.2 49.0682 121.012 50.0909 121.58 51.4318C122.148 52.767 122.43 54.3864 122.424 56.2898C122.424 58.2045 122.14 59.8409 121.572 61.1989C121.009 62.5568 120.202 63.5937 119.151 64.3097C118.1 65.0256 116.842 65.3835 115.376 65.3835ZM115.376 62.3239C116.376 62.3239 117.174 61.821 117.771 60.8153C118.367 59.8097 118.663 58.3011 118.657 56.2898C118.657 54.9659 118.521 53.8636 118.248 52.983C117.981 52.1023 117.6 51.4403 117.106 50.9972C116.617 50.554 116.04 50.3324 115.376 50.3324C114.381 50.3324 113.586 50.8295 112.989 51.8239C112.393 52.8182 112.092 54.3068 112.086 56.2898C112.086 57.6307 112.219 58.75 112.487 59.6477C112.759 60.5398 113.143 61.2102 113.637 61.6591C114.131 62.1023 114.711 62.3239 115.376 62.3239ZM130.271 62.3409V50.2727H133.322V62.3409H130.271ZM125.763 57.8324V54.7812H137.831V57.8324H125.763ZM146.002 47.5455H150.136L154.116 55.0625H154.286L158.266 47.5455H162.4L156.033 58.8295V65H152.369V58.8295L146.002 47.5455ZM167.571 65.2557C166.224 65.2557 165.065 64.983 164.094 64.4375C163.128 63.8864 162.384 63.108 161.861 62.1023C161.338 61.0909 161.077 59.8949 161.077 58.5142C161.077 57.1676 161.338 55.9858 161.861 54.9688C162.384 53.9517 163.119 53.1591 164.068 52.5909C165.023 52.0227 166.142 51.7386 167.426 51.7386C168.29 51.7386 169.094 51.8778 169.838 52.1562C170.588 52.429 171.241 52.8409 171.798 53.392C172.361 53.9432 172.798 54.6364 173.111 55.4716C173.423 56.3011 173.58 57.2727 173.58 58.3864V59.3835H162.526V57.1335H170.162C170.162 56.6108 170.048 56.1477 169.821 55.7443C169.594 55.3409 169.278 55.0256 168.875 54.7983C168.477 54.5653 168.014 54.4489 167.486 54.4489C166.935 54.4489 166.446 54.5767 166.02 54.8324C165.599 55.0824 165.27 55.4205 165.031 55.8466C164.793 56.267 164.67 56.7358 164.665 57.2528V59.392C164.665 60.0398 164.784 60.5994 165.023 61.071C165.267 61.5426 165.611 61.9062 166.054 62.1619C166.497 62.4176 167.023 62.5455 167.631 62.5455C168.034 62.5455 168.403 62.4886 168.739 62.375C169.074 62.2614 169.361 62.0909 169.599 61.8636C169.838 61.6364 170.02 61.358 170.145 61.0284L173.503 61.25C173.332 62.0568 172.983 62.7614 172.455 63.3636C171.932 63.9602 171.256 64.4261 170.426 64.7614C169.602 65.0909 168.651 65.2557 167.571 65.2557ZM179.682 65.2472C178.847 65.2472 178.102 65.1023 177.449 64.8125C176.795 64.517 176.278 64.0824 175.898 63.5085C175.523 62.929 175.335 62.2074 175.335 61.3438C175.335 60.6165 175.469 60.0057 175.736 59.5114C176.003 59.017 176.366 58.6193 176.827 58.3182C177.287 58.017 177.81 57.7898 178.395 57.6364C178.986 57.483 179.605 57.375 180.253 57.3125C181.014 57.233 181.628 57.1591 182.094 57.0909C182.56 57.017 182.898 56.9091 183.108 56.767C183.318 56.625 183.423 56.4148 183.423 56.1364V56.0852C183.423 55.5455 183.253 55.1278 182.912 54.8324C182.577 54.5369 182.099 54.3892 181.48 54.3892C180.827 54.3892 180.307 54.5341 179.92 54.8239C179.534 55.108 179.278 55.4659 179.153 55.8977L175.795 55.625C175.966 54.8295 176.301 54.142 176.801 53.5625C177.301 52.9773 177.946 52.5284 178.736 52.2159C179.531 51.8977 180.452 51.7386 181.497 51.7386C182.224 51.7386 182.92 51.8239 183.585 51.9943C184.256 52.1648 184.849 52.429 185.366 52.7869C185.889 53.1449 186.301 53.6051 186.602 54.1676C186.903 54.7244 187.054 55.392 187.054 56.1705V65H183.611V63.1847H183.509C183.298 63.5938 183.017 63.9545 182.665 64.267C182.312 64.5739 181.889 64.8153 181.395 64.9915C180.901 65.1619 180.33 65.2472 179.682 65.2472ZM180.722 62.7415C181.256 62.7415 181.727 62.6364 182.136 62.4261C182.545 62.2102 182.866 61.9205 183.099 61.5568C183.332 61.1932 183.449 60.7812 183.449 60.321V58.9318C183.335 59.0057 183.179 59.0739 182.98 59.1364C182.787 59.1932 182.568 59.2472 182.324 59.2983C182.08 59.3437 181.835 59.3864 181.591 59.4261C181.347 59.4602 181.125 59.4915 180.926 59.5199C180.5 59.5824 180.128 59.6818 179.81 59.8182C179.491 59.9545 179.244 60.1392 179.068 60.3722C178.892 60.5994 178.804 60.8835 178.804 61.2244C178.804 61.7188 178.983 62.0966 179.341 62.358C179.705 62.6136 180.165 62.7415 180.722 62.7415ZM189.871 65V51.9091H193.391V54.1932H193.527C193.766 53.3807 194.166 52.767 194.729 52.3523C195.291 51.9318 195.939 51.7216 196.672 51.7216C196.854 51.7216 197.05 51.733 197.26 51.7557C197.47 51.7784 197.655 51.8097 197.814 51.8494V55.071C197.643 55.0199 197.408 54.9744 197.107 54.9347C196.805 54.8949 196.53 54.875 196.28 54.875C195.746 54.875 195.268 54.9915 194.848 55.2244C194.433 55.4517 194.104 55.7699 193.859 56.179C193.621 56.5881 193.501 57.0597 193.501 57.5938V65H189.871Z" fill="#2769B3"/>
</g>
<defs>
<clipPath id="clip0_5269_2">
<rect width="264" height="97" fill="white"/>
</clipPath>
</defs>
</svg>
