<svg width="64" height="64" viewBox="0 0 64 64" fill="none" xmlns="http://www.w3.org/2000/svg">
<path d="M34.8174 40.5488C34.8174 41.0923 34.3718 41.5335 33.8227 41.5335C33.2735 41.5335 32.8279 41.0923 32.8279 40.5488C32.8279 40.0052 33.2735 39.5641 33.8227 39.5641C34.3718 39.5641 34.8174 40.0052 34.8174 40.5488ZM57.6976 16.9189H62.6715V17.9036C62.6715 22.7897 58.6556 26.7659 53.7184 26.7659H50.7341V28.7353H59.6872C60.7844 28.7353 61.6767 29.6186 61.6767 30.7047V32.6741C61.6767 33.6332 60.9794 34.4318 60.0612 34.6061L60.6322 35.1713C61.9463 36.4721 62.6715 38.2032 62.6715 40.0446V53.3528C62.6715 56.0676 60.4402 58.2763 57.6976 58.2763H41.781C39.6442 58.2763 37.8207 56.9578 37.1244 55.0337C35.7884 55.3409 34.8174 56.5058 34.8174 57.9001V60.2437C34.8174 61.3298 33.9251 62.2131 32.8279 62.2131H28.8487C27.7515 62.2131 26.8591 61.3298 26.8591 60.2437V58.2743C26.8591 57.7317 26.4135 57.2896 25.8643 57.2896H17.906C17.3569 57.2896 16.9112 57.7317 16.9112 58.2743V60.2457C16.9112 61.3318 16.0189 62.2151 14.9217 62.2151H10.9425C10.4093 62.2151 9.90893 62.0103 9.5329 61.6361C9.15786 61.2639 8.95294 60.7695 8.95493 60.2447V58.1355C8.95393 57.1104 8.68236 56.0991 8.16904 55.2099L6.96336 53.1214V55.3222C6.96336 56.9509 5.62438 58.2763 3.97899 58.2763C2.33361 58.2763 0.994629 56.9509 0.994629 55.3222C0.994629 53.6935 2.33361 52.3681 3.97899 52.3681V54.3375C3.42987 54.3375 2.98421 54.7796 2.98421 55.3222C2.98421 55.8648 3.42987 56.3069 3.97899 56.3069C4.52812 56.3069 4.97378 55.8648 4.97378 55.3222V46.521C4.97378 43.3286 6.2879 40.3154 8.53811 38.1028C8.37696 38.0516 8.21381 38.0063 8.05365 37.9472L0.994629 35.3259V23.8118H5.47914C5.72286 23.8118 5.96559 23.7823 6.20235 23.7232L16.6645 21.1354C17.4057 20.9513 18.1726 20.8577 18.9386 20.8577C22.3448 20.8577 25.4883 22.6883 27.1417 25.6355L27.4978 26.2716C28.5244 26.9993 29.368 27.9594 29.9509 29.077C32.3842 29.851 34.2007 31.8883 34.6264 34.4131L34.6742 34.6967C35.9316 34.8572 37.0806 35.384 38.0336 36.1472C38.2743 35.7996 38.5429 35.4716 38.8463 35.1713L39.4164 34.6071C38.4992 34.4318 37.8018 33.6332 37.8018 32.6741V30.7047C37.8018 29.6186 38.6941 28.7353 39.7914 28.7353H40.1455C38.1122 27.1096 36.807 24.6252 36.807 21.8424V20.8577H41.781C44.5922 20.8577 47.1021 22.1497 48.7445 24.1624V18.3773L47.3538 17.2754C45.0757 15.4714 43.7705 12.7822 43.7705 9.89607C43.7705 6.59536 45.5462 3.49061 48.4053 1.79299L49.7393 1.00031L51.0733 1.792C53.9323 3.49061 55.708 6.59536 55.708 9.89607C55.708 12.7822 54.4018 15.4724 52.1248 17.2764L50.7341 18.3773V20.2236C52.3765 18.2109 54.8863 16.9189 57.6976 16.9189ZM48.5973 15.7383L49.7393 16.6422L50.8813 15.7383C52.6848 14.3105 53.7184 12.1806 53.7184 9.89607C53.7184 7.28367 52.3128 4.82586 50.0496 3.48076L49.7393 3.29662L49.4289 3.48076C47.1658 4.82487 45.7601 7.28367 45.7601 9.89607C45.7601 12.1806 46.7937 14.3105 48.5973 15.7383ZM45.7601 28.7353H48.6739C48.1904 25.3992 45.2836 22.8271 41.781 22.8271H38.8672C39.3517 26.1633 42.2575 28.7353 45.7601 28.7353ZM22.88 26.7659C21.0466 26.7659 19.3783 27.6098 18.2691 28.951C18.6631 28.82 19.0689 28.7353 19.4868 28.7353H20.0279C22.1498 28.7353 23.8748 30.4428 23.8748 32.5432C23.8748 34.2378 22.7735 35.703 21.1331 36.1905L18.7218 36.9064C19.824 37.9698 21.3013 38.5823 22.88 38.5823C26.1717 38.5823 28.8487 35.9325 28.8487 32.6741C28.8487 29.4158 26.1717 26.7659 22.88 26.7659ZM15.9165 40.5517V42.5211H25.8643V40.5517H15.9165ZM8.75299 36.1019C10.4053 36.7153 12.2357 36.7764 13.9249 36.2742L20.5621 34.3038C21.354 34.0694 21.8852 33.3614 21.8852 32.5432C21.8852 31.5289 21.0516 30.7047 20.0279 30.7047H19.4868C19.2341 30.7047 18.9874 30.7549 18.7546 30.8534L11.9055 33.7593L9.50306 32.5697L10.3934 30.8081L11.9701 31.588L15.3425 30.1572C16.4228 26.9786 19.4519 24.7965 22.88 24.7965C23.2868 24.7965 23.6838 24.8369 24.0747 24.895C22.7148 23.5932 20.8844 22.8271 18.9386 22.8271C18.3348 22.8271 17.731 22.901 17.146 23.0457L6.68482 25.6345C6.29188 25.732 5.886 25.7812 5.47914 25.7812H2.98421V33.9611L8.75299 36.1019ZM37.3064 53.0003L39.5835 52.7748C41.4029 52.5946 42.7758 51.0949 42.7758 49.284V45.0409C42.7758 44.589 42.4654 44.1951 42.0217 44.0858L41.5492 43.9686C39.9396 43.5708 38.7488 42.2631 38.5141 40.6384C38.1838 38.342 36.1664 36.61 33.8217 36.61H32.9781L32.6637 34.7351C32.4518 33.4806 31.7535 32.3974 30.7647 31.6668C30.8084 31.9976 30.8383 32.3324 30.8383 32.6741C30.8383 35.1556 29.6704 37.3692 27.8539 38.8137V44.4905H13.9269V38.5823H17.6275C17.2644 38.2652 16.9301 37.9127 16.6257 37.5287L14.4959 38.1609C13.5548 38.4405 12.5799 38.5823 11.5971 38.5823C11.4101 38.5823 11.224 38.5675 11.038 38.5577C8.48638 40.4247 6.96336 43.3719 6.96336 46.521C6.96336 48.2422 7.41997 49.9428 8.28245 51.4385L9.896 54.2331C10.5804 55.4187 10.9435 56.7677 10.9445 58.1335V60.2506L14.9217 60.2457V58.2743C14.9217 56.6456 16.2607 55.3202 17.906 55.3202H25.8643C27.5097 55.3202 28.8487 56.6456 28.8487 58.2743V60.2437H32.8279V57.9001C32.8279 55.3596 34.7538 53.2533 37.3064 53.0003ZM59.2246 36.5637L57.2857 34.6435H42.1928L40.254 36.5637C39.9237 36.8906 39.6621 37.2727 39.4372 37.6774C39.9645 38.472 40.3425 39.374 40.4848 40.3607C40.6041 41.1888 41.21 41.8554 42.0307 42.0583L42.5042 42.1755C43.8352 42.5044 44.7653 43.683 44.7653 45.0409V49.284C44.7653 52.1111 42.6226 54.4537 39.7814 54.7343L39.1866 54.7934C39.6959 55.7092 40.6688 56.3069 41.781 56.3069H57.6976C59.343 56.3069 60.6819 54.9815 60.6819 53.3528V40.0446C60.6819 38.729 60.1637 37.4932 59.2246 36.5637ZM59.6872 30.7047H50.7341H45.7601H39.7914V32.6741H59.6882L59.6872 30.7047ZM60.6113 18.8883H57.6976C54.1949 18.8883 51.2892 21.4604 50.8047 24.7965H53.7184C57.2211 24.7965 60.1269 22.2245 60.6113 18.8883ZM35.4551 13.7364L42.34 8.05665L35.4541 2.37691L34.1798 3.88941L38.0386 7.07196H15.9165V9.04135H38.0386L34.1808 12.2239L35.4551 13.7364ZM11.9373 7.07196V9.04135H13.9269V7.07196H11.9373ZM26.502 21.614L33.3869 15.9342L26.501 10.2545L25.2267 11.767L29.0855 14.9495H6.96336V16.9189H29.0855L25.2277 20.1015L26.502 21.614ZM2.98421 16.9189H4.97378V14.9495H2.98421V16.9189Z" fill="#5BA912"/>
</svg>
