<svg width="67" height="67" viewBox="0 0 67 67" fill="none" xmlns="http://www.w3.org/2000/svg">
<path d="M61.0474 30.5949C61.5896 30.5949 62.0289 30.1556 62.0289 29.6135V2.02832C62.0289 0.909865 61.119 0 60.0005 0H21.5228C20.4043 0 19.4945 0.909865 19.4945 2.02832V4.58008H16.9427C15.8242 4.58008 14.9144 5.48994 14.9144 6.6084V16.6061C14.9144 17.1482 15.3537 17.5875 15.8958 17.5875C16.438 17.5875 16.8773 17.1482 16.8773 16.6061V6.6084C16.8773 6.57176 16.9061 6.54297 16.9427 6.54297H55.4205C55.4571 6.54297 55.4859 6.57176 55.4859 6.6084V59.2636C55.4859 59.3002 55.4571 59.329 55.4205 59.329H26.1235C26.4256 58.3354 26.5896 57.2821 26.5896 56.1911C26.5896 50.6012 22.3243 45.9888 16.8773 45.4375V21.1861C16.8773 20.644 16.438 20.2047 15.8958 20.2047C15.3537 20.2047 14.9144 20.644 14.9144 21.1861V45.4197C9.35809 45.8628 4.97168 50.5227 4.97168 56.191C4.97168 62.1511 9.82054 67 15.7807 67C19.8971 67 23.4824 64.6864 25.3074 61.2919H55.4205C56.5389 61.2919 57.4488 60.382 57.4488 59.2636V56.7118H60.0005C61.119 56.7118 62.0289 55.802 62.0289 54.6835V34.1936C62.0289 33.6514 61.5896 33.2121 61.0474 33.2121C60.5053 33.2121 60.066 33.6514 60.066 34.1936V54.6835C60.066 54.7202 60.0372 54.7489 60.0005 54.7489H57.4488V6.6084C57.4488 5.48994 56.5389 4.58008 55.4205 4.58008H21.4573V2.02832C21.4573 1.99168 21.4861 1.96289 21.5228 1.96289H60.0005C60.0372 1.96289 60.066 1.99168 60.066 2.02832V29.6135C60.066 30.1555 60.5053 30.5949 61.0474 30.5949ZM15.7805 65.0371C10.9029 65.0371 6.93444 61.0688 6.93444 56.191C6.93444 51.3132 10.9027 47.3448 15.7805 47.3448C20.6583 47.3448 24.6268 51.3131 24.6268 56.191C24.6266 61.0688 20.6583 65.0371 15.7805 65.0371Z" fill="#5BA912"/>
<path d="M21.7116 51.7242C20.6663 50.7166 18.9624 50.7499 17.9133 51.799L14.4536 55.2586L13.5936 54.3985C13.0863 53.8913 12.4138 53.6129 11.6975 53.6129C11.6891 53.6129 11.6806 53.6129 11.6724 53.6131C10.9466 53.6196 10.2693 53.911 9.76522 54.4338C8.75747 55.4791 8.79097 57.183 9.83981 58.2321L12.0019 60.3943C12.656 61.0484 13.5268 61.4085 14.4536 61.4085C15.3807 61.4085 16.2514 61.0482 16.9057 60.3941L21.7468 55.5528C22.2602 55.0396 22.5392 54.3573 22.5326 53.6315C22.5261 52.9058 22.2345 52.2284 21.7116 51.7242ZM20.3589 54.1648L15.5177 59.006C15.2342 59.2895 14.8563 59.4456 14.4536 59.4456C14.051 59.4456 13.6731 59.2896 13.3898 59.0064L11.2278 56.8444C10.9354 56.5518 10.9126 56.0719 11.1781 55.7963C11.3135 55.6559 11.4954 55.5775 11.69 55.5757H11.6968C11.8892 55.5757 12.0697 55.6503 12.2056 55.7864L13.3896 56.9704C13.9764 57.557 14.9312 57.5569 15.5181 56.9703L19.3013 53.1869C19.5938 52.8944 20.0735 52.8718 20.3493 53.1371C20.4898 53.2727 20.5683 53.4546 20.5701 53.6493C20.5716 53.844 20.4967 54.0271 20.3589 54.1648Z" fill="#5BA912"/>
<path d="M38.1759 19.2459L38.5752 18.1975H41.3493L41.7438 19.243C41.8921 19.6359 42.2655 19.8782 42.6622 19.8782C42.7773 19.8782 42.8944 19.8578 43.0086 19.8147C43.5156 19.6234 43.7716 19.0572 43.5802 18.5499L41.0338 11.8026C41.0305 11.7937 41.0268 11.7846 41.0233 11.7757C40.8472 11.3478 40.4348 11.0716 39.9722 11.0716C39.9718 11.0716 39.9714 11.0716 39.9712 11.0716C39.5082 11.072 39.0957 11.3491 38.9202 11.7776C38.9174 11.7852 38.9142 11.7926 38.9115 11.8001L36.3417 18.5473C36.1486 19.0539 36.403 19.6209 36.9095 19.8139C37.4158 20.0067 37.983 19.7524 38.1759 19.2459ZM40.6085 16.2347H39.3228L39.9686 14.5391L40.6085 16.2347Z" fill="#5BA912"/>
<path d="M50.5705 11.1989C50.0284 11.1989 49.5891 11.6382 49.5891 12.1804V15.8617L46.5826 11.508C46.3385 11.1546 45.8932 11.0011 45.4828 11.1288C45.0728 11.2566 44.7935 11.6363 44.7935 12.0657V18.8965C44.7935 19.4386 45.2328 19.8779 45.7749 19.8779C46.3171 19.8779 46.7563 19.4386 46.7563 18.8965V15.2141L49.5864 19.3122C49.87 19.7214 50.345 19.8947 50.7958 19.7536C51.2552 19.6101 51.5518 19.1831 51.5518 18.6659V12.1804C51.552 11.6384 51.1127 11.1989 50.5705 11.1989Z" fill="#5BA912"/>
<path d="M21.7925 11.0715C21.2503 11.0715 20.811 11.5108 20.811 12.0529V18.8907C20.811 19.3683 21.1549 19.7766 21.6256 19.8579C21.6959 19.8701 21.7447 19.8784 22.5155 19.8784C22.8835 19.8784 23.4163 19.8765 24.1944 19.8722C24.7366 19.8691 25.1734 19.4272 25.1704 18.8852C25.1673 18.345 24.7286 17.9093 24.189 17.9093C24.1871 17.9093 24.1852 17.9093 24.1834 17.9093C23.7017 17.912 23.1936 17.914 22.7739 17.9148V12.0529C22.7739 11.5109 22.3346 11.0715 21.7925 11.0715Z" fill="#5BA912"/>
<path d="M35.1271 15.4747C35.1271 13.0468 33.1518 11.0716 30.724 11.0716C28.2961 11.0716 26.3208 13.0469 26.3208 15.4747C26.3208 17.9026 28.2961 19.8779 30.724 19.8779C33.1518 19.8779 35.1271 17.9027 35.1271 15.4747ZM28.2836 15.4747C28.2836 14.1291 29.3782 13.0345 30.7238 13.0345C32.0695 13.0345 33.1641 14.1291 33.1641 15.4747C33.1641 16.8204 32.0695 17.915 30.7238 17.915C29.3782 17.915 28.2836 16.8204 28.2836 15.4747Z" fill="#5BA912"/>
<path d="M21.7925 24.118H43.5725C44.1146 24.118 44.5539 23.6787 44.5539 23.1366C44.5539 22.5944 44.1146 22.1552 43.5725 22.1552H21.7925C21.2503 22.1552 20.811 22.5944 20.811 23.1366C20.811 23.6787 21.2505 24.118 21.7925 24.118Z" fill="#5BA912"/>
<path d="M21.7925 28.5013H43.5725C44.1146 28.5013 44.5539 28.062 44.5539 27.5198C44.5539 26.9777 44.1146 26.5384 43.5725 26.5384H21.7925C21.2503 26.5384 20.811 26.9777 20.811 27.5198C20.811 28.062 21.2505 28.5013 21.7925 28.5013Z" fill="#5BA912"/>
<path d="M21.7925 32.8846H43.5725C44.1146 32.8846 44.5539 32.4453 44.5539 31.9031C44.5539 31.361 44.1146 30.9217 43.5725 30.9217H21.7925C21.2503 30.9217 20.811 31.361 20.811 31.9031C20.811 32.4453 21.2505 32.8846 21.7925 32.8846Z" fill="#5BA912"/>
<path d="M21.0684 36.2864C21.0684 36.8285 21.5077 37.2678 22.0498 37.2678H49.5371C50.0792 37.2678 50.5185 36.8285 50.5185 36.2864C50.5185 35.7442 50.0792 35.3049 49.5371 35.3049H22.0498C21.5077 35.3049 21.0684 35.7442 21.0684 36.2864Z" fill="#5BA912"/>
<path d="M33.664 40.6697C33.664 40.1275 33.2247 39.6882 32.6825 39.6882H22.0498C21.5077 39.6882 21.0684 40.1275 21.0684 40.6697C21.0684 41.2118 21.5077 41.6511 22.0498 41.6511H32.6825C33.2247 41.6511 33.664 41.2118 33.664 40.6697Z" fill="#5BA912"/>
<path d="M51.4747 45.029C51.2926 44.5351 50.8347 44.216 50.3084 44.216H48.968C47.7761 41.4809 45.079 39.6884 42.0454 39.6884C39.0111 39.6884 36.3136 41.4809 35.1215 44.216H33.6331C33.1042 44.216 32.6321 44.5516 32.4586 45.0515C32.2851 45.5511 32.4475 46.1071 32.8627 46.4349L33.8881 47.2444L32.8627 48.0539C32.4475 48.3817 32.2851 48.9378 32.4586 49.4374C32.632 49.9371 33.1042 50.2729 33.6331 50.2729H35.1216C36.3139 53.0077 39.0111 54.8001 42.0453 54.8001C45.0788 54.8001 47.7758 53.0077 48.9677 50.2729H50.3084C50.8348 50.2729 51.2927 49.9537 51.4748 49.4596C51.6569 48.9656 51.5157 48.4256 51.1154 48.084L50.1314 47.2444L51.1154 46.4047C51.5159 46.0629 51.6569 45.5228 51.4747 45.029ZM35.7062 48.3099L35.8199 48.2201C36.1205 47.9829 36.2928 47.6272 36.2928 47.2442C36.2928 46.8613 36.1205 46.5056 35.82 46.2685L35.7063 46.1787H48.3563L48.2157 46.2987C47.9386 46.5354 47.7798 46.8799 47.7798 47.2443C47.7798 47.6087 47.9386 47.9532 48.2158 48.19L48.3563 48.3099H35.7062ZM42.0454 41.6512C43.9855 41.6512 45.7393 42.6415 46.7496 44.216H37.3399C38.3504 42.6415 40.1047 41.6512 42.0454 41.6512ZM42.0454 52.8371C40.1049 52.8371 38.3508 51.847 37.3402 50.2728H46.7495C45.739 51.8469 43.9854 52.8371 42.0454 52.8371Z" fill="#5BA912"/>
<path fill-rule="evenodd" clip-rule="evenodd" d="M51.2556 31.3319C51.1697 31.3327 51.0845 31.3153 51.0058 31.2809C50.927 31.2464 50.8565 31.1957 50.7987 31.132L47.2958 27.3245C47.2368 27.2668 47.1899 27.198 47.1579 27.122C47.1259 27.046 47.1094 26.9643 47.1094 26.8818C47.1094 26.7994 47.1259 26.7177 47.1579 26.6417C47.1899 26.5657 47.2368 26.4968 47.2958 26.4392C47.4122 26.3307 47.565 26.2695 47.7241 26.2679H49.5042C49.8 26.2694 50.0899 26.1846 50.3384 26.024C50.5869 25.8634 50.7832 25.6339 50.9034 25.3636H48.3333C48.2505 25.3636 48.1684 25.347 48.0921 25.3147C48.0157 25.2825 47.9467 25.2352 47.889 25.1757C47.8312 25.1162 47.7861 25.0457 47.7561 24.9684C47.7262 24.8912 47.7121 24.8087 47.7146 24.7258C47.7216 24.564 47.789 24.4106 47.9036 24.2961C48.0181 24.1815 48.1715 24.1141 48.3333 24.1071H50.8844C50.7582 23.8482 50.562 23.6299 50.318 23.4768C50.0741 23.3237 49.7922 23.242 49.5042 23.2409H47.7527C47.5861 23.2409 47.4263 23.1747 47.3084 23.0569C47.1906 22.939 47.1244 22.7792 47.1244 22.6126C47.1244 22.446 47.1906 22.2862 47.3084 22.1684C47.4263 22.0506 47.5861 21.9844 47.7527 21.9844H53.2261C53.3927 21.9844 53.5525 22.0506 53.6703 22.1684C53.7881 22.2862 53.8543 22.446 53.8543 22.6126C53.8543 22.7792 53.7881 22.939 53.6703 23.0569C53.5525 23.1747 53.3927 23.2409 53.2261 23.2409H51.8173C51.9984 23.513 52.1275 23.8164 52.198 24.1356H53.2261C53.3094 24.1369 53.3916 24.1547 53.468 24.188C53.5444 24.2213 53.6134 24.2695 53.671 24.3297C53.7285 24.39 53.7736 24.4611 53.8034 24.5389C53.8333 24.6167 53.8473 24.6996 53.8448 24.7829C53.8423 24.9454 53.776 25.1003 53.6602 25.2143C53.5445 25.3283 53.3885 25.3922 53.2261 25.3921H52.2075C52.0574 26.0003 51.7114 26.5423 51.2229 26.9345C50.7344 27.3266 50.1304 27.5473 49.5042 27.5624H49.2186L51.7411 30.2753C51.8585 30.3946 51.9243 30.5553 51.9243 30.7227C51.9243 30.8901 51.8585 31.0508 51.7411 31.1701C51.6067 31.2856 51.4324 31.3437 51.2556 31.3319Z" fill="#5BA912"/>
</svg>
