<svg width="64" height="64" viewBox="0 0 64 64" fill="none" xmlns="http://www.w3.org/2000/svg">
<path d="M61.9 37.723C61.8839 37.4392 61.805 37.1626 61.6692 36.9129C61.5334 36.6633 61.3439 36.4469 61.1143 36.2792C60.8848 36.1116 60.621 35.9969 60.3419 35.9434C60.0627 35.89 59.7752 35.899 59.5 35.97C54.11 37.114 50.13 33.575 48 31.953V7C47.9984 5.67441 47.4711 4.40356 46.5338 3.46622C45.5964 2.52888 44.3256 2.00159 43 2H7C5.67441 2.00159 4.40356 2.52888 3.46622 3.46622C2.52888 4.40356 2.00159 5.67441 2 7V57C2.00159 58.3256 2.52888 59.5964 3.46622 60.5338C4.40356 61.4711 5.67441 61.9984 7 62H43C43.8234 61.9974 44.633 61.7887 45.355 61.393C45.685 61.546 46.018 61.693 46.364 61.845C46.606 61.947 46.8659 61.9995 47.1285 61.9995C47.3911 61.9995 47.651 61.947 47.893 61.845C61.524 56.07 62.414 45.312 61.9 37.723ZM7 60C6.20435 60 5.44129 59.6839 4.87868 59.1213C4.31607 58.5587 4 57.7957 4 57V7C4 6.20435 4.31607 5.44129 4.87868 4.87868C5.44129 4.31607 6.20435 4 7 4H43C43.7957 4 44.5587 4.31607 45.1213 4.87868C45.6839 5.44129 46 6.20435 46 7V32.109C44.147 33.684 39.86 37.099 34.751 35.97C34.4774 35.9066 34.1934 35.9029 33.9183 35.9591C33.6432 36.0153 33.3834 36.1302 33.1567 36.2959C32.9299 36.4616 32.7416 36.6742 32.6045 36.9193C32.4673 37.1644 32.3846 37.4361 32.362 37.716C31.9 44.56 32.575 53.979 42.7 60H7ZM47.146 60C34.827 54.785 33.84 45.424 34.3 37.919C40.155 39.265 45.248 35.432 47.081 33.719C48.981 35.425 54.032 39.237 59.902 37.927C60.411 45.485 59.392 54.8 47.146 60Z" fill="#5BA912"/>
<path d="M25 26C26.9778 26 28.9112 25.4135 30.5557 24.3147C32.2002 23.2159 33.4819 21.6541 34.2388 19.8268C34.9957 17.9996 35.1937 15.9889 34.8079 14.0491C34.422 12.1093 33.4696 10.3275 32.0711 8.92894C30.6725 7.53041 28.8907 6.578 26.9509 6.19215C25.0111 5.8063 23.0004 6.00433 21.1732 6.76121C19.3459 7.51809 17.7841 8.79981 16.6853 10.4443C15.5865 12.0888 15 14.0222 15 16C15.0029 18.6513 16.0574 21.1931 17.9321 23.0679C19.8069 24.9426 22.3487 25.9971 25 26ZM25 8C26.5823 8 28.129 8.4692 29.4446 9.34825C30.7602 10.2273 31.7855 11.4767 32.391 12.9385C32.9965 14.4003 33.155 16.0089 32.8463 17.5607C32.5376 19.1126 31.7757 20.538 30.6569 21.6569C29.538 22.7757 28.1126 23.5376 26.5607 23.8463C25.0089 24.155 23.4003 23.9965 21.9385 23.391C20.4767 22.7855 19.2273 21.7602 18.3482 20.4446C17.4692 19.129 17 17.5823 17 16C17.0024 13.879 17.846 11.8456 19.3458 10.3458C20.8456 8.84601 22.879 8.00239 25 8Z" fill="#5BA912"/>
<path d="M21 19H22V20C22 20.5304 22.2107 21.0391 22.5858 21.4142C22.9609 21.7893 23.4696 22 24 22H26C26.5304 22 27.0391 21.7893 27.4142 21.4142C27.7893 21.0391 28 20.5304 28 20V19H29C29.5304 19 30.0391 18.7893 30.4142 18.4142C30.7893 18.0391 31 17.5304 31 17V15C31 14.4696 30.7893 13.9609 30.4142 13.5858C30.0391 13.2107 29.5304 13 29 13H28V12C28 11.4696 27.7893 10.9609 27.4142 10.5858C27.0391 10.2107 26.5304 10 26 10H24C23.4696 10 22.9609 10.2107 22.5858 10.5858C22.2107 10.9609 22 11.4696 22 12V13H21C20.4696 13 19.9609 13.2107 19.5858 13.5858C19.2107 13.9609 19 14.4696 19 15V17C19 17.5304 19.2107 18.0391 19.5858 18.4142C19.9609 18.7893 20.4696 19 21 19ZM21 15H23C23.2652 15 23.5196 14.8946 23.7071 14.7071C23.8946 14.5196 24 14.2652 24 14V12H26V14C26 14.2652 26.1054 14.5196 26.2929 14.7071C26.4804 14.8946 26.7348 15 27 15H29V17H27C26.7348 17 26.4804 17.1054 26.2929 17.2929C26.1054 17.4804 26 17.7348 26 18V20H24V18C24 17.7348 23.8946 17.4804 23.7071 17.2929C23.5196 17.1054 23.2652 17 23 17H21V15Z" fill="#5BA912"/>
<path d="M26 56C26.5523 56 27 55.5523 27 55C27 54.4477 26.5523 54 26 54C25.4477 54 25 54.4477 25 55C25 55.5523 25.4477 56 26 56Z" fill="#5BA912"/>
<path d="M17.8841 53.712C17.0911 54.395 16.5521 54.32 16.1301 53.425C15.3011 51.625 13.7871 51.791 11.6751 53.148C11.1311 53.47 9.97509 54.248 9.67509 54.34C9.56073 53.646 9.63393 52.9341 9.88709 52.278C9.95706 52.0244 9.9243 51.7535 9.79591 51.5239C9.66751 51.2943 9.45382 51.1245 9.20114 51.0514C8.94845 50.9783 8.67713 51.0076 8.44595 51.1332C8.21478 51.2587 8.04237 51.4702 7.96609 51.722C7.35909 53.452 7.37309 56.238 9.56009 56.322C10.8531 56.393 13.1811 54.299 14.2301 54.105C14.3827 54.5855 14.6563 55.0187 15.0246 55.3631C15.3929 55.7074 15.8435 55.9513 16.3332 56.0713C16.8229 56.1912 17.3352 56.1833 17.821 56.0483C18.3067 55.9132 18.7496 55.6555 19.1071 55.3C19.7921 54.769 20.0491 54.571 21.3241 55.741C21.4197 55.8354 21.5333 55.9096 21.6583 55.9592C21.7832 56.0087 21.9168 56.0326 22.0512 56.0293C22.1855 56.0261 22.3178 55.9958 22.4402 55.9402C22.5626 55.8847 22.6725 55.8051 22.7634 55.7061C22.8543 55.6071 22.9243 55.4908 22.9693 55.3642C23.0143 55.2375 23.0332 55.1031 23.0251 54.969C23.0169 54.8348 22.9818 54.7037 22.9219 54.5834C22.8619 54.4632 22.7783 54.3562 22.6761 54.269C20.3531 52.13 18.9841 52.862 17.8841 53.712Z" fill="#5BA912"/>
<path d="M8 30H42C42.2652 30 42.5196 29.8946 42.7071 29.7071C42.8946 29.5196 43 29.2652 43 29C43 28.7348 42.8946 28.4804 42.7071 28.2929C42.5196 28.1054 42.2652 28 42 28H8C7.73478 28 7.48043 28.1054 7.29289 28.2929C7.10536 28.4804 7 28.7348 7 29C7 29.2652 7.10536 29.5196 7.29289 29.7071C7.48043 29.8946 7.73478 30 8 30Z" fill="#5BA912"/>
<path d="M29 34H8C7.73478 34 7.48043 34.1054 7.29289 34.2929C7.10536 34.4804 7 34.7348 7 35C7 35.2652 7.10536 35.5196 7.29289 35.7071C7.48043 35.8946 7.73478 36 8 36H29C29.2652 36 29.5196 35.8946 29.7071 35.7071C29.8946 35.5196 30 35.2652 30 35C30 34.7348 29.8946 34.4804 29.7071 34.2929C29.5196 34.1054 29.2652 34 29 34Z" fill="#5BA912"/>
<path d="M29 40H8C7.73478 40 7.48043 40.1054 7.29289 40.2929C7.10536 40.4804 7 40.7348 7 41C7 41.2652 7.10536 41.5196 7.29289 41.7071C7.48043 41.8946 7.73478 42 8 42H29C29.2652 42 29.5196 41.8946 29.7071 41.7071C29.8946 41.5196 30 41.2652 30 41C30 40.7348 29.8946 40.4804 29.7071 40.2929C29.5196 40.1054 29.2652 40 29 40Z" fill="#5BA912"/>
<path d="M26 46H8C7.73478 46 7.48043 46.1054 7.29289 46.2929C7.10536 46.4804 7 46.7348 7 47C7 47.2652 7.10536 47.5196 7.29289 47.7071C7.48043 47.8946 7.73478 48 8 48H26C26.2652 48 26.5196 47.8946 26.7071 47.7071C26.8946 47.5196 27 47.2652 27 47C27 46.7348 26.8946 46.4804 26.7071 46.2929C26.5196 46.1054 26.2652 46 26 46Z" fill="#5BA912"/>
<path d="M54.9221 42.044C54.3693 41.4662 53.6108 41.1298 52.8114 41.1081C52.012 41.0864 51.2364 41.381 50.6531 41.928L45.9081 46.428L44.6351 45.155C44.0602 44.6058 43.2957 44.2993 42.5006 44.2993C41.7055 44.2993 40.941 44.6058 40.3661 45.155C39.8008 45.7214 39.4834 46.4888 39.4834 47.289C39.4834 48.0892 39.8008 48.8566 40.3661 49.423L43.7161 52.775C44.2699 53.336 45.0222 53.6564 45.8104 53.6671C46.5986 53.6777 47.3593 53.3778 47.9281 52.832L54.8071 46.314C55.3855 45.7613 55.7222 45.0024 55.7437 44.2027C55.7653 43.4029 55.4699 42.627 54.9221 42.044ZM53.4311 44.859L46.5531 51.377C46.3608 51.5608 46.1041 51.6617 45.8382 51.6582C45.5722 51.6546 45.3183 51.5468 45.1311 51.358L41.7801 48.006C41.598 47.8131 41.4983 47.5569 41.5022 47.2917C41.506 47.0264 41.6132 46.7732 41.8008 46.5857C41.9884 46.3982 42.2417 46.2913 42.5069 46.2876C42.7721 46.2839 43.0283 46.3838 43.2211 46.566L45.1821 48.527C45.3663 48.7113 45.6152 48.8164 45.8757 48.8199C46.1363 48.8235 46.3879 48.7252 46.5771 48.546L52.0291 43.38C52.125 43.282 52.2396 43.2045 52.3662 43.1519C52.4928 43.0993 52.6287 43.0727 52.7658 43.0739C52.9028 43.0751 53.0383 43.1039 53.164 43.1586C53.2896 43.2133 53.403 43.2928 53.4972 43.3924C53.5915 43.4919 53.6646 43.6095 53.7124 43.7379C53.7601 43.8664 53.7815 44.0032 53.7751 44.1402C53.7687 44.2771 53.7348 44.4113 53.6753 44.5349C53.6159 44.6584 53.5321 44.7686 53.4291 44.859H53.4311Z" fill="#5BA912"/>
</svg>
