<svg width="56" height="56" viewBox="0 0 56 56" fill="none" xmlns="http://www.w3.org/2000/svg">
<path fill-rule="evenodd" clip-rule="evenodd" d="M0.999743 21.0015C0.445885 21.0015 0 20.5535 0 20.0014V3.00021C0 1.3461 1.34365 0 2.99923 0H4.99871C5.55057 0 5.99846 0.446032 5.99846 1.00007C5.99846 1.55211 5.55057 2.00014 4.99871 2.00014H2.99923C2.44737 2.00014 1.99949 2.44817 1.99949 3.00021V20.0014C1.99949 20.5535 1.5516 21.0015 0.999743 21.0015ZM52.9864 56.004H22.9941C22.4402 56.004 21.9943 55.556 21.9943 55.0039C21.9943 54.4499 22.4402 54.0039 22.9941 54.0039H52.9864C53.5382 54.0039 53.9861 53.5558 53.9861 53.0038V3.00023C53.9861 2.44819 53.5382 2.00016 52.9864 2.00016H9.99743C9.44357 2.00016 8.99769 1.55212 8.99769 1.00008C8.99769 0.446045 9.44357 1.31726e-05 9.99743 1.31726e-05H52.9864C54.6399 1.31726e-05 55.9856 1.34611 55.9856 3.00023V53.0038C55.9856 54.6579 54.6399 56.004 52.9864 56.004ZM22.9941 50.0036H44.9884C47.7437 50.0036 49.9871 47.7594 49.9871 45.0032C49.9871 44.4492 49.5392 44.0031 48.9874 44.0031C48.4335 44.0031 47.9876 44.4492 47.9876 45.0032C47.9876 46.6573 46.642 48.0034 44.9884 48.0034H22.9941C22.4402 48.0034 21.9943 48.4494 21.9943 49.0035C21.9943 49.5555 22.4402 50.0036 22.9941 50.0036ZM6.99821 18.0013C6.44435 18.0013 5.99847 17.5533 5.99847 17.0012V11.0008C5.99847 8.24459 8.23989 6.00043 10.9972 6.00043H44.9884C47.7437 6.00043 49.9871 8.24459 49.9871 11.0008C49.9871 11.5528 49.5393 12.0009 48.9874 12.0009C48.4335 12.0009 47.9877 11.5528 47.9877 11.0008C47.9877 9.34667 46.642 8.00057 44.9884 8.00057H10.9972C9.34161 8.00057 7.99795 9.34667 7.99795 11.0008V17.0012C7.99795 17.5533 7.55007 18.0013 6.99821 18.0013ZM47.9877 31.0022C47.9877 31.5543 48.4335 32.0023 48.9874 32.0023C49.5393 32.0023 49.9871 31.5543 49.9871 31.0022V25.0018C49.9871 24.4477 49.5393 24.0017 48.9874 24.0017C48.4335 24.0017 47.9877 24.4477 47.9877 25.0018V31.0022ZM50.9869 42.003H46.9879C46.4341 42.003 45.9882 41.555 45.9882 41.0029V35.0025C45.9882 34.4485 46.4341 34.0024 46.9879 34.0024H50.9869C51.5387 34.0024 51.9866 34.4485 51.9866 35.0025V41.0029C51.9866 41.555 51.5387 42.003 50.9869 42.003ZM47.9877 40.0028H49.9871V36.0026H47.9877V40.0028ZM46.9879 22.0016H50.9869C51.5387 22.0016 51.9866 21.5535 51.9866 21.0015V15.0011C51.9866 14.447 51.5387 14.001 50.9869 14.001H46.9879C46.4341 14.001 45.9882 14.447 45.9882 15.0011V21.0015C45.9882 21.5535 46.4341 22.0016 46.9879 22.0016ZM49.9871 20.0014H47.9877V16.0012H49.9871V20.0014ZM27.9928 42.003C24.0878 42.003 20.3308 40.3549 17.6914 37.4807C17.3155 37.0727 17.3435 36.4406 17.7494 36.0666C18.1573 35.6946 18.7912 35.7206 19.1631 36.1266C19.7625 36.7793 20.4295 37.3584 21.1483 37.8569L22.1263 36.1626C22.4022 35.6846 23.0121 35.5165 23.4919 35.7966C23.9718 36.0726 24.1358 36.6826 23.8578 37.1627L22.8805 38.856C24.1673 39.462 25.5606 39.8401 26.9931 39.9608V38.0028C26.9931 37.4487 27.439 37.0027 27.9928 37.0027C28.5447 37.0027 28.9926 37.4487 28.9926 38.0028V39.9616C30.4519 39.8407 31.8378 39.4575 33.103 38.8593L32.1237 37.1627C31.8458 36.6826 32.0098 36.0726 32.4896 35.7966C32.9635 35.5165 33.5774 35.6846 33.8553 36.1626L34.8332 37.8568C36.0061 37.0398 37.0269 36.0187 37.8438 34.8454L36.1507 33.8679C35.6708 33.5899 35.5088 32.9801 35.7848 32.5022C36.0607 32.0223 36.6705 31.8584 37.1504 32.1363L38.8459 33.1152C39.4443 31.849 39.8276 30.462 39.9485 29.0015H37.9902C37.4364 29.0015 36.9905 28.5536 36.9905 28.0017C36.9905 27.4479 37.4364 27.002 37.9902 27.002H39.9485C39.8275 25.5414 39.4441 24.1543 38.8456 22.8881L37.1504 23.8668C36.9925 23.9568 36.8205 24.0008 36.6526 24.0008C36.3066 24.0008 35.9707 23.8208 35.7848 23.5009C35.5088 23.021 35.6708 22.4112 36.1507 22.1352L37.8434 21.1579C37.0264 19.9847 36.0054 18.9636 34.8323 18.1466L33.8553 19.8395C33.6713 20.1615 33.3354 20.3395 32.9895 20.3395C32.8215 20.3395 32.6476 20.2975 32.4896 20.2055C32.0117 19.9295 31.8478 19.3194 32.1237 18.8394L33.1021 17.1443C31.8371 16.5464 30.4515 16.1633 28.9926 16.0424V18.0013C28.9926 18.5534 28.5447 19.0014 27.9928 19.0014C27.439 19.0014 26.9931 18.5534 26.9931 18.0013V16.0417C25.5453 16.1596 24.1549 16.533 22.8746 17.1359L23.8578 18.8394C24.1358 19.3194 23.9718 19.9295 23.4919 20.2055C23.336 20.2975 23.164 20.3395 22.9941 20.3395C22.6482 20.3395 22.3122 20.1615 22.1263 19.8395L21.1441 18.1378C20.1329 18.8436 19.2232 19.7132 18.4492 20.7295C18.1153 21.1695 17.4895 21.2555 17.0476 20.9195C16.6057 20.5835 16.5237 19.9554 16.8576 19.5174C19.527 16.0112 23.5859 14.001 27.9928 14.001C35.7108 14.001 41.9892 20.2815 41.9892 28.002C41.9892 35.7226 35.7108 42.003 27.9928 42.003ZM20.9946 28.002C20.9946 31.8623 24.1338 35.0025 27.9928 35.0025C31.8518 35.0025 34.991 31.8623 34.991 28.002C34.991 24.1417 31.8518 21.0015 27.9928 21.0015C24.1338 21.0015 20.9946 24.1417 20.9946 28.002ZM22.9941 28.002C22.9941 25.2438 25.2355 23.0017 27.9928 23.0017C30.7481 23.0017 32.9915 25.2438 32.9915 28.002C32.9915 30.7582 30.7481 33.0024 27.9928 33.0024C25.2355 33.0024 22.9941 30.7582 22.9941 28.002ZM8.98321 38.0027C4.02712 37.9948 0 33.9596 0 29.0021C0 24.0397 4.03496 20.0014 8.99768 20.0014C13.9584 20.0014 17.9954 24.0397 17.9954 29.0021C17.9954 33.9596 13.9662 37.9948 9.01215 38.0027H16.9956C17.5475 38.0027 17.9954 38.4487 17.9954 39.0027V42.003H18.9951C19.547 42.003 19.9949 42.449 19.9949 43.003V47.0033C19.9949 47.5554 19.547 48.0034 18.9951 48.0034H17.9954V50.0035H18.9951C19.547 50.0035 19.9949 50.4495 19.9949 51.0036V55.0039C19.9949 55.5559 19.547 56.0039 18.9951 56.0039H2.99923C2.44538 56.0039 1.99949 55.5559 1.99949 55.0039V52.0036H0.999746C0.445889 52.0036 3.76743e-06 51.5556 3.76743e-06 51.0036V47.0033C3.76743e-06 46.4492 0.445889 46.0032 0.999746 46.0032H1.99949V44.0031H0.999746C0.445889 44.0031 3.76743e-06 43.5551 3.76743e-06 43.003C3.76743e-06 42.449 0.445889 42.003 0.999746 42.003H15.9959V40.0028H0.999746C0.445889 40.0028 3.76743e-06 39.5548 3.76743e-06 39.0027C3.76743e-06 38.4487 0.445889 38.0027 0.999746 38.0027H8.98321ZM8.99768 22.0016C5.13868 22.0016 1.99949 25.1418 1.99949 29.0021C1.99949 32.8623 5.13868 36.0025 8.99768 36.0025C12.8567 36.0025 15.9959 32.8623 15.9959 29.0021C15.9959 25.1418 12.8567 22.0016 8.99768 22.0016ZM2.99923 48.0034L2.99061 48.0034H1.99949V50.0035H15.9959V48.0034H2.99923ZM17.9954 46.0033H17.0042L16.9956 46.0032H3.99898V44.0031H17.9954V46.0033ZM17.9954 52.0037V54.0038H3.99898V52.0037H17.9954Z" fill="#5BA912"/>
</svg>
