<svg width="500" height="500" viewBox="0 0 500 500" fill="none" xmlns="http://www.w3.org/2000/svg">
<path d="M61.7002 326.8C89.5002 356.1 129.5 374.2 169.3 378.5V454C169.3 468.2 180.9 479.8 195.1 479.8H406.6C415.4 479.8 415.8 465.7 406.6 465.7H195.2C188.7 465.7 183.5 460.4 183.5 454V346C183.5 339.5 188.8 334.3 195.2 334.3H464.6C471.1 334.3 476.3 339.6 476.3 346V454C476.3 460.5 471 465.7 464.6 465.7H444.3C435.5 465.7 435.1 479.8 444.3 479.8H464.6C478.8 479.8 490.4 468.2 490.4 454V346C490.4 331.8 478.8 320.2 464.6 320.2H451.2C451.2 292.4 451.2 253.9 451.2 226.1C451.2 222.2 448 219.1 444.2 219.1H375C375 204.4 375 173.6 375 158.7C375 154.8 371.8 151.7 368 151.7H362C341.7 75.7002 267.9 19.0002 188.9 20.3002C167 20.3002 145.7 24.2002 125.4 31.9002C117.1 35.0002 121.8 48.3002 130.4 45.1002C146.9 38.9002 164.2 35.3002 181.9 34.6002V183L76.9002 77.9002C83.5002 71.8002 90.7002 66.2002 98.3002 61.2002C105.7 56.4002 98.3002 44.4002 90.6002 49.4002C-4.09979 109.1 -18.2998 248.9 61.7002 326.8ZM437.1 286.5H375V266.9H437.1V286.5ZM298.8 233.2H360.9V252.8H298.8V233.2ZM298.8 266.9H360.9V286.5H298.8V266.9ZM360.9 219.1H298.8V199.5H360.9V219.1ZM360.9 165.7V185.3H298.8V165.7H360.9ZM284.7 286.5H222.6V266.9H284.7V286.5ZM222.6 300.6H284.7V320.2H222.6V300.6ZM298.8 300.6H360.9V320.2H298.8V300.6ZM375 320.2V300.6H437.1V320.2H375ZM437.1 252.8H375V233.2H437.1V252.8ZM347.3 151.6H291.8C287.9 151.6 284.8 154.8 284.8 158.6C284.8 186.4 284.8 224.9 284.8 252.7H215.7C211.8 252.7 208.7 255.9 208.7 259.7C208.7 274.6 208.7 305.3 208.7 320.1H195.3C181.1 320.1 169.5 331.7 169.5 345.9V364.2C134.9 360.1 102.7 345.3 77.0002 321.7L194 204.7C195.3 203.4 196.1 201.6 196.1 199.7V34.5002C264.6 36.3002 328 85.9002 347.3 151.6ZM66.9002 87.9002L178.9 199.9L66.9002 311.9C9.00021 251.5 9.40021 147.8 66.9002 87.9002Z" fill="#B72837"/>
<path d="M318.2 372.3C327.5 372 327.5 358.5 318.2 358.2H288.8C284.9 358.2 281.8 361.4 281.8 365.2V435C281.8 438.9 285 442 288.8 442H318.2C327.5 441.7 327.5 428.2 318.2 427.9H295.9V407.1H316.1C325.4 406.8 325.4 393.3 316.1 393H295.9V372.2H318.2V372.3Z" fill="#B72837"/>
<path d="M207.4 433.9C207.4 438.1 209.9 442.1 214.6 442.1C215.2 442.1 229 442 234.5 441.9C279.8 441.1 279.8 358.9 233.8 359.6H214.5C210.5 359.6 207.5 362.8 207.5 366.7L207.4 433.9ZM233.8 373.8C261.6 373.3 260.9 427.5 234.2 427.9C231.3 428 225.9 428 221.5 428C221.4 409.9 221.5 391.9 221.5 373.8H233.8Z" fill="#B72837"/>
<path d="M366.7 357.6H346.3C342.4 357.6 339.3 360.8 339.3 364.6C339.3 382 339.3 417.5 339.3 435C339.3 438.5 342.8 442 346.4 442H370.4C395.8 441.8 405.9 409.2 385.4 394.7C396.8 379.8 385.8 357.5 366.7 357.6ZM366.7 371.7C378.8 372.2 378.8 389.5 366.7 390C362.2 390 357.8 390 353.3 390V371.7H366.7ZM370.3 427.9C367.2 427.9 359.2 427.9 353.3 428V404.2C359 404.2 364.6 404.2 370.3 404.2C386.1 404.8 386.1 427.3 370.3 427.9Z" fill="#B72837"/>
<path d="M425.7 442.4C429.6 442.4 432.7 439.2 432.7 435.4V372H445.2C454.5 371.7 454.5 358.2 445.2 357.9H406.3C397 358.2 397 371.7 406.3 372H418.6V435.3C418.7 439.3 421.8 442.4 425.7 442.4Z" fill="#B72837"/>
</svg>
