<svg width="512" height="512" viewBox="0 0 512 512" fill="none" xmlns="http://www.w3.org/2000/svg">
<g clip-path="url(#clip0_3759_8)">
<path d="M21.3 349.9C21.3 364 32.8001 375.5 46.9001 375.5H91.6001C97.8001 389.2 122.7 413 218.5 417.4C218.7 418 218.9 418.7 219.1 419.3C204.7 428.7 195 443.8 192.5 460.8H132.2C113.3 460.8 98.1001 476.1 98.1001 494.9C98.1001 504.3 105.7 512 115.2 512H388.3C397.7 512 405.4 504.4 405.4 494.9C405.4 476 390.1 460.8 371.3 460.8H310.9C308.5 443.8 298.8 428.6 284.4 419.4C284.6 418.7 284.9 418.1 285 417.4C380.9 413 405.7 389.2 411.9 375.5H465.1C479.2 375.5 490.7 364 490.7 349.9C490.7 335.8 479.2 324.3 465.1 324.3H455C456 321.6 456.5 318.7 456.6 315.8V230.5C470.7 230.5 482.2 219 482.2 204.9V145.2C482.2 119.2 465.4 96.3001 440.7 88.3001C461.2 68.8001 462 36.4001 442.5 15.9001C423 -4.59988 390.5 -5.49988 370 14.0001C349.5 33.5001 348.7 65.9001 368.2 86.4001C368.8 87.0001 369.4 87.6001 370 88.2001C345.3 96.1001 328.5 119.1 328.5 145.1V204.8C328.5 218.9 340 230.4 354.1 230.4V315.7C354.1 318.6 354.7 321.5 355.7 324.2H345.6C331.5 324.2 320 335.7 320 349.8C320 363.9 331.5 375.4 345.6 375.4H390.1C378.3 385 348.7 397.2 284.4 400.2C279.4 382.1 260.7 371.6 242.6 376.6C231.2 379.8 222.2 388.7 219 400.2C154.2 397.1 124.6 384.8 113 375.4H166.3C180.4 375.4 191.9 363.9 191.9 349.8C191.9 335.7 180.4 324.2 166.3 324.2H156.2C157.2 321.5 157.7 318.6 157.8 315.7V230.4C171.9 230.4 183.4 218.9 183.4 204.8V145.1C183.4 119.1 166.6 96.2001 141.9 88.2001C162.4 68.7001 163.2 36.3001 143.7 15.8001C124.2 -4.69988 91.9001 -5.49988 71.4001 14.0001C50.9001 33.5001 50.1 65.9001 69.6 86.4001C70.2 87.0001 70.8001 87.6001 71.4001 88.2001C46.7001 96.1001 29.9 119.1 29.9 145.1V204.8C29.9 218.9 41.4 230.4 55.5 230.4V315.7C55.5 318.6 56.1 321.5 57.1 324.2H46.9001C32.8001 324.3 21.3 335.7 21.3 349.9ZM405.3 17.1001C424.2 17.1001 439.4 32.4001 439.4 51.2001C439.4 70.0001 424.1 85.3001 405.3 85.3001C386.4 85.3001 371.2 70.0001 371.2 51.2001C371.2 32.4001 386.5 17.1001 405.3 17.1001ZM371.2 315.7V223.7C376.6 218.9 379.7 212 379.7 204.8V145.1C379.7 140.4 375.9 136.6 371.2 136.6C366.5 136.6 362.7 140.4 362.7 145.1V204.8C362.7 209.5 358.9 213.3 354.2 213.3C349.5 213.3 345.7 209.5 345.7 204.8V145.1C345.7 121.5 364.8 102.5 388.4 102.4H422.5C446.1 102.4 465.1 121.5 465.2 145.1V204.8C465.2 209.5 461.4 213.3 456.7 213.3C452 213.3 448.2 209.5 448.2 204.8V145.1C448.2 140.4 444.4 136.6 439.7 136.6C435 136.6 431.2 140.4 431.2 145.1V204.8C431.2 212 434.3 218.9 439.7 223.7V315.7C439.7 320.4 435.9 324.2 431.2 324.2H414.1V204.8C414.1 200.1 410.3 196.3 405.6 196.3C400.9 196.3 397.1 200.1 397.1 204.8V324.3H380C375 324.3 371.2 320.4 371.2 315.7ZM337.1 349.9C337.1 345.2 340.9 341.4 345.6 341.4H465.1C469.8 341.4 473.6 345.2 473.6 349.9C473.6 354.6 469.8 358.4 465.1 358.4H406.7C406.3 358.3 405.9 358.2 405.4 358.1C404.9 358.1 404.4 358.2 403.9 358.4H345.6C340.9 358.4 337.1 354.6 337.1 349.9ZM388.3 494.9H115.2C115.2 485.5 122.8 477.8 132.3 477.8H371.2C380.6 477.9 388.3 485.5 388.3 494.9ZM210 460.8C212.2 449.9 218.6 440.2 227.9 434C241.1 447 262.3 447 275.5 434C277.8 435.5 279.9 437.3 281.9 439.2C287.8 445.1 291.9 452.6 293.5 460.8H210ZM251.7 392.5C261.1 392.5 268.8 400.1 268.8 409.6C268.8 419 261.2 426.7 251.7 426.7C242.2 426.7 234.6 419.1 234.6 409.6C234.7 400.2 242.3 392.5 251.7 392.5ZM174.9 349.9C174.9 354.6 171.1 358.4 166.4 358.4H46.9001C42.2001 358.4 38.4001 354.6 38.4001 349.9C38.4001 345.2 42.2001 341.4 46.9001 341.4H166.4C171.1 341.3 174.9 345.2 174.9 349.9ZM106.7 17.1001C125.6 17.1001 140.8 32.4001 140.8 51.2001C140.8 70.0001 125.5 85.3001 106.7 85.3001C87.9 85.3001 72.5 70.1001 72.5 51.2001C72.5 32.3001 87.8 17.1001 106.7 17.1001ZM72.5 315.7V223.7C77.9 218.9 81 212 81 204.8V145.1C81 140.4 77.2 136.6 72.5 136.6C67.8 136.6 64 140.4 64 145.1V204.8C64 209.5 60.2 213.3 55.5 213.3C50.8 213.3 47 209.5 47 204.8V145.1C47 121.5 66.1 102.5 89.7 102.4H123.8C147.4 102.4 166.4 121.5 166.5 145.1V204.8C166.5 209.5 162.7 213.3 158 213.3C153.3 213.3 149.5 209.5 149.5 204.8V145.1C149.5 140.4 145.7 136.6 141 136.6C136.3 136.6 132.5 140.4 132.5 145.1V204.8C132.5 212 135.6 218.9 141 223.7V315.7C141 320.4 137.2 324.2 132.5 324.2H115.4V204.8C115.4 200.1 111.6 196.3 106.9 196.3C102.2 196.3 98.4001 200.1 98.4001 204.8V324.3H81.1C76.4 324.3 72.5 320.4 72.5 315.7Z" fill="#B72837"/>
</g>
<defs>
<clipPath id="clip0_3759_8">
<rect width="512" height="512" fill="white"/>
</clipPath>
</defs>
</svg>
