<svg width="512" height="512" viewBox="0 0 512 512" fill="none" xmlns="http://www.w3.org/2000/svg">
<path d="M315.9 255L310.2 251.8C310.3 250.5 310.4 249.2 310.4 248C310.4 246.7 310.3 245.5 310.2 244.2L315.9 241C319.1 239.2 320.7 235.5 319.7 232C316.7 220.7 310.6 210.4 302.1 202.4C299.6 200 295.7 199.5 292.7 201.2L287 204.8C284.6 203.2 282.1 201.8 279.5 200.5V194.1C279.5 190.5 277.1 187.3 273.6 186.4C262.1 183.3 250 183.3 238.6 186.4C235.1 187.3 232.7 190.5 232.7 194.1V200.4C230.2 201.5 227.8 202.9 225.5 204.5L219.4 201.1C216.3 199.4 212.5 199.9 210 202.3C201.5 210.4 195.4 220.6 192.4 231.9C191.5 235.4 193 239.2 196.2 240.9L201.9 244.1C201.8 245.4 201.7 246.7 201.7 247.9C201.7 249.2 201.8 250.5 201.9 251.7L196.2 254.9C193 256.7 191.4 260.4 192.4 264C195.4 275.3 201.5 285.6 210 293.6C212.5 296 216.4 296.5 219.4 294.8L225.1 291.2C227.5 292.8 230 294.2 232.6 295.5V301.9C232.6 305.5 235 308.7 238.5 309.6C244.2 311.1 250.1 311.9 256 311.9H256.8C262.4 311.8 268 311 273.5 309.5C277 308.6 279.4 305.4 279.4 301.8V295.5C281.9 294.4 284.3 293 286.6 291.4L292.7 294.8C295.8 296.5 299.6 296 302.1 293.6C310.6 285.5 316.7 275.3 319.7 264C320.7 260.6 319.1 256.8 315.9 255ZM293.7 241.3C294.6 245.7 294.6 250.2 293.7 254.6C293 258 294.6 261.4 297.7 263.1L302.4 265.7C300.6 270.1 298.1 274.1 295.1 277.8L294.5 277.5C289.4 274.6 283 274.8 278.1 278C276.3 279.2 274.4 280.3 272.4 281.2C267 283.7 263.5 289.1 263.5 295.1V295.4C261.2 295.7 259 295.9 256.7 296C254 296 251.3 295.8 248.6 295.5V295.2C248.6 289.2 245.2 283.8 239.7 281.3C237.7 280.4 235.8 279.3 234 278.1C229.1 274.9 222.7 274.7 217.6 277.6L217 277.9C214 274.3 211.5 270.2 209.7 265.8L214.4 263.2C217.4 261.5 219 258.1 218.4 254.7C217.5 250.3 217.5 245.7 218.4 241.3C219 237.9 217.4 234.5 214.4 232.8L209.7 230.2C211.5 225.8 214 221.8 217 218.1L217.6 218.4C222.7 221.3 229.1 221.1 234 217.9C235.8 216.7 237.7 215.6 239.7 214.7C245.1 212.2 248.6 206.8 248.6 200.8V200.5C253.5 199.7 258.6 199.7 263.5 200.5V200.8C263.5 206.8 266.9 212.2 272.4 214.7C274.4 215.6 276.3 216.7 278.1 217.9C283 221.1 289.4 221.3 294.5 218.4L295.1 218.1C298.1 221.8 300.6 225.8 302.4 230.2L297.7 232.8C294.6 234.5 293 237.9 293.7 241.3Z" fill="#B72837"/>
<path d="M256 220C240.5 220 228 232.5 228 248C228 263.5 240.5 276 256 276C271.5 276 284 263.5 284 248C284 232.5 271.5 220 256 220ZM256 260C249.4 260 244 254.6 244 248C244 241.4 249.4 236 256 236C262.6 236 268 241.4 268 248C268 254.6 262.6 260 256 260Z" fill="#B72837"/>
<path d="M176 160C162.8 160 152 170.8 152 184V320H144C139.6 320 136 323.6 136 328V344C136 357.2 146.8 368 160 368H352C365.2 368 376 357.2 376 344V328C376 323.6 372.4 320 368 320H360V184C360 170.8 349.2 160 336 160H176ZM360 344C360 348.4 356.4 352 352 352H160C155.6 352 152 348.4 152 344V336H360V344ZM344 184V320H168V184C168 179.6 171.6 176 176 176H336C340.4 176 344 179.6 344 184ZM16.0002 440H32.0002V496C32.0002 500.4 35.6002 504 40.0002 504H136C140.4 504 144 500.4 144 496V440H160C164.4 440 168 436.4 168 432C168 429.9 167.2 427.8 165.7 426.3L93.7002 354.3C90.6002 351.2 85.5002 351.2 82.4002 354.3L10.4002 426.3C7.3002 429.4 7.3002 434.5 10.4002 437.6C11.8002 439.2 13.9002 440 16.0002 440ZM96.0002 488H80.0002V464H96.0002V488ZM88.0002 371.3L140.7 424H136C131.6 424 128 427.6 128 432V488H112V456C112 451.6 108.4 448 104 448H72.0002C67.6002 448 64.0002 451.6 64.0002 456V488H48.0002V432C48.0002 427.6 44.4002 424 40.0002 424H35.3002L88.0002 371.3ZM384 192H496C500.4 192 504 188.4 504 184V24C504 15.2 496.8 8 488 8H392C383.2 8 376 15.2 376 24V184C376 188.4 379.6 192 384 192ZM448 152V176H432V152H448ZM392 24H488V176H464V152H472V136H408V152H416V176H392V24Z" fill="#B72837"/>
<path d="M400 40H416V56H400V40ZM432 40H448V56H432V40ZM464 40H480V56H464V40ZM400 72H416V88H400V72ZM432 72H448V88H432V72ZM464 72H480V88H464V72ZM400 104H416V120H400V104ZM432 104H448V120H432V104ZM464 104H480V120H464V104ZM56 200C56.1 133.8 109.8 80.1 176 80H288V96C288 100.4 291.6 104 296 104C297.5 104 298.9 103.6 300.1 102.9L340.1 78.9C343.9 76.6 345.1 71.7 342.8 67.9C342.1 66.8 341.2 65.8 340.1 65.2L300.1 41.2C296.3 38.9 291.4 40.2 289.1 43.9C288.4 45.1 288 46.6 288 48V64H176C100.9 64.1 40.1 124.9 40 200V328H56V200ZM304 62.1L320.4 72L304 81.9V62.1ZM472 320V240H456V320C455.9 386.2 402.2 439.9 336 440H256V424C256 419.6 252.4 416 248 416C246.5 416 245.1 416.4 243.9 417.1L203.9 441.1C200.1 443.4 198.9 448.3 201.2 452.1C201.9 453.2 202.8 454.2 203.9 454.8L243.9 478.8C247.7 481.1 252.6 479.8 254.9 476.1C255.6 474.9 256 473.4 256 472V456H336C411.1 455.9 471.9 395.1 472 320ZM240 457.9L223.6 448L240 438.1V457.9Z" fill="#B72837"/>
</svg>
