<svg width="512" height="512" viewBox="0 0 512 512" fill="none" xmlns="http://www.w3.org/2000/svg">
<path d="M32 80V185C32 211.5 53.5 233 80 233H185C211.5 233 233 211.5 233 185V80C233 53.5 211.5 32 185 32H80C53.5 32 32 53.5 32 80ZM64 80C64 71.2 71.2 64 80 64H185C193.8 64 201 71.2 201 80V185C201 193.8 193.8 201 185 201H80C71.2 201 64 193.8 64 185V80ZM32 432C32 458.5 53.5 480 80 480H185C211.5 480 233 458.5 233 432V327C233 300.5 211.5 279 185 279H80C53.5 279 32 300.5 32 327V432ZM64 327C64 318.2 71.2 311 80 311H185C193.8 311 201 318.2 201 327V432C201 440.8 193.8 448 185 448H80C71.2 448 64 440.8 64 432V327ZM432 279H327C300.5 279 279 300.5 279 327V432C279 458.5 300.5 480 327 480H432C458.5 480 480 458.5 480 432V327C480 300.5 458.5 279 432 279ZM448 432C448 440.8 440.8 448 432 448H327C318.2 448 311 440.8 311 432V327C311 318.2 318.2 311 327 311H432C440.8 311 448 318.2 448 327V432ZM464 116.5H395.5V48C395.5 39.2 388.3 32 379.5 32C370.7 32 363.5 39.2 363.5 48V116.5H295C286.2 116.5 279 123.7 279 132.5C279 141.3 286.2 148.5 295 148.5H363.5V217C363.5 225.8 370.7 233 379.5 233C388.3 233 395.5 225.8 395.5 217V148.5H464C472.8 148.5 480 141.3 480 132.5C480 123.7 472.8 116.5 464 116.5Z" fill="#B72837"/>
</svg>
