<svg width="40" height="40" viewBox="0 0 40 40" fill="none" xmlns="http://www.w3.org/2000/svg">
<path d="M21.3468 13.7394C21.3468 15.2061 21.7302 16.4378 22.4968 17.4344C23.0402 18.1211 23.7774 18.5722 24.7085 18.7878C25.6252 19.0011 26.4918 19.0161 27.2752 18.8344C27.5418 20.4178 27.1085 22.0944 26.0085 23.8711C24.9063 25.6467 23.4852 26.9817 21.7452 27.8761L24.3802 31.6678C25.7135 31.0078 26.9802 30.1711 28.1468 29.1594C29.3302 28.1478 30.3802 26.9844 31.3135 25.6694C32.2468 24.3544 32.9468 22.8694 33.3968 21.1861C33.8468 19.5028 33.9718 17.7861 33.7568 16.0194C33.4768 13.6861 32.7235 11.8194 31.4968 10.4361C30.2713 9.03503 28.7446 8.33447 26.9168 8.33447C25.3085 8.33447 23.9735 8.81781 22.9168 9.79781C21.8713 10.7578 21.3491 12.0733 21.3502 13.7444L21.3468 13.7394ZM6.14014 13.7394C6.14014 15.2061 6.52348 16.4378 7.29014 17.4344C7.83459 18.1344 8.57181 18.5883 9.50181 18.7961C10.4352 19.0017 11.2907 19.0139 12.0685 18.8328C12.3352 20.3994 11.9185 22.0828 10.8152 23.8661C9.71514 25.6328 8.29514 26.9661 6.55514 27.8661L9.18348 31.6678C10.5179 31.0078 11.7735 30.1717 12.9502 29.1594C14.1442 28.1327 15.2047 26.9602 16.1068 25.6694C17.0335 24.3528 17.7235 22.8694 18.1735 21.1861C18.6306 19.5041 18.7535 17.7487 18.5352 16.0194C18.2585 13.6861 17.5085 11.8194 16.2852 10.4361C15.0629 9.04503 13.5391 8.34947 11.7135 8.34947C10.1024 8.34725 8.76792 8.83447 7.71014 9.81114C6.66459 10.7711 6.14125 12.0867 6.14014 13.7578V13.7394Z" fill="white"/>
</svg>
