<svg width="40" height="40" viewBox="0 0 40 40" fill="none" xmlns="http://www.w3.org/2000/svg">
<g clip-path="url(#clip0_4466_24)">
<mask id="mask0_4466_24" style="mask-type:luminance" maskUnits="userSpaceOnUse" x="0" y="0" width="40" height="40">
<path d="M40 0H0V40H40V0Z" fill="white"/>
</mask>
<g mask="url(#mask0_4466_24)">
<mask id="mask1_4466_24" style="mask-type:luminance" maskUnits="userSpaceOnUse" x="0" y="0" width="40" height="40">
<path d="M40 0H0V40H40V0Z" fill="white"/>
</mask>
<g mask="url(#mask1_4466_24)">
<path d="M21.1243 16.0564L26.3508 11.4382C26.7139 11.0829 26.7139 10.5145 26.4233 10.1593C26.1333 9.80401 25.4796 9.80401 25.1165 10.0882L20.0349 14.6354V12.5039C20.9786 7.03307 25.9152 3.90687 31.9404 5.04367C32.376 8.52511 27.9482 16.7669 21.1243 16.0564ZM25.4796 29.3428C25.4796 32.7532 22.6485 35.5952 19.0912 35.5952C15.5339 35.5952 12.7028 32.8242 12.7028 29.3428C12.7028 25.8613 15.5339 23.0904 19.0912 23.0904C22.6485 23.0904 25.4796 25.9324 25.4796 29.3428ZM6.242 5.04367C12.3397 3.83582 17.2763 6.96202 18.1475 12.5039V14.6354L13.066 10.0882C12.7029 9.73296 12.1223 9.80401 11.7592 10.1593C11.396 10.5145 11.4685 11.0829 11.8316 11.4382L17.0582 16.0564C10.1624 16.7669 5.37079 11.9355 6.242 5.04367ZM33.6097 4.12002C33.5379 3.76477 33.3197 3.48057 32.9566 3.40952C27.875 2.20167 22.7935 3.55162 19.9624 7.67252V2.98322C19.9624 2.48587 19.5268 2.05957 19.0187 2.05957C18.5107 2.05957 18.0751 2.48587 18.0751 2.98322V7.67252C17.6395 7.03307 17.0582 6.39362 16.4776 5.82522C13.6465 3.26742 9.50867 2.34377 5.08015 3.40952C4.71775 3.48057 4.4271 3.76477 4.4271 4.12002C2.97461 12.7881 9.36371 19.1116 18.0751 17.6195V21.3141C15.897 21.5273 13.9372 22.6641 12.6304 24.2272V21.5273C12.6304 21.0299 12.1948 20.6036 11.6867 20.6036C11.1786 20.6036 10.743 21.0299 10.743 21.5273V29.2007C10.743 33.6058 14.3728 37.2293 18.9463 37.2293C21.4867 37.2293 23.8097 36.0925 25.3339 34.2452V36.9451C25.3339 37.4425 25.7702 37.8688 26.2783 37.8688C26.7864 37.8688 27.222 37.4425 27.222 36.9451V29.3428C27.222 25.2219 24.0278 21.8115 19.9624 21.3852V20.4615C24.5359 20.8878 28.1657 24.7245 28.1657 29.2717C28.1657 29.7691 28.6013 30.1954 29.1094 30.1954C29.6175 30.1954 30.0531 29.7691 30.0531 29.2717C30.0531 23.7298 25.6245 19.1116 20.0349 18.6853V17.6195C28.6738 19.1826 35.0621 12.8592 33.6097 4.12002Z" fill="#5BA913"/>
<path d="M28.1683 7.81543C28.6893 7.81543 29.112 8.22894 29.112 8.73907C29.112 9.24921 28.6893 9.66272 28.1683 9.66272C27.6473 9.66272 27.2246 9.24921 27.2246 8.73907C27.2246 8.22894 27.6473 7.81543 28.1683 7.81543Z" fill="#5BA913"/>
<path d="M37.2425 10.6572C37.7635 10.6572 38.1855 11.0707 38.1855 11.5808C38.1855 12.0909 37.7635 12.5045 37.2425 12.5045C36.7208 12.5045 36.2988 12.0909 36.2988 11.5808C36.2988 11.0707 36.7208 10.6572 37.2425 10.6572Z" fill="#5BA913"/>
<path d="M14.5921 0C15.1139 0 15.5358 0.413511 15.5358 0.923648C15.5358 1.43379 15.1139 1.8473 14.5921 1.8473C14.0711 1.8473 13.6484 1.43379 13.6484 0.923648C13.6484 0.413511 14.0711 0 14.5921 0Z" fill="#5BA913"/>
<path d="M1.88899 11.5801C2.40999 11.5801 2.83267 11.9936 2.83267 12.5038C2.83267 13.0139 2.40999 13.4274 1.88899 13.4274C1.36799 13.4274 0.945312 13.0139 0.945312 12.5038C0.945312 11.9936 1.36799 11.5801 1.88899 11.5801Z" fill="#5BA913"/>
<path d="M7.33237 20.4619C7.85337 20.4619 8.27605 20.8754 8.27605 21.3855C8.27605 21.8957 7.85337 22.3092 7.33237 22.3092C6.81137 22.3092 6.38867 21.8957 6.38867 21.3855C6.38867 20.8754 6.81137 20.4619 7.33237 20.4619Z" fill="#5BA913"/>
<path d="M3.70346 35.5234C4.22518 35.5234 4.64714 35.9369 4.64714 36.4471C4.64714 36.9572 4.22518 37.3707 3.70346 37.3707C3.18246 37.3707 2.75977 36.9572 2.75977 36.4471C2.75977 35.9369 3.18246 35.5234 3.70346 35.5234Z" fill="#5BA913"/>
<path d="M32.7406 35.5234C33.2616 35.5234 33.6843 35.9369 33.6843 36.4471C33.6843 36.9572 33.2616 37.3707 32.7406 37.3707C32.2196 37.3707 31.7969 36.9572 31.7969 36.4471C31.7969 35.9369 32.2196 35.5234 32.7406 35.5234Z" fill="#5BA913"/>
<path d="M33.6129 26.6436C34.1346 26.6436 34.5573 27.0571 34.5573 27.5672C34.5573 28.0774 34.1346 28.4909 33.6129 28.4909C33.0926 28.4909 32.6699 28.0774 32.6699 27.5672C32.6699 27.0571 33.0926 26.6436 33.6129 26.6436Z" fill="#5BA913"/>
<path d="M19.0944 38.2238C14.0854 38.2238 10.02 34.245 10.02 29.3425C10.02 28.8452 9.58436 28.4189 9.07628 28.4189C8.56819 28.4189 8.20508 28.8452 8.20508 29.3425C8.20508 35.2397 13.0692 40 19.0944 40C19.6025 40 20.0381 39.5737 20.0381 39.0764C20.0381 38.6501 19.6025 38.2238 19.0944 38.2238Z" fill="#5BA913"/>
<path d="M2.75858 24.9373C2.25049 24.9373 1.8149 24.511 1.8149 24.0137C1.8149 23.5163 2.25049 23.09 2.75858 23.09C3.26666 23.09 3.70227 23.5163 3.70227 24.0137C3.70227 24.511 3.26666 24.9373 2.75858 24.9373ZM2.75858 21.3848C1.23432 21.3848 0 22.5927 0 24.0847C0 25.5768 1.23432 26.7846 2.75858 26.7846C4.28355 26.7846 5.51717 25.5768 5.51717 24.0847C5.51717 22.5927 4.28355 21.3848 2.75858 21.3848Z" fill="#5BA913"/>
<path d="M36.37 22.2369C35.3531 22.2369 34.5551 21.4554 34.5551 20.4607C34.5551 19.466 35.3531 18.6844 36.37 18.6844C37.3862 18.6844 38.1842 19.466 38.1842 20.4607C38.1842 21.4554 37.3137 22.2369 36.37 22.2369ZM36.37 16.9082C34.337 16.9082 32.7402 18.4713 32.7402 20.4607C32.7402 22.4501 34.337 24.0132 36.37 24.0132C38.4024 24.0132 39.9998 22.4501 39.9998 20.4607C39.9998 18.4713 38.3299 16.9082 36.37 16.9082Z" fill="#5BA913"/>
<path d="M20.9676 27.9693H20.6113C20.5387 27.7752 20.437 27.5915 20.3091 27.4239H20.9676C21.0991 27.4239 21.2253 27.3753 21.3183 27.2889C21.4113 27.2025 21.4635 27.0853 21.4635 26.9632C21.4635 26.841 21.4113 26.7238 21.3183 26.6374C21.2253 26.551 21.0991 26.5025 20.9676 26.5025H18.4469C18.4288 26.5025 18.4112 26.5 18.3927 26.5H17.0814C16.9499 26.5 16.8237 26.5485 16.7307 26.6349C16.6377 26.7213 16.5854 26.8385 16.5854 26.9607C16.5854 27.0829 16.6377 27.2001 16.7307 27.2865C16.8237 27.3729 16.9499 27.4214 17.0814 27.4214H18.3927C18.613 27.4214 18.8301 27.4713 19.025 27.5668C19.2199 27.6623 19.3867 27.8004 19.5112 27.9693H17.1019C16.9704 27.9693 16.8442 28.0179 16.7512 28.1043C16.6582 28.1907 16.6059 28.3078 16.6059 28.43C16.6059 28.5522 16.6582 28.6694 16.7512 28.7558C16.8442 28.8422 16.9704 28.8907 17.1019 28.8907H19.7283C19.6757 29.1847 19.5127 29.4519 19.2682 29.6449C19.0237 29.8379 18.7135 29.9441 18.3927 29.9448H17.0814C16.9845 29.9448 16.8897 29.9713 16.8088 30.0208C16.7278 30.0704 16.6642 30.1409 16.6259 30.2236C16.5876 30.3064 16.5763 30.3977 16.5933 30.4864C16.6103 30.575 16.655 30.6571 16.7216 30.7225L19.4028 33.3484C19.4471 33.394 19.5007 33.4308 19.5606 33.4568C19.6205 33.4827 19.6854 33.4973 19.7514 33.4997C19.8175 33.502 19.8834 33.4921 19.9452 33.4704C20.007 33.4487 20.0637 33.4158 20.1117 33.3736C20.1596 33.3313 20.1979 33.2806 20.2244 33.2243C20.251 33.1681 20.2652 33.1075 20.2661 33.0461C20.2671 32.9847 20.255 32.9237 20.2302 32.8668C20.2055 32.8098 20.1686 32.7581 20.122 32.7145L18.2351 30.8662H18.3927C18.977 30.8655 19.5402 30.6629 19.9725 30.2977C20.4048 29.9326 20.6754 29.431 20.7316 28.8907H20.9676C21.0991 28.8907 21.2253 28.8422 21.3183 28.7558C21.4113 28.6694 21.4635 28.5522 21.4635 28.43C21.4635 28.3078 21.4113 28.1907 21.3183 28.1043C21.2253 28.0179 21.0991 27.9693 20.9676 27.9693Z" fill="#5BA913"/>
</g>
</g>
</g>
<defs>
<clipPath id="clip0_4466_24">
<rect width="40" height="40" fill="white"/>
</clipPath>
</defs>
</svg>
