<svg width="512" height="512" viewBox="0 0 512 512" fill="none" xmlns="http://www.w3.org/2000/svg">
<g clip-path="url(#clip0_3759_4)">
<path d="M42.7 51.2H153.6V68.3H42.7V51.2ZM42.7 85.3H153.6V102.4H42.7V85.3ZM42.7 119.5H119.5V136.6H42.7V119.5ZM42.7 153.6H119.5V170.7H42.7V153.6ZM0 494.9H512V512H0V494.9ZM494 73L459.9 4.69997C457.8 0.499972 452.7 -1.20003 448.5 0.899972L380.2 35C376 37.2 374.4 42.3 376.5 46.5C378.6 50.6 383.6 52.3 387.8 50.3L437.2 25.6L423.7 64.1C364.5 233 211.7 351.5 33.4 366.9L34.9 384C219.9 368 378.4 245 439.9 69.8L453.7 30.4L478.8 80.6C481 84.8 486.1 86.4 490.3 84.3C494.4 82.2 496 77.2 494 73ZM102.4 409.6H42.7C38 409.6 34.2 413.4 34.2 418.1V469.3C34.2 474 38 477.8 42.7 477.8H102.4C107.1 477.8 110.9 474 110.9 469.3V418.1C110.9 413.4 107.1 409.6 102.4 409.6ZM93.9 460.8H51.2V426.7H93.9V460.8ZM196.3 384H136.6C131.9 384 128.1 387.8 128.1 392.5V469.3C128.1 474 131.9 477.8 136.6 477.8H196.3C201 477.8 204.8 474 204.8 469.3V392.5C204.8 387.8 201 384 196.3 384ZM187.7 460.8H145V401.1H187.7V460.8ZM290.1 341.3H230.4C225.7 341.3 221.9 345.1 221.9 349.8V469.3C221.9 474 225.7 477.8 230.4 477.8H290.1C294.8 477.8 298.6 474 298.6 469.3V349.9C298.7 345.2 294.8 341.3 290.1 341.3ZM281.6 460.8H238.9V358.4H281.6V460.8Z" fill="#B72837"/>
<path d="M384 281.6H324.3C319.6 281.6 315.8 285.4 315.8 290.1V469.3C315.8 474 319.6 477.8 324.3 477.8H384C388.7 477.8 392.5 474 392.5 469.3V290.1C392.5 285.4 388.7 281.6 384 281.6ZM375.5 460.8H332.8V298.7H375.5V460.8ZM477.9 162.1H418.2C413.5 162.1 409.7 165.9 409.7 170.6V469.3C409.7 474 413.5 477.8 418.2 477.8H477.9C482.6 477.8 486.4 474 486.4 469.3V170.7C486.4 166 482.6 162.1 477.9 162.1ZM469.3 460.8H426.6V179.2H469.3V460.8Z" fill="#B72837"/>
</g>
<defs>
<clipPath id="clip0_3759_4">
<rect width="512" height="512" fill="white"/>
</clipPath>
</defs>
</svg>
